<mxfile host="app.diagrams.net" modified="2023-03-23T21:32:42.228Z" agent="5.0 (Windows NT 10.0; Win64; x64) AppleWebKit/537.36 (KHTML, like Gecko) Chrome/111.0.0.0 Safari/537.36" etag="FlW71y5Frs-FtITo6I_L" version="21.0.10" type="github">
  <diagram name="Página-1" id="Fpuk0NBMm80s_NnI098_">
    <mxGraphModel dx="1434" dy="764" grid="1" gridSize="10" guides="1" tooltips="1" connect="1" arrows="1" fold="1" page="0" pageScale="1" pageWidth="850" pageHeight="1100" math="0" shadow="0">
      <root>
        <mxCell id="0" />
        <mxCell id="1" parent="0" />
        <mxCell id="boihqAiDFXftGaCO_2Xg-62" value="Cx" style="rounded=1;whiteSpace=wrap;html=1;fillColor=#60a917;fontColor=#ffffff;strokeColor=#2D7600;strokeWidth=3;glass=0;" parent="1" vertex="1">
          <mxGeometry x="270" y="200" width="240" height="68" as="geometry" />
        </mxCell>
        <mxCell id="boihqAiDFXftGaCO_2Xg-49" value="&lt;b&gt;Radiogrfía&lt;/b&gt;" style="rounded=1;whiteSpace=wrap;html=1;fillColor=#1ba1e2;strokeColor=#006EAF;glass=1;fontColor=#ffffff;strokeWidth=3;" parent="1" vertex="1">
          <mxGeometry x="221" y="113" width="340" height="70" as="geometry" />
        </mxCell>
        <mxCell id="boihqAiDFXftGaCO_2Xg-1" value="&lt;div&gt;Obstruccion Intestinal&lt;br&gt;&lt;/div&gt;" style="text;strokeColor=none;fillColor=none;html=1;fontSize=24;fontStyle=1;verticalAlign=middle;align=left;fontColor=#990000;fontFamily=Verdana;" parent="1" vertex="1">
          <mxGeometry x="40" width="310" height="40" as="geometry" />
        </mxCell>
        <mxCell id="boihqAiDFXftGaCO_2Xg-28" value="Distensión Abdmonial Dolor&#xa;Sin ruidos ni deposiciones" style="ellipse;shape=label;perimeter=rectanglePerimeter;rounded=1;" parent="1" vertex="1">
          <mxGeometry x="320" y="60" width="160" height="30" as="geometry" />
        </mxCell>
        <mxCell id="boihqAiDFXftGaCO_2Xg-29" value="Colon" style="rounded=1;" parent="1" vertex="1">
          <mxGeometry x="230" y="140" width="80" height="30" as="geometry" />
        </mxCell>
        <mxCell id="boihqAiDFXftGaCO_2Xg-30" value="" style="edgeStyle=elbowEdgeStyle;elbow=vertical;" parent="1" source="boihqAiDFXftGaCO_2Xg-28" target="boihqAiDFXftGaCO_2Xg-29" edge="1">
          <mxGeometry relative="1" as="geometry" />
        </mxCell>
        <mxCell id="boihqAiDFXftGaCO_2Xg-31" value="I.D" style="rounded=1;" parent="1" vertex="1">
          <mxGeometry x="470" y="140" width="80" height="30" as="geometry" />
        </mxCell>
        <mxCell id="boihqAiDFXftGaCO_2Xg-32" value="" style="edgeStyle=elbowEdgeStyle;elbow=vertical;" parent="1" source="boihqAiDFXftGaCO_2Xg-28" target="boihqAiDFXftGaCO_2Xg-31" edge="1">
          <mxGeometry relative="1" as="geometry" />
        </mxCell>
        <mxCell id="boihqAiDFXftGaCO_2Xg-64" value="" style="edgeStyle=orthogonalEdgeStyle;rounded=0;orthogonalLoop=1;jettySize=auto;html=1;" parent="1" source="boihqAiDFXftGaCO_2Xg-33" target="boihqAiDFXftGaCO_2Xg-63" edge="1">
          <mxGeometry relative="1" as="geometry" />
        </mxCell>
        <mxCell id="boihqAiDFXftGaCO_2Xg-33" value="Dinamica" style="rounded=1;" parent="1" vertex="1">
          <mxGeometry x="170" y="220" width="80" height="30" as="geometry" />
        </mxCell>
        <mxCell id="boihqAiDFXftGaCO_2Xg-34" value="" style="edgeStyle=elbowEdgeStyle;elbow=vertical;" parent="1" source="boihqAiDFXftGaCO_2Xg-29" target="boihqAiDFXftGaCO_2Xg-33" edge="1">
          <mxGeometry relative="1" as="geometry" />
        </mxCell>
        <mxCell id="boihqAiDFXftGaCO_2Xg-44" value="" style="edgeStyle=orthogonalEdgeStyle;rounded=0;orthogonalLoop=1;jettySize=auto;html=1;" parent="1" source="boihqAiDFXftGaCO_2Xg-35" target="boihqAiDFXftGaCO_2Xg-43" edge="1">
          <mxGeometry relative="1" as="geometry" />
        </mxCell>
        <mxCell id="boihqAiDFXftGaCO_2Xg-35" value="Mecanica" style="rounded=1;" parent="1" vertex="1">
          <mxGeometry x="290" y="220" width="80" height="30" as="geometry" />
        </mxCell>
        <mxCell id="boihqAiDFXftGaCO_2Xg-36" value="" style="edgeStyle=elbowEdgeStyle;elbow=vertical;" parent="1" source="boihqAiDFXftGaCO_2Xg-29" target="boihqAiDFXftGaCO_2Xg-35" edge="1">
          <mxGeometry relative="1" as="geometry" />
        </mxCell>
        <mxCell id="boihqAiDFXftGaCO_2Xg-46" value="" style="edgeStyle=orthogonalEdgeStyle;rounded=0;orthogonalLoop=1;jettySize=auto;html=1;" parent="1" source="boihqAiDFXftGaCO_2Xg-37" target="boihqAiDFXftGaCO_2Xg-45" edge="1">
          <mxGeometry relative="1" as="geometry" />
        </mxCell>
        <mxCell id="boihqAiDFXftGaCO_2Xg-37" value="Mécanica" style="rounded=1;" parent="1" vertex="1">
          <mxGeometry x="410" y="220" width="80" height="30" as="geometry" />
        </mxCell>
        <mxCell id="boihqAiDFXftGaCO_2Xg-38" value="" style="edgeStyle=elbowEdgeStyle;elbow=vertical;" parent="1" source="boihqAiDFXftGaCO_2Xg-31" target="boihqAiDFXftGaCO_2Xg-37" edge="1">
          <mxGeometry relative="1" as="geometry" />
        </mxCell>
        <mxCell id="boihqAiDFXftGaCO_2Xg-48" value="" style="edgeStyle=orthogonalEdgeStyle;rounded=0;orthogonalLoop=1;jettySize=auto;html=1;" parent="1" source="boihqAiDFXftGaCO_2Xg-39" target="boihqAiDFXftGaCO_2Xg-47" edge="1">
          <mxGeometry relative="1" as="geometry" />
        </mxCell>
        <mxCell id="boihqAiDFXftGaCO_2Xg-39" value="Dinánima" style="rounded=1;" parent="1" vertex="1">
          <mxGeometry x="600" y="210" width="80" height="30" as="geometry" />
        </mxCell>
        <mxCell id="boihqAiDFXftGaCO_2Xg-40" value="" style="edgeStyle=elbowEdgeStyle;elbow=vertical;" parent="1" source="boihqAiDFXftGaCO_2Xg-31" target="boihqAiDFXftGaCO_2Xg-39" edge="1">
          <mxGeometry relative="1" as="geometry" />
        </mxCell>
        <mxCell id="Arpv6Pk21w3APJ-SWSOh-4" value="" style="edgeStyle=orthogonalEdgeStyle;rounded=0;orthogonalLoop=1;jettySize=auto;html=1;" edge="1" parent="1" source="boihqAiDFXftGaCO_2Xg-43" target="Arpv6Pk21w3APJ-SWSOh-3">
          <mxGeometry relative="1" as="geometry" />
        </mxCell>
        <mxCell id="boihqAiDFXftGaCO_2Xg-43" value="Cancer" style="rounded=1;" parent="1" vertex="1">
          <mxGeometry x="290" y="280" width="80" height="30" as="geometry" />
        </mxCell>
        <mxCell id="Arpv6Pk21w3APJ-SWSOh-6" value="" style="edgeStyle=orthogonalEdgeStyle;rounded=0;orthogonalLoop=1;jettySize=auto;html=1;" edge="1" parent="1" source="boihqAiDFXftGaCO_2Xg-45" target="Arpv6Pk21w3APJ-SWSOh-5">
          <mxGeometry relative="1" as="geometry" />
        </mxCell>
        <mxCell id="boihqAiDFXftGaCO_2Xg-45" value="Adherencias" style="rounded=1;" parent="1" vertex="1">
          <mxGeometry x="410" y="280" width="80" height="30" as="geometry" />
        </mxCell>
        <mxCell id="boihqAiDFXftGaCO_2Xg-47" value="Ileo Paralitico" style="rounded=1;" parent="1" vertex="1">
          <mxGeometry x="600" y="280" width="80" height="30" as="geometry" />
        </mxCell>
        <mxCell id="boihqAiDFXftGaCO_2Xg-60" style="edgeStyle=elbowEdgeStyle;rounded=1;orthogonalLoop=1;jettySize=auto;html=1;entryX=0.5;entryY=1;entryDx=0;entryDy=0;elbow=vertical;" parent="1" source="boihqAiDFXftGaCO_2Xg-56" target="boihqAiDFXftGaCO_2Xg-47" edge="1">
          <mxGeometry relative="1" as="geometry" />
        </mxCell>
        <mxCell id="boihqAiDFXftGaCO_2Xg-56" value="Infeccion" style="ellipse;whiteSpace=wrap;html=1;shape=label;perimeter=rectanglePerimeter;rounded=1;" parent="1" vertex="1">
          <mxGeometry x="510" y="338" width="95" height="25" as="geometry" />
        </mxCell>
        <mxCell id="boihqAiDFXftGaCO_2Xg-59" style="edgeStyle=elbowEdgeStyle;rounded=1;orthogonalLoop=1;jettySize=auto;html=1;entryX=0.5;entryY=1;entryDx=0;entryDy=0;elbow=vertical;" parent="1" source="boihqAiDFXftGaCO_2Xg-57" target="boihqAiDFXftGaCO_2Xg-47" edge="1">
          <mxGeometry relative="1" as="geometry" />
        </mxCell>
        <mxCell id="boihqAiDFXftGaCO_2Xg-57" value="Farmaco" style="ellipse;whiteSpace=wrap;html=1;shape=label;perimeter=rectanglePerimeter;rounded=1;" parent="1" vertex="1">
          <mxGeometry x="592.5" y="366" width="95" height="25" as="geometry" />
        </mxCell>
        <mxCell id="boihqAiDFXftGaCO_2Xg-61" style="edgeStyle=elbowEdgeStyle;rounded=1;orthogonalLoop=1;jettySize=auto;html=1;entryX=0.5;entryY=1;entryDx=0;entryDy=0;elbow=vertical;" parent="1" source="boihqAiDFXftGaCO_2Xg-58" target="boihqAiDFXftGaCO_2Xg-47" edge="1">
          <mxGeometry relative="1" as="geometry" />
        </mxCell>
        <mxCell id="boihqAiDFXftGaCO_2Xg-58" value="Trastorno hidroelectrolitco" style="ellipse;whiteSpace=wrap;html=1;shape=label;perimeter=rectanglePerimeter;rounded=1;" parent="1" vertex="1">
          <mxGeometry x="670" y="338" width="95" height="25" as="geometry" />
        </mxCell>
        <mxCell id="Arpv6Pk21w3APJ-SWSOh-2" value="" style="edgeStyle=orthogonalEdgeStyle;rounded=0;orthogonalLoop=1;jettySize=auto;html=1;" edge="1" parent="1" source="boihqAiDFXftGaCO_2Xg-63" target="Arpv6Pk21w3APJ-SWSOh-1">
          <mxGeometry relative="1" as="geometry" />
        </mxCell>
        <mxCell id="boihqAiDFXftGaCO_2Xg-63" value="Ogilvie" style="rounded=1;" parent="1" vertex="1">
          <mxGeometry x="170" y="280" width="80" height="30" as="geometry" />
        </mxCell>
        <mxCell id="Arpv6Pk21w3APJ-SWSOh-1" value="Ayuno" style="rounded=1;" vertex="1" parent="1">
          <mxGeometry x="170" y="361" width="80" height="30" as="geometry" />
        </mxCell>
        <mxCell id="Arpv6Pk21w3APJ-SWSOh-3" value="Cx" style="rounded=1;" vertex="1" parent="1">
          <mxGeometry x="290" y="361" width="80" height="30" as="geometry" />
        </mxCell>
        <mxCell id="Arpv6Pk21w3APJ-SWSOh-8" value="" style="edgeStyle=orthogonalEdgeStyle;rounded=0;orthogonalLoop=1;jettySize=auto;html=1;" edge="1" parent="1" source="Arpv6Pk21w3APJ-SWSOh-5" target="Arpv6Pk21w3APJ-SWSOh-7">
          <mxGeometry relative="1" as="geometry" />
        </mxCell>
        <mxCell id="Arpv6Pk21w3APJ-SWSOh-5" value="Sonda NG" style="rounded=1;" vertex="1" parent="1">
          <mxGeometry x="410" y="363" width="80" height="30" as="geometry" />
        </mxCell>
        <mxCell id="Arpv6Pk21w3APJ-SWSOh-7" value="Cx" style="rounded=1;" vertex="1" parent="1">
          <mxGeometry x="410" y="420" width="80" height="30" as="geometry" />
        </mxCell>
        <mxCell id="Arpv6Pk21w3APJ-SWSOh-9" value="Si esta lado izquierdo se puede poner protesis por colonoscopia y operar despues para que no sea de urgencia pero siempre se operan" style="shape=note;whiteSpace=wrap;html=1;backgroundOutline=1;fontColor=#000000;darkOpacity=0.05;fillColor=#FFF9B2;strokeColor=none;fillStyle=solid;direction=west;gradientDirection=north;gradientColor=#FFF2A1;shadow=1;size=20;pointerEvents=1;verticalAlign=top;" vertex="1" parent="1">
          <mxGeometry x="260" y="400" width="140" height="100" as="geometry" />
        </mxCell>
        <mxCell id="Arpv6Pk21w3APJ-SWSOh-12" value="&lt;div&gt;Cancer colorectal&lt;br&gt;&lt;/div&gt;" style="text;strokeColor=none;fillColor=none;html=1;fontSize=24;fontStyle=1;verticalAlign=middle;align=left;fontColor=#990000;fontFamily=Verdana;" vertex="1" parent="1">
          <mxGeometry x="40" y="570" width="310" height="40" as="geometry" />
        </mxCell>
        <mxCell id="Arpv6Pk21w3APJ-SWSOh-14" value="" style="shape=image;verticalLabelPosition=bottom;labelBackgroundColor=default;verticalAlign=top;aspect=fixed;imageAspect=0;image=data:image/jpeg,/9j/4AAQSkZJRgABAQEBLAEsAAD/4QDKRXhpZgAATU0AKgAAAAgABwENAAIAAAAhAAAAYgEOAAIAAAAhAAAAhAEaAAUAAAABAAAApgEbAAUAAAABAAAArgEoAAMAAAABAAIAAAExAAIAAAAMAAAAtgITAAMAAAABAAEAAAAAAABUTk0gU3RhZ2luZyBvZiBjb2xvcmVjdGFsIGNhbmNlcgAAVE5NIFN0YWdpbmcgb2YgY29sb3JlY3RhbCBjYW5jZXIAAAAAASwAAAABAAABLAAAAAFTbGlkZVBsYXllcgD/4QwkaHR0cDovL25zLmFkb2JlLmNvbS94YXAvMS4wLwA8P3hwYWNrZXQgYmVnaW49J++7vycgaWQ9J1c1TTBNcENlaGlIenJlU3pOVGN6a2M5ZCc/Pgo8eDp4bXBtZXRhIHhtbG5zOng9J2Fkb2JlOm5zOm1ldGEvJz4KPHJkZjpSREYgeG1sbnM6cmRmPSdodHRwOi8vd3d3LnczLm9yZy8xOTk5LzAyLzIyLXJkZi1zeW50YXgtbnMjJz4KCiA8cmRmOkRlc2NyaXB0aW9uIHJkZjphYm91dD0nJwogIHhtbG5zOmRjPSdodHRwOi8vcHVybC5vcmcvZGMvZWxlbWVudHMvMS4xLyc+CiAgPGRjOnJlbGF0aW9uPgogICA8cmRmOkJhZz4KICAgIDxyZGY6bGk+aHR0cDovL3NsaWRlcGxheWVyLmNvbS9zbGlkZS8xMzY3MDcyNC88L3JkZjpsaT4KICAgPC9yZGY6QmFnPgogIDwvZGM6cmVsYXRpb24+CiA8L3JkZjpEZXNjcmlwdGlvbj4KCiA8cmRmOkRlc2NyaXB0aW9uIHJkZjphYm91dD0nJwogIHhtbG5zOnBob3Rvc2hvcD0naHR0cDovL25zLmFkb2JlLmNvbS9waG90b3Nob3AvMS4wLyc+CiAgPHBob3Rvc2hvcDpTb3VyY2U+aHR0cDovL3NsaWRlcGxheWVyLmNvbS9zbGlkZS8xMzY3MDcyNC84NC9pbWFnZXMvMi9UTk0rU3RhZ2luZytvZitjb2xvcmVjdGFsK2NhbmNlci5qcGc8L3Bob3Rvc2hvcDpTb3VyY2U+CiA8L3JkZjpEZXNjcmlwdGlvbj4KPC9yZGY6UkRGPgo8L3g6eG1wbWV0YT4KICAgICAgICAgICAgICAgICAgICAgICAgICAgICAgICAgICAgICAgICAgICAgICAgICAgICAgICAgICAgICAgICAgICAgICAgICAgICAgICAgICAgICAgICAgICAgICAgICAgIAogICAgICAgICAgICAgICAgICAgICAgICAgICAgICAgICAgICAgICAgICAgICAgICAgICAgICAgICAgICAgICAgICAgICAgICAgICAgICAgICAgICAgICAgICAgICAgICAgICAgCiAgICAgICAgICAgICAgICAgICAgICAgICAgICAgICAgICAgICAgICAgICAgICAgICAgICAgICAgICAgICAgICAgICAgICAgICAgICAgICAgICAgICAgICAgICAgICAgICAgICAKICAgICAgICAgICAgICAgICAgICAgICAgICAgICAgICAgICAgICAgICAgICAgICAgICAgICAgICAgICAgICAgICAgICAgICAgICAgICAgICAgICAgICAgICAgICAgICAgICAgIAogICAgICAgICAgICAgICAgICAgICAgICAgICAgICAgICAgICAgICAgICAgICAgICAgICAgICAgICAgICAgICAgICAgICAgICAgICAgICAgICAgICAgICAgICAgICAgICAgICAgCiAgICAgICAgICAgICAgICAgICAgICAgICAgICAgICAgICAgICAgICAgICAgICAgICAgICAgICAgICAgICAgICAgICAgICAgICAgICAgICAgICAgICAgICAgICAgICAgICAgICAKICAgICAgICAgICAgICAgICAgICAgICAgICAgICAgICAgICAgICAgICAgICAgICAgICAgICAgICAgICAgICAgICAgICAgICAgICAgICAgICAgICAgICAgICAgICAgICAgICAgIAogICAgICAgICAgICAgICAgICAgICAgICAgICAgICAgICAgICAgICAgICAgICAgICAgICAgICAgICAgICAgICAgICAgICAgICAgICAgICAgICAgICAgICAgICAgICAgICAgICAgCiAgICAgICAgICAgICAgICAgICAgICAgICAgICAgICAgICAgICAgICAgICAgICAgICAgICAgICAgICAgICAgICAgICAgICAgICAgICAgICAgICAgICAgICAgICAgICAgICAgICAKICAgICAgICAgICAgICAgICAgICAgICAgICAgICAgICAgICAgICAgICAgICAgICAgICAgICAgICAgICAgICAgICAgICAgICAgICAgICAgICAgICAgICAgICAgICAgICAgICAgIAogICAgICAgICAgICAgICAgICAgICAgICAgICAgICAgICAgICAgICAgICAgICAgICAgICAgICAgICAgICAgICAgICAgICAgICAgICAgICAgICAgICAgICAgICAgICAgICAgICAgCiAgICAgICAgICAgICAgICAgICAgICAgICAgICAgICAgICAgICAgICAgICAgICAgICAgICAgICAgICAgICAgICAgICAgICAgICAgICAgICAgICAgICAgICAgICAgICAgICAgICAKICAgICAgICAgICAgICAgICAgICAgICAgICAgICAgICAgICAgICAgICAgICAgICAgICAgICAgICAgICAgICAgICAgICAgICAgICAgICAgICAgICAgICAgICAgICAgICAgICAgIAogICAgICAgICAgICAgICAgICAgICAgICAgICAgICAgICAgICAgICAgICAgICAgICAgICAgICAgICAgICAgICAgICAgICAgICAgICAgICAgICAgICAgICAgICAgICAgICAgICAgCiAgICAgICAgICAgICAgICAgICAgICAgICAgICAgICAgICAgICAgICAgICAgICAgICAgICAgICAgICAgICAgICAgICAgICAgICAgICAgICAgICAgICAgICAgICAgICAgICAgICAKICAgICAgICAgICAgICAgICAgICAgICAgICAgICAgICAgICAgICAgICAgICAgICAgICAgICAgICAgICAgICAgICAgICAgICAgICAgICAgICAgICAgICAgICAgICAgICAgICAgIAogICAgICAgICAgICAgICAgICAgICAgICAgICAgICAgICAgICAgICAgICAgICAgICAgICAgICAgICAgICAgICAgICAgICAgICAgICAgICAgICAgICAgICAgICAgICAgICAgICAgCiAgICAgICAgICAgICAgICAgICAgICAgICAgICAgICAgICAgICAgICAgICAgICAgICAgICAgICAgICAgICAgICAgICAgICAgICAgICAgICAgICAgICAgICAgICAgICAgICAgICAKICAgICAgICAgICAgICAgICAgICAgICAgICAgICAgICAgICAgICAgICAgICAgICAgICAgICAgICAgICAgICAgICAgICAgICAgICAgICAgICAgICAgICAgICAgICAgICAgICAgIAogICAgICAgICAgICAgICAgICAgICAgICAgICAgICAgICAgICAgICAgICAgICAgICAgICAgICAgICAgICAgICAgICAgICAgICAgICAgICAgICAgICAgICAgICAgICAgICAgICAgCiAgICAgICAgICAgICAgICAgICAgICAgICAgICAgICAgICAgICAgICAgICAgICAgICAgICAgICAgICAgICAgICAgICAgICAgICAgICAgICAgICAgICAgICAgICAgICAgICAgICAKICAgICAgICAgICAgICAgICAgICAgICAgICAgICAgICAgICAgICAgICAgICAgICAgICAgICAgICAgICAgICAgICAgICAgICAgICAgICAgICAgICAgICAgICAgICAgICAgICAgIAogICAgICAgICAgICAgICAgICAgICAgICAgICAgICAgICAgICAgICAgICAgICAgICAgICAgICAgICAgICAgICAgICAgICAgICAgICAgICAgICAgICAgICAgICAgICAgICAgICAgCiAgICAgICAgICAgICAgICAgICAgICAgICAgICAgICAgICAgICAgICAgICAgICAgICAgICAgICAgICAgICAgICAgICAgICAgICAgICAgICAgICAgICAgICAgICAgICAgICAgICAKPD94cGFja2V0IGVuZD0ndyc/Pv/+ADYgSW1hZ2UgZ2VuZXJhdGVkIGJ5IEdQTCBHaG9zdHNjcmlwdCAoZGV2aWNlPXBubXJhdykK/9sAQwAGBAUGBQQGBgUGBwcGCAoQCgoJCQoUDg8MEBcUGBgXFBYWGh0lHxobIxwWFiAsICMmJykqKRkfLTAtKDAlKCko/9sAQwEHBwcKCAoTCgoTKBoWGigoKCgoKCgoKCgoKCgoKCgoKCgoKCgoKCgoKCgoKCgoKCgoKCgoKCgoKCgoKCgoKCgo/8AAEQgDAAQAAwEiAAIRAQMRAf/EAB0AAQACAgMBAQAAAAAAAAAAAAAFBgEEAgMHCAn/xABeEAABAwMCAgYGBAoHAwoEAQ0BAAIDBAUREiEGMRMUIkFRYQcVMlRxkUJSgbEIIzM2YnJzkpPSFiQmNXShwTRjgiU3Q0RTVnWys9EXOEZ2gydkhJSi8BhFlaOk4fH/xAAaAQEAAwEBAQAAAAAAAAAAAAAAAQIEAwUG/8QAKhEBAQACAQMEAwEAAgMBAQAAAAECEQMEEiETMUFRFCIyBUJhFSMzUnH/2gAMAwEAAhEDEQA/APqlERAREQEREBERAREQEREBERAREQEREBERAREQEREBERAREQEREBERAREQEREBERAREQEREBERAREQEREBERAREQEREBERAREQEREBERAREQEREBERAREQEREBERAREQEREBERAREQEREBERAREQEREBERAREQEREBERAREQEREBERAREQEREBERAREQEREBERAREQEREBERAREQEREBERAREQEREBERAREQEREBERAREQEREBERAREQEREBERAREQEREBERAREQEREBERAREQEREBERAREQEREBERAREQEREBERAREQEREBERAREQEREBERAREQEREBERAREQEREBERAREQEREBERAREQEREBERAREQEREBERAREQEREBERAREQEREBERAREQEREBERAREQEREBERAREQEREBERAREQEREBERAREQEREBERAREQEREBERAREQEREBERAREQEREBERAREQEREBERAREQEREBERAREQEREBERAREQEREBERAREQEREBERAREQEREBERAREQEREBERAREQEREBERAREQEREBERAREQEREBERAREQEREBERAREQEREBERAREQEREBERAREQEREBERAREQEREBERAREQEREBERAREQEREBERAREQEREBERAREQEREBERAREQEREBERAREQEREBERAREQEREBERAREQEREBERAREQEREBERAREQEREBERAREQEREBERAREQEREBERAREQEREBERAREQEREBERAREQEREBERAREQEREBERAREQEREBERAREQEREBERAREQEREBERAREQEREBERAREQEREBERAREQEREBERAREQEREBERAREQEREBERAREQEREBERAREQEREBERAREQEREBERAREQERQ1w4r4ettW+luN+tNJVR41wz1kcb25GRlpORsgmUVd/pzwn/3osX/9Qh/mXOHjThaeZkUPElkkle4NYxlfES4k4AA1blBPoo67X20WYxi73SgoDJnR1qoZFqxzxqIyu+23CiudK2pttXT1dM4kCWnlbIwkeYJCDaRatzuNFaqN9Xc6uno6VmA6aolbGwZ5ZcSAsWu50N2pBVWutpq2mJLRNTytkYSOYy0kINtFDXDivh63Vb6W4X600lSzGqGesjje3Pi0uyFJ0dVT1tNHUUc8VRTyDLJYnh7XDxBGxQdyIoe5cUWC11RprnfLXR1AAJiqKuON4B5bEgoJhF0UNZTV9LHVUNRDU00gyyWF4exw8QRsV3oCLoraymoaaSpraiGnp4xl8srwxrR4knYKrU3pO4HqasU0PFlkdMTpDeuMGT4A5wUFwRYje2RjXxuDmOGQ4HII8VnI8QgIiICIiAiIgIqfx96SOF+AzSN4muPVpKrJijZE+VzgOZw0HA371YLBeKDiCzUl1tFQ2poKpnSQytBAcPgdxvkYKCQREQEREBERAREQEREBF5T6RvTrwlwNd32msNZX3KPHSw0UbXdFncBznOAzjuGT44Vn9GXpAtHpFsUt0sbKqOOGYwSxVMYY9jw0O7iQRhw3BQW9ERAREQEREBF556UvS1YPRtUUEF8guE0ta1z4xSRNdhrSAclzh4q5cOXil4gsNvu9B0nVK6BlRF0jdLtLhkZHcUEiiIgIiICIiAiIgIiICJkeKICIiAi0r5c4LLZq+51mvq1FA+ol0DLtLGlxwO84Co3ou9L3D3pIr62jscFxhnpIhM8VUTWgtJxsWuPeg9GREQEREBERAREQEREBERAREQEREBERAREQEREBERAREQEREBERAREQEREBERAREQEREBERAREQEREBERAREQEREBERAREQEREBERAREQEREBERAPJfPnpI/BwZxlxrdOIBxM6j689shgNF0mghjW+1rGfZ8F9BoeRQfm1xrweOGfSPWcKit6yKepjp+s9Fo1ag0505OPa5Z7l9EWv8FNlFc6SqPF75GwTMlLBbg0uDXA4z0hxy5ryL00//ADGXb/xKn/8ALGvvoIPjL8NXJ9I1mbnb1U3n+2kUd+DFxrPwR6RZOHby90FBc5OqyskOBDUg4Y7yycsPxHgpH8Nb/nGs3/hLf/WlWt+FDwNJZ66z8X0DXClukETKlzdujqWxjB8tTRn4tPig9q/C8/5npv8AHU/3uWv+Bx/zSTf+Jzf+SNUD0g8dDjz8FyGtqJQ660tdT0tcO8yNzh//ABNw74kjuV//AAN/+aSb/wATm/8AJGg+aPSBZ6niL07cSWqkOamqu9THEDvl2pxA+3AC9b/At4tdHW3jhSqlOiRorqVjjs1ww2Ro+ILTjyKpVB/83Dv/ALlk/wDUcuvikO9Ef4SBrYGmOgjrW1jA3YGmm9to+Ac9v/Cg+1OKr3TcOcN3K8VpxT0NO+d4zz0jIA8ycD7V+cl0huXEFHeuLa+Qv1V7GTPcM65ZhI/APkGH/JfU34YnF7KPgi22CjmBkvEgnkLTnNPHgj7HOLf3SvN+N+Fjwx+Clw500eirud3juE2Rg9uGXQPsYG/MoPaPwRXE+h6myTgVtQB5doL2o8l4p+CH/wAz1P8A42o+8L2tB8QfhTcV3LiH0oz8NioMVstr44IoXO0xulc1pdI7z7WMnkB5leiO/BQtbrS1sfE1a256e1IYGOhLvJmzsf8AEtT8J30M3e8X+bi3hSldXOnjaK6ki3lDmtDRIxv0gWgAgb5Gd87ed+j/ANPnGPA74rZd2m7W+mxEaatBZPEBtpbJjUMeDgceSD6l9GNpk9GPoqgouLbnStZbnSukqRIeiZG6Ulm7gCNnDbHM4XzjdfS7eR6eA6m4tqP6KC7xtw2f+rdW1NDtuWnGd19IUtfw/wCmz0X1cVLPUx2+vb0NQ1pDZqeRrmu0nmMggHvBB818X3TgugpfTb/Q6OeqNuN2joOmcW9Loc9rc5xjVv4Y8kH3rwvxfw/xV1j+jt3o7j1fT0vV5NWjVnGfjg/JRPEvpS4J4aqn0t54joIKlhw+FjjK9h8HNYCR9qivRh6IrN6OYbw2y11xmkuTGxySVL2ExhodjTpaPrE/YF5xZvwdOCeH6bpeN79JWVL8kufUNo4vsBOonz1fYg9f4V9JvBvFVYKSw8QUVVVuGWwEmOR36rXgE/Yrivz79NfD1j4H47o3cCXhtTRugZVxSQ1TZnU8oeRgPb4aQRnfdfTnp44ouVL+D8bnQvdDVXKClZLJGcFjZQC/GOWRlv8AxILXefTBwDZ699FX8T0Dalh0vbHqlDT3glgIB+1cmel7gB+nTxZae1jGZsf6Lwj8HT0P8H8Z+j6a78QRTVtdNUSQgR1Do+rBuAMBp9o51drOxG3j5n6MOBrLxD6aqjhStlqau0smqo46inlDHObFqLXk4IIIbg4+tsg+jPwi+D+C+IqmzVnF3FQ4fqWMfFATpeJmZBPZO+xI3HivRfR9RWPhb0cWyG0XFlRYqOkMrK17wWvZu90hI2xu4+S+e/w3WiOp4LYwYa2OqAHkDEvUeDf/AJWo/wD7cn/9J6C8Wj0gcKXi2V1xt1/t81DQ4NVP0oayEHONRdjGcHHjhRFo9MXAN3ubLfQ8TUT6qR2hjXh8Ye7uAc5oac/HdfGfoS4Gr/SPf5rBHcn0VpY1tZW4Ochp0tw3kXdsgE7DJPkbB+ER6IqL0autFVZq2qqaGuL43tqi0vY9oB5tABBB8NsIPutU7in0m8G8K1po79xBRUtWPagBMkjf1msBI+1U3gfi65SfgyM4ia9010pLRUaZHbkvh1sa4+J7IJ8V4Z+DJ6PbB6RK/iGt4vdLXzUxjLaczuYXmTUXSuLSHHcePMnKD6Xh9Mfo+lja9nFlrAdyDpC0/IjIV1tdwpLrb6eut1RHU0dQwSRTRu1Ne08iCvgzjbgmyWX0+RcKW91RU2iWtpoTGyX8bGJdOpgfg7t1d48Mr7o4VsVHwzw9QWa29J1OiiEMXSO1OIHeT4oJVVPiz0jcI8JVHV+Ib9RUdTjPQFxfKB3EsaCR9oWp6aOK5eC/RtebzSForY4xFTahkCV7gxpx34zq+xfKv4Pvoui9Kd0vF34prax9FTyAPLJMS1Mz8uOp5zsBue85CD6t4Y9KXBXE9ayjsnEVFUVb9mQuLonvPg1rwCT8FP8AEfEFp4bt4rr9cKegpDI2MTTv0tLjyHx2PyXxx+Ed6IqD0cMtd44bqKrqFTKYHxTv1OhlA1NLXAA4IB57gjnvt7LwVbaf06egqzU3FNXVtqKap0zVFO5okfJFlocS4EbscCdue6D5q4LqbDfPTaK3jSogdZKmvqKmpkneRG/OtzcnwLtPx5L7h9G9DwlS2OSo4DioW2urmdK51EcxvkADSfLGkDC+FfRnwZQ8Velil4Xrp6mKilmnjMsJaJAI2vIwSCPojuX3b6N+DKDgLhaCxWqapnpopHydJUOBe4uOTnAA/wAkFoVe4s414c4RjY/iS8Udv6QZYyV/bePFrBlxHwClb1cIrTZ6641GTDSQSVD8fVY0uP3L4S9Hdhr/AE5elmqfxBXTNZIx9ZVyx4LmRAgNjjzsN3NaPAZOCg+yOFPSdwbxXWCksPEFHVVZ3bAS6OR36rXgE/ZlWqurKa30ktVXVENPTRN1SSzPDGMHiSdgF4T/APw22e1cTWG88L3WtpXUFbDUTQ1ThKJGMcHHS4AFrtu/I+C8x/C64xr7tx1HwjRyvFBQNjMkDDtNUSAOBd44a5oHhkoPoOb04+jiGpMD+KaQvBxlkcrmfvBuP81d7DfLXxBbmV9kr6avo3nAlp5A9ufA45HyO68KtP4LvDA4ZigudbcnXp8QMlVFKAyOQj6LMbtB8Tk45heN+gu73L0e+nJnD8056vUVrrTWRg9h7tRax4HiHYIPgSO9BcPw3v7/AOFv8LP/AOdq+hvQt/zS8If+F0//AJAvnn8N7+/uFv8ACz/+dq9Tg4qk4M/Betd7pi3rcFlpmU+oZHSva1jTjvwXZ+xBfOLfSJwlwjOIOIb7R0dQRq6AuL5Mdx0NBcB9i1OGfSpwTxNWso7LxFRT1chwyF5dE958Gh4GT5BfKPoA9GLPSterxduKa2sfR0zwZXMkxLUzPyd3kHYAZPfuFt/hH+h+3ejqltl64bnquo1E3V5Ip363RSYLmlrsA4Iaee4I577B9qzzR08Ek072xxRtL3vccBoAySVVrZ6R+D7nbrhX0PENulo7e0PqpRLhsIJwCc45kYHiVSfRJxXVcX+gCetuUpmr6ekqqOeVxyZCxhw4+ZaW588r5I9EvCF14/4kHDVurDS0cwFTWPOS1kcewcW/SIL8AeLu7mg+9OC+O+GuNWVTuGLrFXilLRMGscws1ZxkOAODg7+S6uLfSJwnwhOIOIr7R0VQRq6AuL5Mdx0NBcB54Xmlu4Jo/QFwNxnxBa7jUV8ktLH0TamNo0SNLmszjmC6Qd3ILwn0H8P8Mca8Q3q8ek6/U7WRua4RVdcIH1cryS5xcSHEADuPMjwwg+v+EvSPwjxdUmm4evtHWVIGroASyQjvIY4AkfAK2r4M9OVi4Y4L4ps9x9Gl6gkilDpNFJWioNJLG4YIcCSAcgjPge5fRfpC9JVZQfg70vFNG/obtdKSCOJ7dujmlHbcPMAPI8wEF04n9KXBXC9c6jvfEVFT1bDh8DS6V7D4OawEt+3C3rHx7wtfrTV3K03yhqaKkjMtRI2THQsAyXPacFowDzC+TPwdfQ9Q+kilud74lqqwUMM/QMZA8NfNLgOc5ziDsA4eZJ57b+ycMfg9W7hziK9SUV2qn2K6Wme3SU0mOmYZC3cPAwQAMjI545oPIfSx6Xrx/wDGCZ/C3FtT/RxslN0fVpvxGnQwybcjvqzlfWHDHG3DXFFTNT8P3qhuM8LekkZBJqLW5xk+WV8H+lLgmh4R9K1TwvQ1FVNRRSU7BLMWmQiRjHHkAPpHGy+xPRT6GrH6N7vWXG0V1yqp6mDq5FW9hDW6g7bS0b5AQWHin0kcH8K1Bp79xBQ0tS32oNZkkb8WNBcPtC1eG/SxwPxJXR0Vn4jopquQ4ZC/VE558Gh4GT5BeWwfg7cJW+urrnxvf5qp1TUSStDpm0sYDnE9pxJc52+5yF4j+EBwjwrwhe7VJwLdY6qlqo3ukjirG1BgkY4YIcDkZB2z3g7oPtD0p/8ANnxZ/wCFVX/pOXzJ+BJ+ePEP+AZ/6oXuIutRe/wbJ7lXPL6qp4akfK883v6uQXH4kZ+1eHfgSfnjxD/gGf8AqhB9hrhNLHBC+WZ7Y42NLnPcQA0DmSTyC5r5e/DO4yrKSK1cKUMzoYaqI1lYGnBkaHaWMPlkOJHfgeCD12q9Nfo7paw0svFVCZQcZjD5GZ/Xa0t/zV4tV0obvb4q+11cFZRSjVHPBIHscPIhfNfoy/BusN34Dt9y4kq7kLncadtSBTStY2BrxlgALTk4IJz8F6RwL6J6jhb0X8S8IC9GX1m+o6CrbGWmJskbWDLc89snBQTl89L/AADY6p1NcOJ6ATtOHMhLpy0+B6MHBUnwl6QOFeLpXxcOXyjrpmjUYWOLZAPHQ4B2PPC8ctv4Pno74coms4vvbqitc3L3z1jaSMH9FmcgfEleCcUUtF6O/TTCeDboKyio6mCelnjmbJ2XBpcwubsebmnxHNB96cRX+18N2x9xvldBQ0THBpmmdhuTyHxUTUekLhOm4bhv89/oGWiZxZHUmXaRwOC1o5kjB2AyvPvwutvQ5U/42n/8xXhPoD9EcnpPt8lZfrtVQWC2yOpoIIHgyF57bg3VkMb2gScEknyQfWHCPpM4P4urDScPX6lq6sAu6DtRyEDmQ14BP2K4L89vSlwvP6I/SjHT2aumk6t0VfRTvwJAM5AdjbILSPMd26+oPwk+Oarh70TRTWqV9PXXl7KdkjDh0bHML3kHuOBpz3akFv4g9LfAnD9e+iuvEtDHVRu0vjj1TFh8HaAcHyKsPC/E9k4qoTWcPXOluFO06XOgfq0HwcObT5EBfJ/4PXoOtfHPDM1/4mqKsU75nQU0FNIGZ04DnucQe8kADwOV7b6KPRDB6MOJb5caK7SVFpq6djGRTt/GR6XFxLnDZ2ByOBzO3iHoPFPFdi4UpG1PEV1pLfC84YZ5MF5HMNbzd9gVcsfpg4BvlfHR23iaifUyO0sZKHw6j3AF4AJ8l8i0NfS+l300PquM7zHb7LI+STVNO2IRU7M6IWF2wJ2H2uPNWn09cD+ja1cJxXTgG727r0EzI5aSC5Cp6ZjsguDS4kEHG42wSg+zZJGxxue9waxoJcScAAc1VLV6R+D7rS19Tb+IrdNT0DOlqpBLhsTM4DiTjbOyoH4OXFFXxN6E5hcZnTVNuM1CZHnLnsbGHMye/DXAfYvkv0WcLXbjniVnDNqqjTQVYEtW8nsNjj31Ob9LBOw8SOXNB98cGcfcMcavqm8MXaKvdS46ZrWPYWg5wcOAyNjuFaF5d6HvQ/Q+jO4XOqoLpVVoroo4y2eNrSzSSScjnnPLux3r1FAREQEREBERAREQEREBERAREQEREBERAREQEREBERAREQEREBERAREQEREBERAREQEREBERAREQEREBERAQ8iiHkg+BfTT/APMZdv8AxKn/APLGvvoLwbjP8HqPiX0kz8VHiJ9OyeojqH0vVA4gsDRgP1jnp8O/vXvKD4y/DW/5xrN/4S3/ANaVfTfEvCtJxp6MnWKuw1lVRRiOTG8UgaCx4+DgD8MhUz01ehFvpM4joLqb663dXphSuj6r0uoB7nZB1DB7RC9foacUlHBTtcXNijbGCeZwAP8ARB+alXU3bhiHiHhatZ0XTTMjq4XfRlheS1w+bhnwcvr38Dj/AJpJv/E5v/JGtn0t+gC1+kDiQXyC6SWmtkYGVOinErZi0Ya7GpuHYwDucgBXf0ScB0/o54RbY6atkrfx76iSd7AzU52Bs0E4GGjvKD5OoP8A5uHf/csn/qOXo/4afC/TWqx8TwR5fTvNDUEfUdlzCfIODh/xBW6n9AjIvS+7jc8QOc03B1w6n1UA6iSdOvVyyeeF6d6QOFaXjXg65cP10hihrIw0StaHGN4Ic1wHfggIPhDh5109KvH3CVmuLzII4oLcC3PZpogS53x0hxJ8V9I/hkxMg9EtsihYGRsusLWtAwGgRSgBS3oY9BFL6OOI6i9TXc3SqdA6CEdW6IRBxBc72jkkDHdsT4q2+mf0et9JXCcNmNxNvMVUyqbMIelyWtc3SRkfX557kFR/BD/5nqf/ABtR94Xtapfoj4Gb6PODobE2vNfolkmMxi6PJec4DcnljxV0QUq3+lDhGs4juVideKelulBO6nkgqnCHW5vPQXbO322OduS8l/C5dwbVcFtqXy0EnFAljbRuge10zmZ7YfpOSzTnnsDjClPSj+Dja+Lr/W3u03ea111Y8yzxyRCaJ7zzcNwW55ncqp2L8E5ratj77xOZKYHtRUdLoc4fruJx8ig3fwIqaqZw9xRUSa+pyVMLIsjYvaxxfj7HMXlHGFTDbvwpZqqukbDTwcQwyyPfsGsEjCXHyxuvtvhXh22cLWKmtFjpW0tDTtwxjTkkncuJO5JO5JXkXpk/B+ouPeIX323XU2u4zNa2oa6HpY5i0YDtiC12AAeYOAg9C474vgtnA3El0slXSVlbbaJ87WRStk0O0nQ5wBO2Rnfngr5I9BvA0Hpj4qvdTxje66WWmYyV4bKDPOXOIzqcDhox3DvA2X0T6GfQtTej+2X2muVwbd/XEbYJ2dB0cYjAcC3GSTnWd9l59dvwWZIbw+o4Y4qkoaVxOhk0LjJE09we1w1fIIPG/wAIHhDhrgnjKCz8K1UtQ1lKHVbZZhK6KUud2SQBg6Q0457r6J9N19Fl/BrtsRpI6k3Kko6EdI3LY9UQdr+I0beeD3KGuP4Kttms9FBRcQzxXFj3vqquan6QT5AwGsDhpAwTzJOo5PJbn4U15/ol6J7NwvDBFVdea2kM88YOhkDG5cB3PJ04Pdug8Q4A4Lp7pwxBWUXpOtFinrNbKu31FU6nc3DiAHYcNYIwdxjdfRn4P3oy4X4NdU3G2X6j4hu8sfRPqqeRhZCwkEta1rjjJAySd8dy8x9D3oC4W4z4Aob3c73XOrKnW58dFLGGQYcQGOBaTqGMnOOfLvPmN3pHejf0zso+B7xJXvo6qFkM8ZGXl2nVE7Ts7clpA2Pgg9Y/Di/23g79Sq++Jen8G/8AytR//bc//pPWz6cPRCPSi6zyeuDbX24SgDq/Sh4fp/SGMaf81arNwXHbfRizg7rr5Ixbn281XRgEhzC0v05/SzjKD5l/Am/Pm/f+Gj/1WK4/hufm1wz/AIyX/wBMK6ehL0Kj0ZXq4XE3w3J1VTinDOq9EGjUHZzqOTspj03ei8ek+1W6k9am2uopnSh/QdKH6m4wRqGEFL9Fl8HDf4J7Ls6lZV9VpKtwgkGWSEzPaA4fVyd/LK+c/Rjw1T3unra+Hjy28KXSKbomQ1EzqcyRkZLmvDhtnbG/LfuX09xbCPQx+DxNbYHR3eSFjqRr6iACN7p5HZLmZPZAcdiTnA8V4h+D36HrB6R7Lcq++XapingqOhjpaORjXtbpB1uDgdjnAwB7J+wPTPQd6I+F7TxPFfani+28TXqImWGKknY5kbzzkPaLnuGTgnGOe5X0evgD038FWz0Y8XUFNwtfaipn6Lp3Ze3p6R4d2cuZjBPMbAjHmvt70eV1dc+BOH667NIuFTQQSz5GCXuYCTjuzz+1BR/wpLbPcfQzeerNL3UzoalzRz0MkGo/YCT9i8u/Au4nttJS32wVlTDT1ss7KqBsjw3php0uDc8yMA48D5L6mqYIqqnlgqI2SwytLHxvGWuaRggjvBC+bOMPwV7fW3CWp4Xvj7dC9xcKSph6ZrPJrwQceAIJ80Gv+GhxTbZ7DZ+HaWqhnuHW+tzRxuDjExrHNGrHIkv2HkVfvwU7RPavQ7b31LDG6unlrGtPPQ4hrT9oaD8CqZwX+CzbaC4xVfFN5fdIo3B3VIIehY/ye4kuI8hj4r6Qggjp4I4YI2RxRtDGMYMNa0bAAdwwg+FfQF/8yFu/xVZ/6cq+7l4XwD6AI+EvSVHxX/SF9U2KSaRlN1QMJMjXDBdqPLV4b47l7oghOOKCW6cF3+30zS6eqoKiCMDvc6NwH+ZXxl+CjxPb+F/SbNHep46SGvo3UjZZnaGsk1tcA4nYZ0kb9+F90HdeAek/8G208U3qou9guJs1VUPMk0Bh6SF7zzcACC0k7nmPIIPVb96QeGLJWW6jrrvS9cuFRHTU8ETxJI5z3BoJa3OG5PtHZfHf4S1LUWP0819fLGSyd1NWw5HttDGg/wD7THBexejv8GSj4f4gobvfb4+4SUczJ4qeng6Jhe0gtLnEkkZAOBhen+lj0XWP0k22GG69JT1tPnq9bBjpI882kHZzT4H7CEE7beMLBcOGo77BdaMWt8QmM7pmhrBjJDt9iORB3yvivgknjv8ACXp7hbY3GmnvT7iDjGmFjzJk+GwH2legu/BNreslreLKfq2faNC7Vj4a8Z+1e3+iX0TWL0bU0xtxlq7nUNDZ66cDW5vPS0DZrc743J7ycBB4T+G9/f3C3+Fn/wDO1XHjW2z3L8D23Npml76e10VSWj6jCwuP2NyfsVt9OHocHpPrLXUi9G2voY3x6erdKHhxBz7QxjC9A4V4dhsXB1t4ekeKyno6RlG50jABK1rdJy3cbjuQfNn4F3E9to2X6w1tTFT1k8sdTTtkeG9MA0tcG55kdk48CfBSv4Z3FVtk4atXDlNVQz3F1YKuWONwcYmNY5o1Y5El+3wK7OMvwWLdXXGWq4XvT7bDI4u6pUQ9Mxme5rgQQPAHPxTg38Fi3UNxjquKb2+5Qsdq6pTwmFj/ACc4kkjyGPigm/wfLRPavwc66SpYWGvjrKxgdz0GPS0/aGZ+BXkv4F//ADo3H/wmT/1Yl9jVtrhnsc9rga2np5Kd1M0RtAEbS3SMDlgDkPJeS+hf0Gt9GvE9XePXxuLpqV1K2LqvRAAua7UTqOT2Rt5oLD+EXbZrr6GOJ6elY58rIG1GlvPEcjXu/wD2WlfLP4OnBXBnHVwuds4rqKiG4tDJKJkdQIulbuHgZByR2TjwJ8F92SMbLG5kjQ5jgQ5rhkEeBXzjxt+C5a7jcpa3ha8PtLZHa+qSw9LGw+DHAhzR5HOEEhePwfPRdZKV1Td7hW0FO0ZMlRcWRtH2lq5fhK8N09D+D9SUVgjJttpmppGYdr/FAOYHZ793g581WrV+Cm6SpbJxBxZJNENiympsOI8nvccfIr6Tns9DU2N1oqqdk9vdB1Z8MvaD49OnB+xB85fgbcXWmm4YuvD1dWU9NXtrDVxMmkDOlY5jWnTnmQWbjzC92oeO+HLhxaeG7fc4Ku7NgdUPjgPSNja0gEOcNg7tDbOV4JxL+CjBNcXy8O8ROpaR7siCrp+lMY8A9pGR8RnzXoXoX9B1u9G9xluslymud1khMAf0YiijaSCdLckknA3J+xB85/hIyNpvwhrjPNlsTX0chdj6Iijyf8ivsy48UW9lkuVXa62jrp6WikrWwwzteXta0kHAOcEgDK879NnoNofSRcYbrTXF1ru0cYhe/oukjmYCdOpuQQRk7g8tsLh6D/Qi30b3K43Csu7bnNWU/VejbT9GxrC4OOcuOScAdyD509FNgk9NfpJrBxpfKouFO6qdpeOkk7TR0cerIa0as7DYDl3p+EZwHwtwBeLRbuGKuomqZI3yVkU87ZHxbt0ZAA057XPwXrPE/wCC5HJfZK/hLiJ1sge8vbTywucYc9zHtcDjwBGcd5XbUfgsUE3D7If6R1Dr26cSzV0tPqa5uCNDWa9tyDqJJ27kFysH/wAqrf8A7Yl/9Fy8e/Ak/PHiH/AM/wDVC+lbfwWyk9FzeDeuufGLa63Gq6MA4LC0v05884z9qpvoR9C49GN2uNcb2bk6rhEAZ1bogwB2rOdRyUHsC+OPw17dPFxxY7i5p6tUW8wNdjbWyRxcPlI1fY6qvpH4Fs/pA4efab5E7SHdJDPEQJIH4xqaT8iDsQggfQ/x1Ybv6MrHUi6UULqSiigqo5Z2sML42Brg4EjA2yCeYKhfSZ6VaST0QcTX7gau6xLR1DbeKpjSGxyOcwF7SRuAH7HlnC8yk/BMqOukR8WRdUzsXUJ6QDwxrx/mvauEvRHw/wAPejqv4Pd09dQ3AufVyTOAfI8gDUMezjS3HhjvQfNv4P3oqtXpTgvN44pu1fLNBUCMxQzDpXkt1dI9zg4kHkPMHdUP0oWGw8NelKW08K1T6q3U0kLdbpRKRJtrbqAAODt5L22X8FesprjKbRxi6Cil2OqmcJQ3wOl4Dv8AL4KWrvwWbUZrS613+emFKB1l0tOJXVD9erUMOAbtsBg8u/dBZvwu/wDmdqf8bT/+YqG/Aq/5tbt/4q//ANKJen+lvgYekPg2axOrzQF8scwmEXSYLTnGnI5/FafoW9HLfRnwxUWkXI3F09U6qdKYeiAJa1ukDJ+rzz3oPmL8Mn/napv/AAqH/wA8q9G/Cwt09R6IuFq2JhdFSTRCXH0Q+HAPwyAPtCtfpk9BLPSRxZBevX7rcWUzKZ0XVelyGuccg6h9b/Jep3Lhy33bhZ9gu0Dau3y07aeRj9tQAAB25HYEEcig8V/BH4ws7/Rz6knrqanuFBUSuMMsrWOfG86g8ZO4ySDjljzXq1Jxjw9xRdLtw3ZrnDWV9PSl0/QHWxgdlmNY2JBO4HJeCXr8E4Pr3OsvE/R0bjtHV0ut7B+s1wDvkF6t6F/Q7bfRl1uoir57jcquMRSzvYI2NYDnS1gzjfmSTyHJB8d+i3h+wVvpIisPHkktFSOdLTPeJRF0c7dmhziDgZBHxIX0/Ufg3ejilpzUVE9yhgAyZJK5rWgeOS3C3PSz+D9ZOObtNeKCtks91m3ncyISRTO+s5mQQ7xIO/eM7rz2k/BTr5JGMuPGDOrMOzYqRzj9gc/AQe2ej/hrhjhj0fV1PwVUNq7XUdPMagVAn6R+nSe2NttONvBfL/4HX/O4/wD8Nn/8zF9ccE8F0XCHA1Pwzbpp5KaGORnTS4L3F5cXO225uOy869DvoHZ6OeLpb36/dcM076dkPVeiwHFpyTrP1fBB7ciIgIiICIiAiIgIiICIiAiIgIiICIiAiIgIiICIiAiIgIiICIiAiIgIiICIiAiIgIiICIiAiIgIiICIiAiIgIiICIiAiIgIiICIiAiIgIiICIiAiIgIiICq3pG4EsvpAsPqu/xPMbX9JDNE7TJC/GNTTv3HBBBBVpRB8wz/AIKEDZnGh4wqoYXc2vogXY8yHgH5K+ejH0A8M8D3OG6yzVF2usJ1RS1IDY4nfWZGO/zJOO7C9iRAAwMIiICIiCK4osFt4osNXZ71TipoKpmmSMkjvyCCNwQQCD4hfPlx/BRt5qnSWfiqupIiThs1M2VwHhqa5ufkvphEHgfBX4MnDNluUVdfa+qvkkTtbYZGCKFx59poJLvgTg94K97a0NaGtGAOQCyiAiIgIiICIiAiIgIiICIiAiIgIiICIiAiIgIiICIiAiIgIiICIiAiIgIiICIiAiIgIiICIiAiIgIiICIiAiIgIiICIiAiIgIiICIiAiIgIiICIiAiIgIiICIiAiIgIiICIiAiIgIiICIiAiIgIiICIiAiIgIiICIiAiIgIiICIiAiIgIiICIiAiIgIiICIiAiIgIiICIiAiIgIiICIiAiIgIiICIiAiIgIiICIiAiIgIiICIiAiIgIiICIiAiIgIiICIiAiIgIiICIiAiIgIiICIiAiIgIiICIiAiIgIiICIiAiIgIiICIiAiIgIiICIiAiIgIiICIiAiIgIiICIiAiIgIiICIiAvOnXrikOOKi1Yyf8AoHfzL0VefOzqO45rtxYzLex1+uuKveLV/Ad/Mnrrir3i1fwHfzLnv4hN/ELr6eP0hw9dcVe8Wr+A7+ZPXXFXvFq/gO/mXPfxCb+IT08fpLh664q94tX8B38yeuuKveLV/Ad/Mue/iE38Qnp4/Q4euuKveLV/Ad/Mnrrir3i1fwHfzLnv4hN/EJ6eP0OHrrir3i1fwHfzJ664q94tX8B38y57+ITfxCenj9Dh664q94tX8B38yeuuKveLV/Ad/Mue/iE38Qnp4/Q4euuKveLV/Ad/Mnrrir3i1fwHfzLnv4hN/EJ6eP0OHrrir3i1fwHfzJ664q94tX8B38y57+ITfxCenj9Dh664q94tX8B38yeuuKveLV/Ad/Mue/iE38Qnp4/Q4euuKveLV/Ad/Mnrrir3i1fwHfzLnv4hN/EJ6eP0OHrrir3i1fwHfzJ664q94tX8B38y57+ITfxCenj9Dh664q94tX8B38yeuuKveLV/Ad/Mue/iE38Qnp4/Q4euuKveLV/Ad/Mnrrir3i1fwHfzLnv4hN/EJ6eP0OHrrir3i1fwHfzJ664q94tX8B38y57+ITfxCenj9Dh664q94tX8B38yeuuKveLV/Ad/Mue/iE38Qnp4/Q4euuKveLV/Ad/Mnrrir3i1fwHfzLnv4hN/EJ6eP0OHrrir3i1fwHfzJ664q94tX8B38y57+ITfxCenj9Dh664q94tX8B38yeuuKveLV/Ad/Mue/iE38Qnp4/Q4euuKveLV/Ad/Mnrrir3i1fwHfzLnv4hN/EJ6eP0OHrrir3i1fwHfzJ664q94tX8B38y57+ITfxCenj9Dh664q94tX8B38yeuuKveLV/Ad/Mue/iE38Qnp4/Q4euuKveLV/Ad/Mnrrir3i1fwHfzLnv4hN/EJ6eP0OHrrir3i1fwHfzJ664q94tX8B38y57+ITfxCenj9Dh664q94tX8B38yeuuKveLV/Ad/Mue/iE38Qnp4/Q4euuKveLV/Ad/Mnrrir3i1fwHfzLnv4hN/EJ6eP0OHrrir3i1fwHfzJ664q94tX8B38y57+ITfxCenj9Dh664q94tX8B38yeuuKveLV/Ad/Mue/iE38Qnp4/Q4euuKveLV/Ad/Mnrrir3i1fwHfzLnv4hN/EJ6eP0OHrrir3i1fwHfzJ664q94tX8B38y57+ITfxCenj9Dh664q94tX8B38yeuuKveLV/Ad/Mue/iE38Qnp4/Q4euuKveLV/Ad/Mnrrir3i1fwHfzLnv4hN/EJ6eP0OHrrir3i1fwHfzJ664q94tX8B38y57+ITfxCenj9Dh664q94tX8B38yeuuKveLV/Ad/Mue/iE38Qnp4/Q4euuKveLV/Ad/Mnrrir3i1fwHfzLnv4hN/EJ6eP0OHrrir3i1fwHfzJ664q94tX8B38y57+ITfxCenj9Dh664q94tX8B38yeuuKveLV/Ad/Mue/iE38Qnp4/Q4euuKveLV/Ad/Mnrrir3i1fwHfzLnv4hN/EJ6eP0OHrrir3i1fwHfzJ664q94tX8B38y57+ITfxCenj9Dh664q94tX8B38yeuuKveLV/Ad/Mue/iE38Qnp4/Q4euuKveLV/Ad/Mnrrir3i1fwHfzLnv4hN/EJ6eP0OHrrir3i1fwHfzJ664q94tX8B38y57+ITfxCenj9Dh664q94tX8B38yeuuKveLV/Ad/Mue/iE38Qnp4/Q4euuKveLV/Ad/Mnrrir3i1fwHfzLnv4hN/EJ6eP0OHrrir3i1fwHfzJ664q94tX8B38y57+ITfxCenj9Dh664q94tX8B38yeuuKveLV/Ad/Mue/iE38Qnp4/Q4euuKveLV/Ad/Mnrrir3i1fwHfzLnv4hN/EJ6eP0OHrrir3i1fwHfzJ664q94tX8B38y57+ITfxCenj9Dh664q94tX8B38yeuuKveLV/Ad/Mue/iE38Qnp4/Q4euuKveLV/Ad/Mnrrir3i1fwHfzLnv4hN/EJ6eP0hw9dcVe8Wr+A7+ZPXXFXvFq/gO/mXPfxCb+IT08focPXXFXvFq/gO/mT11xV7xav4Dv5lz38Qm/iE9PH6G3YrpxDUXamirprc6mc46xFE4Oxg8jq8cK7ql2PPranzjmfuKui4cskvhIiIuYIiICIiAiIgIiICIiAiIgIiICIiAiIgIiIC89d7R+JXoS8+d7R+JWjg+UVhERaARERAiIhsREU6BERNAiImgRETRsRETQIiJoERE0CIiaBERNAiImgRETQIiJoERE0CIiaBERNAiImgRETQIiJoERE0bERE0CIiaBERNAiImgRETQIiKAREU6BERNAiImgRETQIiJoERE0CIiaBERQCIinRsRETQIiJoERE0CIiaBERNAiImgRETQIiJoERE0CIiaBERNAiIoSIiICIiDesf97U/xP3FXRUux/wB60/6x+4q6LLz/ANJERFxBERAREQEREBERAREQEREBERAREQEREBERAXnzvaPxK9BXnzvaPxK0cHyisIiLSCLrE0RdpEsZd4BwyuxTsERDtzTYIsNIcMtII8isqNoEREGCMjtbDxWTqy4tHZGywT2HauQ5KJq66WLiKgo2/k54nPP2KKlLnmiwNwspAREUoEREBF1dYgz+Xi/fC7A5pAIIweRzzQZREQEREBA0E9o4BRPpM1ezlRRhwdtp9luxKzjCiKmtli4gpqRv5OZrnfJSw5KIllERWQIiICIurrEGfy8X74QdqLh0jMA62YPLfmuaAiIgIiIBxgeIWc7lztgByQHA2G5UI24yu4hnoneyACoqUyMY2WVhZSAiIpQIiwSAMkgDxKDKLq6xB/28X74XMvYCAXtBPLJ5qRyREQERFALIGQcc1hYOxBHNRRnfSSdkxjZQ1LXSy8S3KhcezDGxw+1TJIPJREiIisgREQEXF72RjMj2sH6RwuLZonu0tljc7wDgSg7EWMjOMjPgsqYCIiUERFAHkPHKNyXBx5ZwuLhyI5hRdHWSy32to3HsxxNePtVKlKgYWVgcllXgIiIgRFgkAZJwPFBlFx1N06tQ0+OdlnI05yMeKbGUREBERAQDcE7NG6LDh2d/ZJwgyc8mYLTvlCMKE4krpaCSgbCezLLoKmInao2nxCDmiIgIiICIiAi4hzS4tDgXDmAdwmppdp1DV4Z3QckWMjJGdwsoCIiJEREG9Y/71p/1j9xV0VLsf97U/wAT9xV0WTn/AKSIiLiCIiAiIgIiICIiAiIgIiICIiAiIgIiICIiAvPne0fiV6CvPX7OOfErRwfKKLTuwmNtqhDKGVGgljnHGFucweeOWy16+lZWwSUzzkSt0hw5jyWkebU89DFJEyqhrKK5696oMJjd9vJSsF9u1Ner04sgnpKcxtaXvwBkKSfYrrV0pt1dPFJQ5GHA9rAK6LpwpJUyVZp5Wimncxz2A75by+xUyo64uMJ2VEsFZTQtkEDpmCJ+prgPErE/E10pzbhXUMLYa0jQ8P3AIXS7hWSnnq66XQWup3RdDB3E/VUVTQXG61tpgcwujonhxL+TGYxg/pKNiUt3EldKW0ltoohl7zqc/AGN1tUvFdXXR2+OloWGuq2udpz2W6Tjmtu18MCiqZHsmJ6Qu7JOwyomvtzrA62vo+nfPC17df0AHHdQhYOE7xVXYXBtdTsgmpZuiIYcg7c1PKo+j2kqqeG7VFYHBtTU9JGT4YVuOwBPI8l0xBVy5fnpav2D1Y1XbkP7aWr9g9MkrEiwN+Sd+O9IMoh2znuWActyOSlDKwRkEYznbCyduab/AETg+KCh3Gx0EXFltp205EEut0o1Hc9y2OPGVtDFanW2cw0oqo43ReIJU/VWwT3+juUjn5pwQWDvys8SWv1rBBDK4AsnbMCP0UEq7suyBnSO0VgABvZ5E5wsnPR5b2Wk4Oe9cS4E7DGEGUTw8+SxkE470GU7wnfjv8E7wopFeuH532z9R6sKr1w/O+2fqPVgSJZREOwBPI8vNSiiIdnFp5juWCQMZPPkgw8ZaR4qjXeyW9nFtrjbCGwTOcZWB5w4471fB2SMjPkoiotXWLxRV3YxA52pvduoord8phb5K3rNQQSMUNPGc42/91aeG+tvsVCa3tVHR/jQ7nqUJW2CrfeqiuhdFKCR0Ym5s+Cs9K2WOmj6wR02O1p5ZVdjs79jt4LKweyMuwMrPcD48laAixkbefJZO2c93NSMfSCrcX55y/qj7lZCDkKtxfnnL+qPuUVKyoiJARDtzTBUoFwmY2SJ7JG6mOGCPFcztzRu5GBlBRIrHbpONKymMRNOyFj44w89lx5lcOKhLQdLVyPqJXFzWwsjaXCIciThWeO16L9UXIFrelYI3ae7C0K+zXF1VUClq/6nVYD9R7QHkoEzZZHT2mme+RsrSzVrzu4reO7QQAtO1UEVsoIaKMB7IW4Y93NbRBDtwB96kZRO/CICIiikVy3fn1eP2MasSrluP9urx+xjVk/1SJETvx3odufcpRRY9rDD2cLPPksPOGlrwSR3hBpXigpblA5lczVoGWnOFU+Eae3UNsq6+pDxPTzvHSknAYOQV3kaXwOjOCCP8lFWiyQU1tqKOozNBNIXua7lg9x8lWircPXipruLpZpqmPo5No6dj8hoHf8AavQfo6lXKThW3014jrqWBkJZsMBWM9nsnZTA5jKJjbAWAQeSkZRDtzTG5HeEGCoC2/nVX/sWqfPNQFtH9qq/9k371X5SsCIisCIsAgkAcyiGVG8SuLeHrk5ri1wgeQ4d2yklrXKl69QVVIDgzRlnwylHmdBdqug4JqaK4TyOqZKYTQTu7weTcqc4ikr47LbKiCqe2Doo+kj+scBSN24TiunD1Na5HlstKwNa9vPb/RbldZjVWWmo3PJdEA3J78LlBMwbU0OrcuaD/kuedRJ7hsuMbeja1p7QaAMhZAOp5bu3mV1GUTmM9yICdyIgrPGvt2n/ABH+iscP5JnwVc419u0/4j/RWOH8kz4IOaIiAiIgwc4Onn3LLvZB5YGHoNt/BOYLjuO8eKijzehr6qh4/ndI/XS1TeiaCdhjdZ4aqqq4cY1NS2d/QVGWxjuaW7KaufCba5lUGzujlk3je07xnK3bRw4y3VcD6d7g2Nu2e843KrsaPBUlYbtfoqypdUGOcAF30duStyirVam0NfX1eTrq39IQOWylDtjPfyVoMonfhFKRERQN6x/3tT/E/cVdFS7H/e1P8T9xV0WXn/pIiIuIIiICIiAiIgIiICIiAiIgIiICIiAiIgIiIC8+dhjyx2BucZXoK8+cQ17fj/qtHB8oqt1nFLYaioiio5Zm0xxM9p2b5lK7iiCFsToKZ9S18YlxGcEA96rtKLg+6cUU9BQdOKmYsdIX40ZHPC667hm5N6FnUzVQspxHlsmgteu1gs1XxRBB1RkMbpqio5RMO/w+IXGTiuEOaXUcrKVzwwThwAye4hRNj4duFO+3yVNMGmFzyRqyW5G26i7lw1d6qRrn28msE7ZDUCXDS0HPscuSr5+Baa7i6GnqKmJlM6WOmfoke3bT5rFu4loXyT64eovazpnGTk9h5O+1acFirOrXxklONVbP0kRz3Ywuiv4ZrqwzRuLWtfQtps47x3J+wlW8VMc8sZRvic9pNO5zgRJgZK0bRxZ6wstK6rpC6rl1FsOw6QA8x8Fp2ThmVtbTuntr6Y0zHNDzPqDsjGcdyjhwtcegtb6u3unfRiRjYmS6NQcc5yE/YWmTi2igtwnip5HTCUU/QA+y49y7HcVMEv8AscgiDB0pLh2CoSLhedlHTCKl6FwrW1D4y/OGjnv3rHE1gr57jNJRW4yTPAMdQJcNbv3t70/YX6M6o2uHJzQ4fAqv1/552v8AYPU5SMdHSQtk9trGh3xxuoOv/PK1+UD1NvgSFVd6Glr4qKoqGx1sozG094Wx16A1fU2ysNSwa3/BUrim2etuM2RtOieOiLoX/VdnYqBF+qW190n0kV1LTNhLce0QcF32pjkPXA4AtOoF4zg5yD8QgJGl5Zh2MaScAhUahJoL1ZOpVBk661zqhurVvjP2Lf4iJquKbdb6iQx0M0TpHAP09oHbdX2hP0NfDVipNNOwiJ5ieXb6XeC2iWtwXOboAy0jvK8doq2spG3KkoSJYX3QxPOrALccs/6rflud9tonpY4QyGTssPSB4H29ybHqYONTg5pHecrAOC4NbqJPPOcBeU19Tdbfb6wNjFPTOdEMibXpydzlStwqZ7JWsbaqrp+lo3yyDOrU8DY+SbS9C7DnvY12cNzjOd1yJL3AP0tBGF5XbKm8BlHUw04YycB1SemDi7PM47laeBYZKikqayqqHyySyujIPc0cgmxM111oqMSdYqWMdE5rXjPInkpBpbJlzHsI5nC8jv1Exrr+yOQtk6xBsXas7qcq6iSzXR9K2pcIp6YvORnt42TY9Ba5rgXMIyDuc93guIfGdWmVr5O4BeWWy5V1NW1Mb8NjfSa2P6TPbz7WFIUD6umuNgmfUmaSple14xgYA2UWiy1+XcXWvAxpjfkKfacjPJV+4D+11skB30PyFYSMbJAUbb7xQXN0/U5emdGS2UA/k8d6kTyPwK8otNM+222qvNMxzmOnmbUtafbGThMroen0VdT1kAlp5WyQE7SeYXOoq4YGsMssYfI8NY48l5jw5VGso7LSdP0dBVNkfI/luDsuq79JVRxwvnPQU10jhjIPtD4pMh6nUTw07HPllawDm48vsXVBcKOpqZqVkzXvhaHFrTgjPLKgPSFTMdw09mo4YNnA/wCqqlLb9V3u8sczmiKlgcMHvx/mp7h6pnTpJc0u+t3FNcZ7b5GnB2aOa85p6utr61sk1Q57YoXPa1oxkgbLthmmZBbboyq/5QqZm9JFnIDe9uO5Rseghw5uIDicgHfIQkNewO/KP9kZ2XnVLfaqThu4yuqGxzitkjYw+0MLpMs1dZ6isnrTTVcWnowXbjffbzUXIegxXCkdUTU7Z2OniOHjwK2+6MHdpPPz815baYZK6qu1a6YsfFEXgD6Tg3Yq+8Jzy1XDFDPUHMssQe8nvUzISvefiqzF+ecv6o+5WUHIHgOSrUQzxnN5NH3JkLKOSysBZU4Ack6ceai7rfKC2DNdPoA8ipQdl5Iy04+Kh+Lmh1kkMrY3Pb4tCDhT8TWyWJs0NU3onyCMFw7ypskFjgHtdHnBc3bC884np43cF2djWtBdVxlzmjB5rrvFRVWye4UlJO5pMHSAnfSg9G1kDIfGwHYauRWQ4ABoGQOW/JefRQvkqKW31lU5tK2Fs7zqx0rnDkCuq23asjulqp5ajXTEvBkOwIzsCVXuHorTgkPIwBufPxWvUVkNNF0tRI3SDjVnmvP6m7VNTW3OmbPpp217ImyA5AYRuFp8Qa4bjW26Gr6xTim1NcD7JyncPUopWTwmaBweCP8AJchjGQfs8FS+GxJQXxtK2d0kLqeN2PMjdXZ+NZwMBXiGEREy9iK1bfz6vH7CNWVoOsZ5H/JVq2jHHV4/YRqy4GnwcRzyqxKMut8oLWHtrpdAA1a8cl0UvEtuqKUSx1UbonDng8lni+JknCtw1NY57adx1FoyqzdKdsnAtmbG1oJjbu1uCNufmpt0L617JI+ma8aAAXYPIdyyCCCWSNDe4u715lX1NVaW3SCimc1jIoS3Jzgu5qSkgmddLdb6qrLYJoTJK8nSCRy37lGxfdWSN2kfWHLPgsFwOvOGlgy49y84obnVR17qbp/xEVWImSHkWLEl1qqqvipW1IbTS1ToZHZ2DR5qdi/19dT0UDqqplYIhgahyGeS7mSNDAYnB5ONQO53XlHEOsQcQ0EVUJKaJ0BYQc5y7dWuzdNQcTwUccpdHUQGRwd3YCbFlqK6ko3ywzyhk2Ok0k74XZSVUddTCaKRhi5Et2K8/wCMaVknE73ukLWNoy7BOMnK6aRktsNjlimcZqmVwfvs5uMgYVUPSmyNe5rDI055eKyDnOfbyvKaWuv1ZD19sTOmNQWOPSAZaHY9n4L1Qats/lDjb7FYchzPioK3fnXX/sW/ep4gBx8e9QNuH9qq/wDYt+9R8pTyJ4eaePkrDi8hodJJIGxtbvlQTeLrS/tdZa0McWk4KmaztUszR3tK81tjLnJwzXOpqSJzBO8anAZ5qNj0yKWKeMPY8dEdwcrtJyS44Yw8jleVuq6yoZRUNGzNKWuL2uk05cPNbNpqLhX3mltV5d0FCIi4HpNnEHY6lGx6HVVcVO+Dp3iMyO6OIj6bvBdxcxzi0uBxuQCvLKS4VMUUY6fpmw3Z0TM79gDYBbk9VMLJLexV5uMc5a2LOCW5x7KjuHo2vfYtYw8iTyWHOYdALw45xhpxv5rzWZ9ZObhWSVb+khlh6IjYR55jHfldN0ulVNJV1cJE8tM7Dn69HR7csd6dw9K9YQvuLqASMdVxs6R0LRuGrZcAHbZ+1UjhqZ9VxkyomeDJLbWFxA81dwAG8sb+KvECLA3WTspFZ419u0/4j/RWOH8kz4Kuca+3af8AEf6Kxw/kmfBVHNET6OruzhWBYABblh3WRv8AZ4rIGqQDZuFAjbndqW2NjbVP0uk3C66W/wBurI5HQVAdJDu4AY7KhuLBE6+WyOoa0sIyS44HNR/FRY29SyWno21ENKXOezBaWZ5Y5ZVcrpK8wzx1LA9jmNhIyO4krHWYulEJkAnHIZ7l5lWVVbKGSuYJKfomnSJdHRnvd5/BZkngk4ghuBqngmItbIcjcDlhR3D1LLCMNOs+APessyX4aGmRoyWk8vJeU26411Nd2MLgIZ6SSVzhJq1Ecj5Lai6wyntFW6qkMlXUCKTc7xkcvio3sei0tTDVRukhka/Di12O4juXcqZ6OKeOGnuDgXa+syDBdnbOyueNsqQRYG6ypg3rH/e1P8T9xV0VLsf97U/xP3FXRZuf+kiIi4giIgIiICIiAiIgIiICIiAiIgIiICIiAiIgLz157Tmkd+y9CXnrtyfrArR0/wAorohpY6aV8kTcPfvJjvK7nPHSadQDw3Vo8lyB3GOZOSqNHeXQtu91Li58cjqZmr2RhaKLvqAOXOdpPIY5lc9WhrS/JPj4Kh2/ie6VMrYW9TqHvbqiMWTo2ydS423iq43+jrfV7I4uqRSCZ0o5uwcYUd2hfNxgFwdnZrkOYyNZa7TvsV5nZeKLhHarZSvnpW1c8BmLpicc1It4quczKFlPDTiWSoMLnvHZOBzHkneL24hjS12CTuD4ZXIjD2x6sFoXmtffrzU0NM2N1OyoZO5srm5w4Z2wrbf7tNa7QyfQHVLnMjDjyy5O7/oTT5GMjcZSNA3LnbLEUzXxa4HMc08jlUS+3a8R0dwtlf1XrXU3VDHx506R/qrHwa2SPhi3vnax7nRNeSPMKd/9CaOdJzjPkq9cPzztv7B6sJADTjHjsq/cPzztv7B6iwS8lHTurW1r4tVU1nRtd+j4LofZrc+sfUvp2uqZW6Hvxtp8FItOHNdkjG+FgbB2Cck5x3KMYImhsNut9WaijphHP4jJ0rvuNporiAyqhbIG8nOOD8Fymu1BFVGlmq445dstz2l3depyZB0kT9Bw8A7tPmp1EIuPhmzR0L6VtH0cTpOkIGd3fFbEdit7aN1IymY2F3tb81oU3FFC6uqKerqGwtjcSBIfa+Ckqi9W6HT1mrhjOA/GfonkmoIe98J0k9hqKShhjiMkjC7LuYBUlScO26h1llLGHSM0a85y3G67Yb3a6iQRRVdPLI8EtaDk4HMrZ67SNpo5TPG+Bx0McTsSe4JqJaFHw5bKaRroaYNPcSThSVLTRUsbhBExsecnB5lahvFvbN0BrI+n1aWw53z4LkbzbmVApHVUPTO/6IntZTUHTLw/bJqmV76ZmuYhzjnvHJd1ZaKKtlaauBjyBoG/ILi6625lR0DqyIVHezO4WJLzbIagU76yAVBcGhmd01BqxcKWWKcyCiAf7GSTyW8bbRNfTPEQb1ZxcwDuyt3IJ3c7PnyWTuMEDdLoV2u7HF1AO4sdjKsJBB3Verjniy2h/PQ/GFYefNTAWlDRUdHSmmhijjp5XEyMceZPM/at1VTj6SoZQU/VjiUvw0nv370olDw5aRRtpjSDq0Z7EY5tzzwuR4fthpG07qUdAHhzR358VXKriivshbDdWxPqJQ1kLouWT9Zd1Tfb3bXSR3AU75BTmZnR55juKiaFoqqGmrba6hnYJaT2ceC6IrNb4A7o6cBsjQx/mByVSdxxNTSQOlgjbTSQte5zRuJDzWaji2vNbJRwPo4nRMErjNnDwdwB5p4Fup6CgpqhwpYY2yOGG5Pd3rWZw5bIqnrMUAbI12sju1eIVdtlzkufEtjneHRiWCTMfcSDzW9xJxHVWqvlo+jYZHQGSnyNnO7gngSU/DNonn6V1G0zPOoHJwHeKrl+4Zqq2uqGsoqUQnRiYyYdt4hd9NxbUVMMrYxFHNT07ZJi72Q88wtRvE9XU66SodTSSStyx1PzO3eo8C12y1WyGmdDC1nSzMxIWnJdtupGnpYqWljp4GYYGYbjwVF4QnldeKSOR5AMb8+av4yD2XHnhqtJAGNOAMYACrcP551H6o+5WTvPiVWoj/bOfzaPuUZCyosLKnAYdKyEMD35LzjT3lcKmmhqInx1ALozzGOaqvHEtXBeuHhQ6W1Dp3YD/ZO3etabii42819FUsikroXsDS32TqUbgtdRbqOWlpoJacGGncHNHiRyK41dpo56iSeaBr5ZW6XfqeCrU3EF6ttYKWtip5Kh7DM3QNhGOZK1KfjaaV1a5rGiBkJfE483SeATcFtr7HQXCONk0OhsI/F45hdMlktRpm0fV4+jH0M7gqrS8ZVs+HUr6SPo2Nc5sudRJ5re4br5LhxNWPOrQQ3Gr4bqPA27twzBHZ309nooi/pRJKxziA/Hfla3D3CzYqqasraaCJkjOj6CN+oYXXfOKquzy1THxNL45QIWY3ezzQcVTSNM9O2mjZ0Ak1n2WSeBTwLS2ioqeobM2NkcgAbrccADuWwyVkhLWuaS3mAc4XmtfxLWXG13ejmfDJ0bI39NB3ZcrBwhK9/EF8a8nDRFgH9VWliFtREU5exFct359Xj9jGrDgBrsNaHk7Oyq7bT/AG6vH7GNTta58dJNJEzUWsc7fxA2Vdpc6qCOqikhmY18Tm6XDy8F1Pt1LLBFA+JogiaBEzwKpL+N5oJKDpo2CORuZywey/PJbVVxJcTsHUdOXOLo3S5Aczux5pbBYqi1W2Vz2zQxiomADwTzDeSzcLXbLlBEKyJk8bG7Fp2H2hUqO9z3maxVkhDdTqiN+nk7SCp3hGZ54CbK/JeyOUgjkcE81G4JL1DaamjjpzAHRsOto7m/atG6cNww2t1NbLfTvDnl+l7yA4nxKh6DiG7T9RoLWymD5KPrBdKDjnyW1buLKh08frGONkD3GAubyDxz+xTuDnw7wjFTy1stzpI2CpDdUEbi5rdPI5VmkpKPrEU72s6wBhuTu0eCq0PEV2q30sFNHCyqne9rTINtI5ZUZX3irnuMkEmgV9ICH9H7DndwTcF3udoobhPHPWwskcxuAcrk210DzTfi4nCncXw4PJ3eq1/SepnpaGKGKPr2wqo8cm95+K0aG+3Od3U7fDTajM/tSDkFHhC1N4dtgqjU9UY15OS3UcNPipd2sMDXAOx2Rg9yo9JxRcbhDboWspmXCse9hLx2OwVL8J3WvuFfeKSvjhZJRyBjTFyOytsWDsjDW57OxyoG3H+1Vf8Asm/ep4EFvfnvyq9bfzqr/wBk1R8pWH6YWQQC4nkhG7fErprCRSzY2ICsObXNnZI1hYTp9rP+S6KeipIqV0EcIEJyXN8SeapViv0tDVvjrQzqEk5DJDz6TwPkuxnE17qamNkFPTRySSvYNYOC0ciq7gslRYLVUU8NP1PEcRJYRnbPPCi7/YC+KGO20cFVFHvoneWAfaoqDim+MtrLhVCl6m2To5GszqBzgYWzDfr5M6vqWw0ooqSQAhw3c3Gfmo8Dd4U4apKClIrGxukFQamMA5Ebz3BSP9HLZ1zrr6KN8+ou1knJz5KkWm+XQUl0u1I2GShicZTHL7Q8gr1W3Gan4fFxAaZHRNkAd7Iyngd77RRaZIzE0xzEOefEjktKfhazTSS66Yh0ntkZw9QlLxFc4aqmZcGQGmqYZJmdGNxpCf0mudPS0F0qW077XVuDGNZ7bc+KeBaae3UVE9k0UTIndGINZOOwOQW7luQc6j9Zu4IXnd/ul6rrVUVEXQihbKWnHtBo7/iuNLxpUPo4qiklo20kYEZifnpSeRKtLEPSCdXdlYwAOy3SuulkNRSRyuBa5wByOS7MknBOSDzVpRWeNfbtP+I/0Vjh/JM+CrvGvt2n/Ef6Kww/kmfBVHYstGdhsOZKwsE/iX5zzwFYCQ4Oa55ydhhZABIYPo95Vd4uutbb6200tubB0tS/SDJyG3eq8/iq+Q2+atq46I0kEgZJ0YOo5ONlXcF0u1ooLoG+sIA8j2CPBcaSxW6limjp6SIMkbh2XbnyVVm4trDUymkkpBBE5oLH+0QRvha1JebsbzXVUzomUgpy+Fsnd5lRbKLZVcN2idwM9I09kNOCcYCzLw7bpZGa6WImIYac8gq5aeLa2arlpnsp6pgiD4zAMnUV1RcR3KrhlgdJRR1D2v0xtzqbjxUeErDBwvY4ZNcFGGOwRkEnKkTaaJ0VNG6BvRwv6Ro8HKj0F/ulLYLa109EZXwukLpCc7HuW2/i2uls1PUQRRh75OjkkcOwPNRuC20NtpaGeWSkYGGUkub/AKrcwOkzkavDKo0/GE7LdR/jqHrk8ro9e+hoHIlcJeLLgymlDYad8sRANQ0fi903BfTzOeaKE4WuctzpZXTy08skbtJMHJTatPYb1j/van+J+4q6Kl2P+9qf4n7iros3P/SRERcQREQEREBERAREQEREBERAREQEREBERAREQF5872j8SvQV5872j8StHB8orGM7Kp+o9VVXW+pjJpJ8zNc3Yaj3K2bd/JcRtnTyx3rRRV6DhiWOF5kqYI5XDRGYmacNHj9i50PClPQh8VDI5sL2ObKwnd7j35U+6vgbVNp3yt6d+wYtjVnHbYdPgeSrIKa3gySNlK+KSEVFPH0IMjMjSTn5qRpuG44JaN+e1DJrJ+jn4Kee9u4MkeotyO2MgI97Sxvaa4aRu05H2nuU6Fdq+GNLXiCVjJdesEjI3PgpK8Wht0tcdHK7WWkPa5pxhw5ZUi2RpaHRSMc7lnOQtSStpm3COja8Oc4FzCDzxzUIQzOHZZ21UlzqY56iWE07S0Y0tPcp22U/UaGCn+hDGI/ktggHLju4jn5+Kydw0eA381aBjDSq/cPzztv7B6sB9kqv3D887b+welTFgWDyKyiQry6866W71Bp9LXvkZ+IlZrkfvzDu5d1XUmmqr3TS6xLUzMfG1oOSAO4r0gRQh4cYmHHeW5PzQxRlzXGOMvH0i0EqNDy22tpKaOtjucP9ZfGeha9uXO8ACt+x2uSa9VJr4NbDSN0NcM6V6EYYicuijLhyJaNlyEcedWgajsT4poeZUVtkgoLdMymLKn8e0Nx2t+W66pZZTwrabWwPNfDUsdKMex2sr1MNY12prG5+C4CGLpDIYmGQ7l2kJoUKgfSQzzxVNKZLm+rJjIG429rPgo7RGLBXW+aIt4hlnc6JxHbxnuPwXp3RMzqLGas51aRlHRROk1mJmr62kZ+aaHlle2emrc03RmYmMSUb2apXcskO7l1XuSokrqoaYYA2oa9sTo8ygAfWXq/QRCQvbEwPOxcW5PzWW08Df+hYcjfLQSftTQ6LYektlO5j9ZkaMtPMLcONgBjGy4gDSWuA04w3G2FnwHglgr1w/O+2fqPVhVerhni62H9B6sKmIFE8R2h13pmwiTQ6M6s+CllgAd+5SzYq7eFWziV91k6V78GMj6BHJd1Dw/KK3p7nUtneIzEzA20efmrE1oaTp2HcDvhZBIGPo+Cdop/9BKM240j3SOb1l04cXbgHu+C2K7hcvruuUDoWySMEUvSs1DSBgY8CrPjfIznksn/JO0QVJw7BTV1BMx+GUUbo2+J1c1yvVhp7rX0dZK4h9I4Fv6WO5TWB3LIOwzuRunaKqzg2lNNc49TtVeTqIPsDOVqwcHu69TTVNREJI2lj2xN09nGAVdDuSe/uTLhGGtIBzknHNV7fIgbRYI6Cpgma/W1jXAH4qeGCRjuOUdh3dhYeMuBbsryDOcn7VWYvzzl/VH3Kzf6KsxfnnN5NH3KuSVlHJZWByWVOAhOIrI66OonRymKekkMsT3b7nx8lof0UbNFWvqqjpK2pLXPkbtgt5YVryQ4lveMLjgbZ5qO0V6l4edJJNVXKfrdU6F0LXR9kBhG604+BqSOloYWl7mwzCfY8x9Uq3Z7ZcU5O22b4eadoqlbwp0ldJPRugijlAaWvZk7KUoLFBQXF9RG8s1gam88kDuUu3sMLWHGd0GG5DBhp5g7qe1CCvXD1NdbtT105IETOj0+Oe9aMfB9NT26qpYZd5ZjK17tw0nuI8FaySW4KNOCPDvHiouIpI4LOmofPMwvqWtY4xN0tIadtlYbTZ2224VtQ15cakMyD3YGFLBxBO/ZPMLiwaY2t5470kGURFa+xFatv593j9hGrJtgxn2JPaVbtn593j9hGrLl2MZ2VZ5SqM/BNFOK1jnnFRJ0jd/ZXbV8LB7oDTTMGiIQvdMNQ0jwHcVaQdtx3YUderq22UfStGp57IadgT5nuTUnuIO2cIMohRs6YOFK6R0bR3l/NS9utEdBw862secaXMP8AxLRZxZFFQzz1MTYXsAyA7UDnluulvGMUcdQK2JsUzMFrWO1h48chN4jatvDcFBW00kUhJhpugPzWrWcI09TaH075S09OZWEeJWWcUTzNijpKEPrJW9K2MuxlnjlZn4ugFHFIyIPmfIYuicdIa8cxlN4jauPD/SCilt1Q2Cqp24DnDI5LXo+FI2zsqpiZqhzg6VzDjJXKbiZzKOlljp2mpqC4dGXYaMea37Dd47vTyOjGh8Z0yBpyAfDPem8RqUXDMFLdK6vDiJZwW4J5ZXC38Mw0NV0rJSXElx+1cKjifoqifoKUvpaV2iaXPsH4LspeJY628mgpIDIOibK+XlpaeSi6vsIe7Wk2nqUlK0unje9zZTu2PJ7wtrgCirYJ71U14JfVTNkbINgQB3BW97NcWHtG/ed0wBs0Yb4K0gcwq/bPzqr/ANk1WAnkO4clX7b+dVf+yaqixDYg+C4ysE0Mg+ss52I8UAOwBV4KFxRYQ62RUETXF0tR0mofRJ71YI7FGH0Mpk7dLHjA+kcYUXUcZ6Kmd0VF0kVPMYHvPiF3xcYQMirDXQ9XmpWiUtznsu5Ku8R2zcMQusPUtR09J0h8jnIyoe08PV8klfFUTllJLOHkfWAC35uLJ3U1VF0ETazRriibICHDGc5WtRcWzR2mjfLStfK6IyyBz9IGDzz3pvEScHC1Oy1VlBG8sjqchSktubPZ/V2rMcbAzJ8lE1PFbHw0jqONsskwDsPdoaPtWlcuJ6tlzs7aeDFPUPe1+DzIG6bxEpLw9G99FO8ktp43wt+DtitOHhRxdDR1VWyW3Uzw+KBgw7I5bpT8WNfWQmeBsNDISI368uJH6PNd0fExluT4WwMMDJRGZNYDs/BNwatXwjLNrp21RioHSmYQ57RcfPw8liLg0034qjfSsoyQdD49Tye/ddkvGEEcs7o42SUEUpjllL8OYRzGnvXOTixjJntpomyUjQ0ukLsO38G8yokFnbGIY+j3aRjGeS5gHbIwVhmSIy32SAclZONRIHeryCs8a+3af8R/orFD+SZ8FXeNfbtP+I/0Vhh/JM+ChDsWQNfPkFhDyAGyvBG3K1Mr6yiqnHemeSPko+bhmCa21FIXZjneHvd3NIOQrF3nHI9yA9oE74VbjsVJ3CBirJDC+FrZnB0kbm5cceB7lyreFGy1U5pajRTPgMbmyb4d/wCytY7OdGwPjuhzpDRs0b/FVmAplLwhJFURTuqWRy6BG4xN0gtHLHmu+l4Rd6zZPUSxvDWPbEWNwTkb5PerZ9Ilu2RgrB3znv5eSntFJZwfK2GiZ08TjTxuiw5ucsJ3+1d8PCE0FvNNSVsQ0ydLGHtyNPgQrhk4xn4oNgNO2N1W4CnngyEUEPRSw9ZhkdLqczLS48xjwXcOFXdWMkMzG1rz2iR+K/dVpx4bDmVyJyT4dw8FHYlC8OWUWdlTl7HyzvD5CwYbnyCmUJyAivJob1j/AL2p/ifuKuipdj/van+J+4q6LLz/ANJERFxBERAREQEREBERAREQEREBERAREQEREBERAXnzvaPxK9BXnzvaPxK0cHyiuJ8lydyy328clhM/PxWiwUa/wQjjmOd0r2SiI6AOWdKioLv0litzOttZUuMhcQ7tHDu9eiT0FNPURzywtdKzk4jda0VhtUcvSNoINW+Mt9n4KuqPPKqKV1vpqs1Egnmr2Ql2d9J7vgu+snqrbe3WqmqZG0Ers1Dvqg8yV6K630jmRsNPGWsOoDH0vH4rE9upJxJ0lPGXSDD3Y3cPApqjzi+VJoKe4w2arfLSgR4DTkMJO5HxU3d6T1XbbbPA8yVOtjSe8Bx3Vmgstvia6KOliayTGrDeeOS4VtsM92pp3BvRQNIEY9k+ZU6qEpp0gfBEPM75RWA+yVX7h+edt/YPU+7ljxUHXMzxXQP72xOCipidRDsiQoiIpQIiICIiAiIgIiICd4RYOwyoogK387bb+o9WBQFcP7WW/wAmOU+kBERSCIiAiIgIiICIikEREDuKrMP551H6o+5WYciq1CP7Z1H6o+5UySsg5LKwFlTgCIikEREBERECIiAiIpBEWCq5ewrdt/Pu8fsI1ZVWrb+fV4/YxqypikUTxRQT3K2mOGKCV/LonuwHjwKlkyGva8syOWBzU5SUect4NuEtJVCVkLGkN0Uer8W3HPB5rch4UqJaaQMpaelkaRpEbsjHfnKszb9bXTCmNbE2YOPZcd3HwXTdeIrfQNma6shZNE3LmE8z3ArnrERtXabhS3GjuFpghmfFTdWMUx0tO/tDzUfJwxW9Rja6CnqZ3zulkimdpazP1T3qatXETamljqKyohha5mvQeY8wpKlvNtrIXviqo3thGt+TuB4prEUtnDF5NFRskZBOInPMtM5+Bg8sKe4ItFXaYq5tUI4o5HgsjidqaG9+6lKO+2yrdIYKqMlnPB3C40d9tdSHxQV0GY8ueM7EDmU1iK/U2O7ResqKjZEaO4vLjMT2mg9ykuH7FJbru6WQt0NpmQ6h34W7BxFa53PZBWxuwNTQ07Ob5Ljw3fKa+Us8tM7PQyuY7PfhTNT2EudyXEaSfo+CITk78/FFcYKgLb+dVf8Asm/erBjKr1s34ruH7Jqr8iwrLThwKx7OXOwW9wHNdFbUdUpjM6GSRo7mc1YVWPhusbR17AImyT1rp2ZPNpWveeEqmvrq+cdERJTxxxs1c3t558lP8LXwX6Gqm6B7GwymHDuYwuL+IqOPiD1W8hlSwatR5EFU7YISh4YlbrkmttJBMYyxhheXb4xuo08K3p9PTwVdPSzwshdEWOfgMcTsVdqS+2+qqjT09XF0jz2QD7eOeFxv1ynozHBSQmaeUgYx2QfEp24ip/0ZuXqmCCShpKlsDtmSSEBvmCu+Hhu7Rw2ZwMMj6WWWQ5d7IcNgPgrBw3dzdWVAe38bTSmGRo5EjwXbLf7TTTuilrImSg4c3PseCaxFIHCd3cKWeekpHVcchLqgSHOMrdreFblNd45o6WmiMkweamN5Ly3vyFbq6922jc2OqrIYnvGWsJ9oeKVd8ttIyPpayOPpWamDPtDxCakFPi4PmhrKqN1BS1EMspe6dzzrP2JdeFbhJP8A1Wlo2EadFX0nbaB3Y5Kds3E9JU0U1TV1EUAExijOcasd481J+vbW2nbVmphkgcSMg7EqZYN+FvRRtjky86Rl3e445rme7cfYtWhraesi1UszZmn2S07gea2cAYA7leUVnjX27T/iP9FY4fyTPgq5xr7dp/xH+iscP5JnwVUOaIikERYPMY+1NjKLGQRnIbjY5WcjAJIAzg5TYIsNOtzgAcjf4oCDsXta4c8oMosAjSD9YZBWTsW6mnGMkqLdAiwCCMtc0jyWU2kREQb1j/van+J+4q6Kl2P+9qf4n7irosvP/SRERcQREQEREBERAREQEREBERAREQEREBERAREQF5872j8SvQV5872j8StHT/KKwiItKBERAREQCQB5nkg5YJ3RYx2s96DP2IhOeaIGMqJqmZ4ipD/u3KWPLZRtSf8Al+k/ZuRKSKLCygIiIgREQEREBERAREQFh3sFZWHeyVFEFXfnZQfqOU8oCuP9rKD9Ryn1EBERWBERAREQEREBERAREQB9JVqL886j9UfcrKPpKtRfnnUfqj7lXIWVERTgCIisCIigEREBERAREQFg96yscyoords/Pq8fsY1ZVWrZ+fd4/YxqyDcKIMri7JwG5LRknz8lyQOzjUNDCdJI3PyViPH7jDVzQSF8AbOyoPYDO3GNWxJ78qXqohSx3CnrKDp6qoDTA4tzqGOf2L0KR1Iwlsj4mu72uwCtanuNBUVVTTiaLp6XAcDg81zqXmMArKdlM2kjaagN0yl7dQa3v2XOGiq5am9PpW62yUrWgMbpEjs7geC9Gt1uoYqqWog6N08uSQHZ2W+80rGF0r4ogzmBjfyUyDz67NFys5prPRGKojYzW9oxuOefFdNNQyTyu6OJjnto5GFzGaQCRyPiVfJLnbaeeJjpowanIbgDuW5EIm6hD0WHbF2wyp0KHTWiWG1cO9HSND2aRNgbkd6l+AKZsFJXRdXMGqrkcfhlWVskAlDOkiBjPaAcDpXGCSB8krad8TpHH6LhuoQ7yWk5afJFlwLTg4B8FhWAd6r1r/Oy4fsmqwePwVetX52XD9k1VqViA5+aw3TqA1755EbIsndXgrPBNLPTNvhfC5jnVj3jfYt8QoniOhdUcTSGFgbJNE0RyaeRHNXsADOBjPgjmtcQS1pI5HCrpDz6libXOo6Gio+irKd2Z3AYLN/HzVm4gqn07G9JTPNFINL3tPajHjlTPRs1agxod4gYJWXta8nUAc8weSaFR4DpHUk9a+GN7aEuL4pHnJefFRldZppae8vNGJJ5S0tdjf2l6E1oaW6QBjkANkwPAJpLz1kfUay5C6Uwl6zG0U73t1YOnGB4brot1LJa5qSS603SMdSuYA8aujcTs1ekPjY9jWvY1wacjI5I9rX+01rviMpYPIKO2VsWamSEQUhnJ/GN1Bo8cKQltw9XxTy0zw0vJbK38nH5lvflenljCzSWtLfDCx0bDHoLG6PDGyiQVjgl1UYKptW1jY9Q6GSNmkPCtW+wJBx3DuWIwIwAwAAcsBAMfNXkFa419u0/4j/RWOH8kz4Kuca+3af8R/orHD+SZ8FCHNERWgLGMlzhzb3LK5N3e5/zUUV3i6eRzKSKlfoe+djneYB3XZxbUyU9JB0JIzIB8VpXgibja10xGWOhfIB8FK8R26W4QU8cbgzTIJCee3gq7GhT8Txy2CouBjJFL2HAHBO+F0VHF2i4T0sFvfVNgYx73tIGkOGd1D1PDt2itVZaaeJr4Kh+sy6vZycqXpuH6mGoujpCC2pijYwjuLRhNjsqOLWvOaKhfVDQXODHY0Y7lJW24NvVpMzIpIHkadJOVS3RVPD4fDSNbNPNC/pGPOkE+Of9FZ+AGTR2NnTMLZHdog+KrR38JVTqu3Svcc6JnR5+BU2qpwAdFJXwk9oVUjyPiVa1aJERFI3rH/e1P8T9xV0VLsf97U/xP3FXRZef+kiIi4giIgIiICIiAiIgIiICIiAiIgIiICIiAiIgLz53tH4legrz53tH4laOn+UVhERaUCIiAiIgIiICIiAN1E1Tv7RUn7NyljsAois/OOk/ZuUbSlllCikEWANQ08iFluSdQ5clWXaBEGByyVgtJ5ZVvAyidkjAZICO9O7AIx4HmpvggiIoR8iIilOhcX+yVyT6JVcvYQFd+dlB+o5T6gKv866H9RynhyUQZREU2ooiLHa7hlSbZRAM82uyseWCET4ZWNKZ3wFlTpG2MYWURREiIiAO9VqH886j9UfcrIVWoPzxqj5D7lXIWZERWwgIhxqGnJ8ULSHZPyT3BEy4+Dfinx+Y5KdRAixlp+lqH6KZJPZ9nz5qJ5TPLKIinRdCIiIEHNEHeq5eyVatf593n9jGrI3kq1a/z7vP7GNWUclEpplHHSNTQDI7s57gEWBsC3IwVfXjZt5rxZI+C/1NS6WCUDQHNlfh7P1QtNkcBrb9LGOhqJZI+izsSMb4XpM9qt9VMZKmihlm+u5uSuRt1E+QSS0kReOTtO4XOTuMr2qZbTFauI6DpZDBTPocvc84Bkz96ibfWdblYbhK5tD16QB5Ozx4O8l6XU0FFWNaJ4IZGs9kPbnHwXF1rt5p+gFLA6HOrQW7ZU9tNvPLnT243KzuhkMlI10mh7jsCudZcxFbnUpma2qbWRgAO3Lcq/i3W/omR9UhDIzlrdOwWH2e2yS9K+gjdLnOst7x3qe2o7lBpoJvV/EtZGXGpZM5kee4Y5rlwy2sdcbbK00bQQOl6GTU5230gvRBTQNjkY2BgZIcvAGzviumlt1DSv1U1LDC897G4KrjN3Sb7bbeQXEjOfNZWM5J3WVa+LonmbY8fgq9afzsuH7Jv3qw96r1p/Oy4fsm/eos0mLEiIpxu0CJkN2G5KZdywMpLsEQ5Lhu0SefLCyS3TkHU3lse9TbJ8kl+mEWM5GMEtHtY5hcidhqxj6On/VRbot1dMIiKfcvgRETRsREUis8a+3af8R/orHD+SZ8FXONfbtP+I/0Vjh/JM+CjRpzREUgskHdreWFhYJOrI5KLBUqt4k9I9pI3EdLI0q3sDn7NawNac4JVQje13pCAwMtidjyUnxbNJT2vVTOe12rJc07qmxN5DM4yAeYCw0E6mhxBG7QVSLXxDFTV1HFI6d4qOy9zjkM25rereMYIX1JEZc1pDYiObvFT3Q0n6630le5rqumjkc3btdy2mN6OMRswYYxgeIVMHG7GU0z3073TRyBoAGzs94VntVVLU0YqXs0GQey4Kt8pV/hgtj4lusDPZDQ/fnuVbVULI7T6QrxFpximY7P2q3qZQREVhvWP+9qf4n7iroqXY/72p/ifuKuiy8/9JERFxBERAREQEREBERAREQEREBERAREQEREBERAXnzvaPxK9BXnzvaPxK0dP8orCIi0oEREBERAREQEREA8gois/OOk/ZuUsc5BbjKrPEFwht3EdvlqBI/MbhhrcpbqbSs55ooiS8PipJKt1KRA1uQXbO+wLct1dDcKeOalcRkZkLhhwHhhUmextDOrUdgdlD3i/Utrd0O8kh5NHj4KUneYqeeQnsNaXBx8lR7GOu9PcpcOfVO1MB30gbLh1HUzCeGvpem9SpdnEtUB/c8v8QLpl4lryezZ5cftAu5Nu84C8u9dla9T/wAdHKi4nD5WxXSmfRvd7OXZyrEDkNJxuMtx3hVappo6iEtmjDmnk3vHmtOmrbxaAYaWIXOA7jW7T0fktvT9XL/TF1X+fcP5XdFTajiK9sj6RlngAHMdNuFztd79ZzCNlbJFVH2qcMyB8StP5ONuow+lljPK3ooO3XiWV5jqoGRHOGyB2WkDnupsAF4w7DTu09xXaZyq2Mp9EqHu17ioy5scBmlae1j2T8T3Lqqay7xW2SqFvixgOA6TuPJUufwrpir/ADsof1HKdHJUi53x1JfaGa4wyRyhpaQxpcN+W6n6m9GjhE88DnRvOloxvv5KZnBMoumjqI6mnY6A62HnnYsKVszKWKWaV/Za3OSrepMZtMnnTtc4NHaIHxK6XVUTG6nysaP1gqVE6uvTpKuscYoCcCnadsfFc3WKgc8Oc2TP65Xn8vXdt09Dj/z7yTaequJ7RTSaZqs6vJpK7LdxDbLg8shqd+7UCPvUVFS08LNDYWlneSMrprLfTVoAqGDLfYLdsfJUnXeXT/xlxmlwj2bjmD3rJcG+0QPiVTGRXWABjLiWsHsjAOAuDqKsqD/XbnJOO5objHyXaddNON/z7tdgQeRB+CyqFJJcbM5tRDUmSlB7cbu4Kx2S9m4aRND0T3+y48iF24+eZzbLzcF4stJpFxJDSXH8mdgoW536OCXoKWJ8kwdpDgOyD5ld7lHHFNnuVag/PCq+AW5U1V8hpOmFthceeOl2I8cqtsvYpuL5+vU8kVQ5rcRsaXDl4rnc06X5FD1t8bQxxz11O9kDjhukEu+0KRpaltTE2aMgscPYBzt5+CvhnDTvDy0bDda9ZVQUcZkqpA0Yyu18kbI5M6WtAz2jgN+1UVkh4hrZayZzn0kbtMI5cua59RzTCO3TdNeSpZ/GVA/aga+rPkC3711DiW5PcDHZZcd2ZAuxsbG+yxg+DQuW2N9x4Ly71l29jH/PmvLZtPEcFROYquLq9R9V3JTgOfaHPkQqhX0MVW0OqGYcPYc3mF0xMvEeGNu8mgezGYxsPitHH1zL1H+ff+K68uayqU+K6zHtXd4PhoC4RV95t1VCyoqBLHI7QzVgDK0Y9ZMrpmvRZYY3Krwih7NeBXPkp6in6CcHGk8n+YKl9R6MySYc/kQTjC045ysvbplB3qFuF7bFJHFRRGeYuDTJ9H4ZWKurvdOGE2+AuccNxLzVcs57Ik8tS1/n3ef2Maso5Kh0d9bTcc3QVcMkc80MbWsY0u3HNWSovkdMyN1TBI2F52Ok6vjhVmUTYmV1VNRDTQOnnmZG1viFmCaKoj6SGXU127TjfPgqb6RXvmfZaTBbBNU6ZMHyVuTm7MVsOPvy0k5uNLFGCJa0tcPCMldlFxhZax4ZSVwef0oyPvWoKaJrdIjjyAA3LQumSgppT26djT+iMLzp12q9T/x3djtYJrxQxAPknZp57BaP9K7K151VZz+oVGst9MzdsZI8yu9scWNLY2AebQovXeT/AMcnKG60lZE6WCoicwdx2P8Amo2u4pt9PIY4ZDUzf9mwEf5qEqrFb6mTMjH6j9VxA/yW5TUVNSM009OBjvO6jLrvC2P+c72cSyiRhqLdJTRuOA9z8gqyRSsmYx45EZVNvp02arI3IjJwpbhS5tqrZSw1DTFI2MdGT37LT0vUep5ZOs4PSvantsnCysHLGFx05H0icYUFX35scjYbfAaiRzg0auywH9ZbMspthx9k73qvWn87Lh+yau241t4pOq6rdEZJZRHqEigaG+x0vF1Sypjl6zI0MawMOM/Fc8s5taTwvaKFqr0aJrX1kDo45OTW7lylaaaOrgZLG/XGG5b4t8lfDKVXTtHsF3gumqqIKSAz1L9I8yuNfWRUVDNUzYELWaiCqS0VN/eKi5PJpwcxU45NHc7PmuXPzTCeHbpuG53y7K24V3ELyykkNNbAd3Y7UnwPcuttldT/AIyiq5xMB2NchIz4YUu1oY0NYA1o2ACyeS8bk6rK3w97DosdeXLh++vll6ncx0NU3YOPJ6sY5nAx4qn3GiZWxt1kxyj2JB3LjDdL7SRiB1FFVNZ7MxkwcfBbum6r/wDTy+q/z7jl+q5oqTPxPeWN6SotUYpnbF7ZMlvnhdtvu0laZJKa4yVHRNLnRuj0hrRzGVsvUY2+GTLjywmrFxRRVpuhqn9FO3o5nMDoyeRb3AKUcWtJaXY2zqK6zPblplFB19+0TGOig6ZxOA92zc/FZrqa7dFTyuqurSyPDXMAB3KrlyfA1ONfbtP+I/0Vjh/JM+Cp3F0Vzpp7WyoaJ2CfOsnBVxiAETMHPZCY5bHNERdEUQEAEIsAZ1KaKfTtx6RfjG5Tt9t8lzoXQxSBjmvyfgoV2Y/SJStHN0LyFbtQBfuBJ5FUxiVPdwo99DVRRzN1yRhrHafZK4ScHy+pKSnjqI3VdOSS4t9ryV0GWhvZDhzJzjC4twQXYIx7IU6gpn9GKqppXCR8cR6ZsgGn2WjmFcmRtbFF9JrW422Wd8nVs47kLlv2QwCTTuQdsKuQptlz/wDEi9ZOf6rH96uKqPD5MvG13mwNJia3I8ircmPuCIisN6x/3tT/ABP3FXRUux/3tT/E/cVdFl5/6SIiLiCIiAiIgIiICIiAiIgIiICIiAiIgIiICIiAvPne0fiV6CvPne0fiVo6f5RWERFpQIiICIiAiIgIiIMOwGEuHwKp/GD3M4hs+Hu3OCPtVwwCHat8cgqlxVbZbtxBRxsf0cgge8Y8ly5b4TPKVu1dHU3KOJoMsdO4ENx9Id58lourDDdoaosZGKh/RP0ezt4eaj7RS1VYGUbpA2pZ2zO04z+i7xU7cbG2jtjqp8o6aPcscct+ICz4ZLWIbjevqTb6uOkcWxU5YHn6+o9y52yAUtvjhZs5oByVAcRmlfQXBz6qVsuqLsatjurQztRDO2w+5Yesz34ev/nY/LKyOfd9qwiwzUexlbTALslx1+Kc92EwjO7WfSKIo1fion/fkB/G6i0Z8VXb/Q1FLN6xtB6OoafxrW8pG+CsSaQ4+Lu5viunHncLty5+LHlwuOtJemo7dLwiI4yDCG9IJD9bmR81oGvkl4eidC5nTTHo2hp7LSeSrLjLQXOKnjqMUk4cdDj+LaR3Y81tO6Q2yNrtFPMKxnYGwb5L1+HkuUfN83H6eWlhocWuIUN4hLWzNxLMwZb9pUBVcTtiojb3kOjEpAfLt2QdvsU9xGLiLNUiWsomxHPakbnHxWp6PrBSVgmrq2FtTDpDW9IMsJHPAVc8tXakx2j+Ia+GsrLPJHUNc0bv0HLdlMVNwbX3lpawFkQyzI7Bx9P4LQ444fjmvFDHbeipcRvc5oGG7eS0rHSzXVkTWyaJoRoEwOInM7xhTjnaZY6SlDUOiujp3gRwTyGPQz2Xv+sFC+kGsqa60VHVXmOka9rQ9p7TjncKw3WzsohbZTI95E2Rpd2eXcFTa6OF1HTllQ5z5amQGEnbYq2eWsVuHzkstKwR00TIc6dA3Pft3ruzqHaO664jqhaM6W4G65rxc53ZbfT8U7cfA3YHH+aYHdsURRtdkYaMBjSPHvQlw3DWtHi3msIptGjfYumtNQ1peXEd3xU9VQ00/CdPNFK2Mxtb+NB2GOYJUecjtAZI+j4qvdJNQ3F9IyVvV3gmKKTdhJG+QtfS53+Xmddxb/darjXSVNphFsIMs5DWOJ+jyK2KYxW+1y265RuiLmflANneefFVu3ueKK3xaxA+MkHPJpJUzxQ26dQYJ6uhZTnk+RuSfgvRyy14eJIjp+K4Y7VFSl4wyUsy876RyK41VVTycc0ckMwdE+MElm42ClPR1YaKpt09bXwR1Mrnlg1ty0geChOL+HyeKJam2PbSvp2ghnJmMb7Lhc/OnS4eNpyW5MrbuJNPSRsaQwfQcPrOXXaagQ3eQRtEVPN9X6T/ABHkouwUs95jY+me2N8ILDIzaJ479lN3Kytt4t80b3vc6QNfvsG/o+C7YWueld42qJ6+3ugjldFDJJ0UDme054O4PkpCigFHSMga1rMNGQ3xwq3NFSGe1yRVUz5W3CX8SXZVrxpbI5va1YznuXn9Znb4ez0HHL5EPLZEWLGaerld+BoDeT3DxwsuHc0kjvysIrS6J4MDHst+KhuKKcS27pDLKBC7WQFMrEjBIwse0OYRh2eStjn25SuXNh34XFIXjq54cpq1rgySCNjmSHYjK6brWSTUEMdDpkqJ8ASHvHflVRk01FVS0b5RNTMGqNku4fnuHwUvazM91kbG6ON5bIQ0/FexxZ92O3znPj2ZaTYdDSWya2VkXVZGtIEjB2T8D4qvT8VhtHSwiLT0MnRmR/tED6RUlxay5S0sba+voG04lGHNadXwHmtngHh+kqo6irq4DLmQxtEm4I8VXPLXlzxxRdNUU8npFlqGFroerscJB3HG6lHXE1lxNR0bZw0EMEnsgearvFdmeOKr1U0EradtJDEQxuzd/Jbtnoqi5uifE4xviGmRzTiOTPkowztRY3bRVtZdpKZzQwSgz/og+SguKZZ6+8WmfOIGVRZpPfgc1P8AEFvis8cVVGTI5zhHjOdAP+iqEzKaXiGgipqqSVzZeke3VsCrc2WsWjpsd5LVnOQeYOxWRke0SVknUXtaMOB71heLZvJ9Lj4xjIOeRP2rGN90RRCXwy4nH6PlzWQcDIcftXFFN8jUu7XSWurDRkmMqSrhTM4WoLi97I30cbSQDue5a7mhzSHZ094HeoAmaK41VECyamDBI2KTfUT9EfBauky7ctPL/wBDDc7lsvMstU2jp6QNLqpuphJ25ZKzLNBDanUNbTinliGphA7OocsHxURRTz11VY5GSxQOPSDSeQx4Ls43fX+qwa6tomxNeC17WnPw+K9PPKvEw+mjU8WtnntMD3CLoZh0jpNnZ8Vt1FTC7julmjdHLTuGS/wOFNcD8NUb7UJ6+mjqHTnpGOlGo4VZ4qsMr7zXzW+ZkLKWNrujbt3rhc7a63HwmzXCruEtU6MSthyGtk5R/Hwyuq0VJguQheGsFSwzBreTQO4eS1bHQVVyZG9ruhaBidzj2ZvD5Ldv1sitMkNVG9znuYWAOOcZ8PJaOOqaQvFbqq6xQxGTo6Z9RodEz6TfE+Sk4YxFG2NoAe1oYQ3kWjkFBaaSKrp3Q1Msk75MOY52QD4BWAnUO1gEHuXm9Vndva6DjlmxZ+GPtWEWOeHp734Bg5DidJ5tWN24yG6R7OOayijVRJ9hG+kYO27e4qs1tFPbbzHV0b3Mop3aJ4h7IB5k+Ssy4SxNmjdFI0ua8YIXXDkuN24dRw48mFiY4mZSw2alq2Pjb1VofG8HZw8lp3iaeupKSlo5A2SsAIcTuMblVMvrGVFVbRKyaJkepjZd2kfVaPFS0Ms1TPYXRPZA5r3tIf5Bevw592O6+c5sPTy0nXyU0FpfR3CDq8jG5a5o7BcOWD4qDp+JTVyUdNI0gRkOkkm2fkLb4ydWPtrm1FbR9DqBbgHJ+Cl+AbDSi1OqKqITvm7YMoyR5KnJnryrjjutTjOqjqYbW+mkEzTNguBzjZS8GOhZhxdtzKg+PLRBRzWyaBz4XGf8i04afsU7EMRMyADpHJd+HLuRljpzREWpQWM45fasrAOz8cip2KtcG6fSNanEdl1LJueRK0q+sukXGzqa3RxyM6v0jo5Tho37lI8Us6vc6CtceyxwiH/EUuVluXrp9wtdVBC/oejPTgkkeSpqwasXFFRcS2ltsMbqxjy2Rr/ZbhcZuLql76amhp2GulJaYnchjvXKDhWpoNFTapGsrpXF05k3a7Pgu2k4Xkjr6SqqZWGuiJL3DkcqPJtry8YupaStZcooo62nnbA0tPZy7vJW/wAOX6W5XCSjqTTPqWx6tdO7LSPNady4PNc+4vc+IvqKhs8YI7PZHepLh+yvo6l9VXClZKG6W9UbpBHmou0tLhBvSXK41IaA0uLNvEFWtVngJrvV1Y+QHpDVyfDGdlZlOIIiKw3rH/e1P8T9xV0VLsf97U/xP3FXRZef+kiIi4giIgIiICIiAiIgIiICIiAiIgIiICIiAiIgLz53tH4legrz53tH4laOn+UVhERaUCIiAiIgIiICIiDBGeSica+Obdk5zTvGFMDuUTAP7dWz9g9cOa+FsVcpxTN4kr46mSRjxKWscwkBo8Cpe8MtUdsnc2qldMxoxqJIK0HyzxcQXBsFJHI0znLXO3d5ra4gfOLHUa7THHsPxmr2d1mwq1VviqWZtjr2tt4khzDmpBG2SO5WGIYpmtJ1ggEO+xVziaGZ1kubhXaY/wAQTT7b7hWSF+aaJ47ILQNP2LF1fu9j/O9nJERY77R6oiIgJtkZz9iJnHfzRbH3Rl6bABTvqexA14Ge/crWrpKOOOcRl8sIrY9W5yty9Ne+GFghEuXg4+1R94lqWTSdTp4qebrDThzsZHjuvT6a+Hz/AF2u9YLl6vlgPVjLGSM/jcuHyVg9HcUbeHojE4lvTPz4FVCWvrnTtbLVOqY3DtNljDMHy8VdPR8Hjh0a2Bh6Z5wPDKnmrFh/TpvWp3EsR23p5RjHkqZw/FSQyxwTTSAuaS7TkAb8ldbsM8TUo+tDIP8AJVCinqIrsY6WnY9jch7Sd3Jx1bKN24MtkHQPinmknbJlupx0t+xVerln9XU0gtxEbKh5NTkY3PgrReXyuhaTa2sa0515PZVYuEc7eDul9ZhjWzk9Btv2l25P5OH+lnjI0RjGW6e18VlYhP8AV2uPe1vZ+xZXjX+n0/H/ABBERViwiIpGHbjT4qPrqekquIbUyu2ibqw4bdykc6d/BaDR0t+ixS9Z6tuT4ZXfpr+7L1lnptWR9G2/yxkPdRMcAGjOVJXs259LiETMIOQ2QlwwoSpnqouKZzSxRMkG2HOxpz3+ZW/VVtwdoiNT07NW75WBjw7wA7x5r086+dq+cEsY2yN6P2ScjbCjZ2auKrg7TuISO1uPZUxwg4m0s1DD9RyorBdxbcW+MX+iy937V21+sVHg6ngbTmmkqnMe5xcdOQMZUleIrfDPbW09RM5/WR7TyQVp2OSZlWyN1O2ZjA4AZ35rcvuQ+2f8niACpBzkrVx+XLXlXXvqHy0BdQCJouEoE+RurIcagO48/NQFQxzm0Dn3ISRMrpXdW2U+CZYmPLsEZwPBef1fu9n/ADxERZfh6V9xERAWW+0Dnl/msIXBoJLc/wCiikRFypqea/Wt9TkMLnasbatuS4UclPHdbcwue+ma2TZucj7Vs15DbxZ29D1gF7iR4bKMmqKilvlN1VrYGjUD3kA+A7163B/D5/rdd6bvht0tEx1O2VkbTqcyTJyFdeD42RWeJ1OSGOOtoJzsqDcqyve0xCoFTA1hcHytEb/hp8F6Lwxg2WmcIxHqjBIHJV5PZm45vJAuhNbxlxNBluh9LESceCrXDbKScTxzVUjXB/0cgHHgrZb9uOOI/wDCM+5VHhaaYxljqZlRGHu0jO43U8dRnNNrigW6Cmpn0lRI+odO1jtRJBHwUCx839JNUlEKVgGiOTY6yp/iMudDRarc2P8ArLe3nkoK6NkiuFvnkuAlY6sLSzbYY5K/Nf1dOmus1lO5O/xcsLDSXAkDAJ5rK8n5fSYXeIiIqxYREUjO52HM7ZUPUU9K3iGkmrXOAPZ1NPgFLk4BUdOC280TW0wqcHUcnlstHTX9mXrNem4UT6Fnqs1EcksAfLjQSCN1scSNtz7RIKd0jYww9mQF33rRbVVMc0DaTTThj3ajjJbk9w7121tVWVHWYjO6sZ0TtL5YxG7GPBejnXzk93o3B7WM4YtPR509CNyoWSMS3++RZADqdu5U9woXDhi1tdgEQjbwURRBruJrzrj1Dq4Wff7O9n6qfw6KF89UyeomD2u7ZDiGu+AW1xG62NpWCjqJXT9IAHPJII8F0WN84nqGx0cdTDrOmMuwW7rY4odU+r4Olt0ULBM0ZDtwtXHWe1D3J9S+S2GS3imh6wGCXIOpWA+wQBp39pQdzgmZDb3S3EPZ13sx7dnbkprO+wwM815vVe73/wDO/llERZr7N2PuIiIkTfIAdpyd0Q4xuopEdI2hj4gjkuWoMLdMZaeZWpSTUZdbnSB8sLaiXAbkFbtYS26UgjpRU7537lCRzVsJpZKQCnLJ5C/SNTmb9w716vT/AMPnuv1M09emUMsPQ0sj6eMMLnCUF2T5ZV94OZG3hm3locWmLbfn5rzZ9yraio1Vjn1b+id0Zkj0HGN8hel8I6jwzby4YJj9nwUcnsz4REekcuMFqGpuenxkjyWxF+SZgY2C1vSN+RtX+I/0WzH+TZ8AtfT+ynI5IiLW5CYG7fo+KIg0Lzbm3Kmjje7GiRrx9i3txpzvhZRSGBkueS4O2LQcYRpd0ZGQPIjJREGTuGg+yO4Lqq4+nikYDpOnAIXYiizY1LZRNoabomHOTqPxW2iKEiIiDesf97U/xP3FXRUux/3tT/E/cVdFl5/6SIiLiCIiAiIgIiICIiAiIgIiICIiAiIgIiICIiAvPne07ffK9BXnxGJHa9icrvwfKKwAfqlHZA3BWhdLlR2umbJXTlmp4a05711UF8oq2fo6ObVM3mHcnLTsSh7sb58EO2PE9yw97W6jIRqAyQz6IWnFcqJ4DmTt0yNc9mTu4N5kfBNjdOzsHZDycQCQN8rooq2CspI6ilmY+lfvk7khbDcNlIb2m4yG5TYxg4JG4A5hNw3JGN8YWhHd6B8jW9PhuogsB5FbzXsO7iTnbdNjJwCdx/7rG+3ZOSgGl2k4ONseSbuc/BJY0Z1gpscsEEA81F0+P6dW39g9SgOSNiPjzUVT/n1bP2D1w5taWxQtaaWHiOqMs0zZnz4YWc8+C7eJ5Gi1VLZq6pbMGgiCTbUM+C1b3BSzcRyCpEonbPqibGcFxWxfqKVtqrJ5aSUyloBMpy5oz3FZcN7WqIu9F1qlunR04cQyEmTHJStC8PpoyQMBuNRUTMYaitulN082voIz0cTsch3rdsDhLaqcty4kHv2Wfqsfl6nQZa8JBERefLt7NmhERSgWRz9kH4rCb8mAmQ+zhExH1v426UVP1owGTJBJwNlqz0UddeZIKiodUNbIDraclp8F1XeKiqeIKKKr6ZgiY46mu2BwnCmZb86Ole2R+5cBsR8V6nBNYvnOuv7+Fmu1l6eOFkQq5JGDIy3uU76P2lnDmlxeSJnjt8xuo7iCesFHiWSRrW7aoXYd81IcAuL+HmZa9v413tnJPmnLJcds/H7ly7XFNvx3RvyqZTupWcTVjH1M8dQZOwG/cFdawf2roB+g9UOeKlm4wqukZL1tjiIww4yPFV41s0tf5G09LKye41LajTqFO8gFw+CrdwoWz8By1HVGF3SAiQjf2lYbpRyR2etkNHLK5zN6ic6nN+BVZq44puGKilhlqX1TNDjAx+AzfmVoz84o4r+8WeHenjLva0t+5c100jwaeNjnN6TSME9+y7l41/p9Nx/zBERVi4iIpGeYIOMHnlR1jbMeIbiIqowBzW8zgO+CkRucYznuVd4ibT+uLaZ5ZIXZdgRnGfiu/Tf2w9bP0djbbHX8YVEVXPI4jt9JFucjkpfiGyOqaZtXB1l80YwZHjcNUZww944rkNO0vJBznv8ANT/GFRUPtzYqhs8bekAb0D9OfivSyjwItPCA0WaDWXkjmXcyow/nlXlv/Zf6KS4RcHWOMOeHkbfDyUbg/wBMK/H/AGQ+5ZbP2rvLvGKbZTB6+liZUVMVU7UduR+C3r08NrqCKa4yyzCYHoXncfYoqmEct+e1sUz6pgdgRnBwpOop308cT/V8pLpNTppsOkHllauO+HLK6qLq6Wl9SuqW0Lo5oqp5NQBy3U5E5r4mOGkgtGHDkVXbvNC3hSt0SVBc2Uu06+yCT3hT9IS+jjDgxrNDSNIxnbuWHq55et/n5O1ERZPh6nyIiIkWcnBA7+7xWFnfB0kB/wBHPeUEfLGZr5SNp6gQviyTk47lH0ltZWcSwCqnleY9R6Rm4BWvcX0rr1WCpme2eONpjEe2/flb/BjpXXBj6TTMMOyTyXqdNb26fOdZrvSPFdkklgkqqZ07pOiOqR45M71feGsDh23jJIEDQCe/ZUjjSecWtraoTsBOkGJ+AfI+Su/DjybDRB7cFsQAA7k5fbTnx+KhLcM8d8RjI/2Rn3FU7hEUzp3RQ1NTFWOc46Gcnb9yuduAPHnEeB/1Rn3FUCwR08lTGRHO6ta54j6E4OM7qONXNL38gupIzcZpJG1LdULiNvitC52yKayVNUymDHQVDn6sd6k7jSPp20o6hIXunaXyvwXZ8yolz6eptN2ZTS1Ejmyu1Yf2GnPLC7cmMuKeH+omqYk08R9ppYPuXNdNCf6jG0Eaw0bjku5eRZ+z6Xj/AJgiIqRcREUjPx5KMpYjU8TTltaaUQwh3PAKkuZHPOdvD7VVX9WmvtfWTOkNQIxHE1h7BI8QtHTzzth62/ppKWSiZXXBvSTSSmJ7j0sW+VJ8Q2iV/SVMDqvAYdTiNz5LQ4JD4qmZ9Dg55g8sqU4uq53QOFR07csP5F+AvSzk1t8/iuvDJDbBbtsfihz5qHtmo8U3kayNVOAMKV4XcXcOWwvH/RDHjhRtoP8Aay69n/oAsm/2ab/MU+xCn9YSMinqY6173bRjd+Cs8VzQz0bImV00tQyqZrhce0PiF022mppbuZIZZG3Br3BrWHGN+5bfEFE+nooy6lDZHVLC6bHbcfMrTgz2Iq7UZdHQSina1grt3j4KcBy06e01p3PcqzWPhq6Wd1NLUPfTVRc9of2QR5Kx0rtdO1zSO00HA5LD1U1Xtf5+V1p2IiLLfZ6XtREREiZw122dkT7Dnu8PtTW0W6jRhaKniFkYrTSiOIPLgcDC0eG6GKqub3umqJuryuLZYd+ZWtVso5eJJqiV8he2ENaIzhmrzHgpL0btqTW1wt7mMAOTq5L1um/nT5vrLvPy3b1RObPJNCy4PDo3ZcWctleeEgG8NW5uokiLfPMKscTuuDIXdalcRoO0LsBWfhPfhu3Hxi+37VHN4imF+EN6RTmG1Y94/wBFsxH8Uz4BavpD2itX+IP3Lbgx0TPgtHT+znyOSHZwAOTzOO5Z5Kv1HE8UFc6JlLJJG1/RyzNIAb5LZbI5LBjYkb/BY+lgb/6KtVfFlNTyyNhp5pmMAc9zT7DfErsuPE8NOHijhfUvEWt7Y+bNsglV7krC3tDKDffu8VSrbfp66wUDjI01M5M2pmwaxp3ypSLieF1ZExtNKKWV+hlQT+Lc7wCd32LCCCMg5TmARvnwUJa79BcqyeOmjeIY3mMy/R1DmF1V3EsMN2qbfHBLPNSgOmMRwIwd8lO6CwDmQTjHisBzTycOeB5qAn4rpOjhdSxurOkaXt6LmWjmSlTxVTinhkpqfrM79urx4Dm+ZT1JBYCCATgnyQgh+nvHPyVUu3EXQRwVFJl+ScwfSLu8fYtOj4tkmjts0rC1lRr6WP6Rx4fBRc4Lvtg7jPPCDdgd3FRbr/QxSxAubpkgdKHeDRzWrQ8Sw1NVDC+J0cU/+zyuO0p7sJLsWyx49bU+DntH7iroqXY/72pxjBDiCPPBV0Wfn/pIiIuIIiICIiAiIgIiICIiAiIgIiICIiAiIgIiIC89JyWk+3vzXoS8+IHSOL+YzyXfh+UVTfSa177fawSxr+tswSMgb9667t1232G6TyVlLLI2I9G+JgaWfJWa52qiutK2Ovjc7S8Oaom7cK0Utirqe2xaJZmacvcRk/atGhBxyyUT7NJTVfTuqY3GoGc57OVA0jDVPs088pa801UdIOBtlehWbhm30DaciBvTxxBuou78YK7XcOWo9X10w1xNc1pHg7mmhQ4ZKmy8MWa6U8hdNNI2Ms7tJPLCzHV3qeR9XFAXSNmdg9MBhvhhehus1C6ipaZ8DTTUzw+MZ5ELobw3bYqw1TaZuou6RuHHAce9NChwVMzJItIAmeXlw81Im91Z4LoJpKhnWn1bGkDnjVjGFcRY6Fs2uOlYZG5IJO2/Naf9FLIZQ8Uo6QPD27nTlNCmVk1XNJeql1W8PhrxDHjOGtwp3hp8lPxTNbXTPkpnUbKjSfrnmc/6KyepqECcOgawTSdLJg5y/wAV2w0FPBVOqGNHWywRg/oDkE0Nf11SMqegne5srdiNJwB8V0008T+O7WYpGvaYH755KVdBHI0tkjY5ru4qsNslKOOLc2LVC50Em7TlcOaeFsfd2zumN/rGQRNki6YkykZ0HxXPiCOtNoqc3RrxgZPR4wMqOqKCuoaitkhuYjp45iHseQDItk3Kpr7fJBUW+KN+nsAuxrC4YXyvWtBQxVtZdDJTmR4pm/jGu0/RWjwZqbw1RxSZBZqGO/mt22ua6vunTVL4SY2tDQPJafDL2M63Sske4QvwMhcOqjd/n3ymkRF5sj36IiIqI4nHZ28/BFxlkbFE98o/FNB1KZ7q53WNrT4d6aHiC6GntRrGt0kOc/OlaAmop+Mqhl6p5KONwLgyAnJPxCkeAWvqKWaoguc1LJK4h7HsAyAdua0KmeroeMHOiljkc0HXKcEgeIHevX4p+j5rqbvNKXCPhwQ5aytlf9GMvcMfFWT0bywO4cBpWvEYmeMPzkHKrFVc7jKyZ1IGVdO7nLOAx+fgrX6PHTO4ca6qDBJ0rtmHbCpy/wAqcfu51xxxbQ7cmPVTp31juI7myMMbT6zmctBLD4K3VuP6X0f6jlUKgPpr9X1b5o204l0mBzsF58gq8a2fs3OIIq5tkqHuurJItG8YZjUFDttbbpZZ4xSue9sbXMex+g/b4qRrq6GutNyigouiqRDqy/IIGe4LXtTmNMgqKySBwpxhoHPZd8v5rnhdZx1cOzmW0wuIGsZbg78ipFQ/CTm+oomtkeSHOwSPNTC8nKeX0/Df1giIubtREREGnUDn2e85xhaFkdVz3KpqTaxW0se0DtQ2Peu+41DaSgnme3VG1vaA5kLnwTTStsmKe4TUzSXPDXMxnO/etnSzzt5vXcup2oeljoaziyWW7QTU5I/JxPI0/JS16peH2UwdDFWTu19oOkd2R4qEgqKql4hdMHjo35Ek7e0/PkFKVtxus9LijDZKZkmOmmAY536OPBbb7vF3td+CHxvsf4lhEYeQ3PgtPV/bCvxt+LH3Ld4J1tsn40NDy8kgcgtAdrjKv/Zj7lmv9V2x/mKzam3KW8PFM+GGFuczuAyPJSd3pq9lGZZrtE8ZyWBo7Q8lEU8dNTVslTXSF9NqIMAO7z3YHepOt9XzUUroKR8czI9TGyZBaPgtGDjl7q/W2mOv4VrJOove9pyJBLpHPvHepO2yNlooHNzs0NP2LooCyW1zR1Fc+Jzmk9GBsVrcIS9JYoyXvLg9w5c91n6uPS/zskyiIvPye1BERAWHZwQ09ru+KytK8zmC3TubnWW4aBzJ8lfjm8pHPlusLXLhmpqS2prIrOyqBLmCQkHcc1G8OwUFXX1LrvFNDIHexC4jHyU1wjQyusTBRXKpo6YFz3xOjxlx581X7HV1VHcK10cjjEX4knDcvb8AvV48dR81zZbzTHEVFZGULpKanq6nbB1Su7I8VeuDpInWGlbTlxjDQBq54Xn92rLrLQuFM1hp2u2fL2HSeWF6Fwq13qWlc8aXloLmjkD4Bc+Uw90ZQu08dcRnP/VGfcVVeF21wjDIpIqZr3PLZy0E81Z6DfjriT/Cs+5VS0xspYop55Q6Ml/4gHtO37gnGZpG9w1rY6Qz3Vk0LZ29kN3JVdq6NktsqtFM7VNUubra/T9pCnaqSlqIA+Cj6KRsoI6QkOb9igJpIxSRVElS4GKsc57e4rtyfynh/pYaduKaBpwWtaARhcliJ+qJr2j2hkBZXj3+n0vH/MERFRcREUjOQ0F7uTRkrU4PlrI7bUhlmFWenkeyYuA2Pcuq/StitVQC5zXPaWt088+SleF6eodYmSU9xmhgazdj2AOLsb7Ld02PjbyP9DPV0gOF47XUOqX3Vs8Tw86Y4nHbffktm/wcPQ2+U0kdZNIWHd0jtvmo/h+qqaOSua2YwxF5zMxoe/n3hbt6rLvNbXGKCAw6D+MkcGuk+IWzL2eTg9E4S0nhi2FmQ0QjmtG1nHFd27WMU4PJb/Cep3DVsL2CN/QjLRyWjbTjiy7gDP8AVwsn/J3/AOKrWeScSuwxsQ1u0VOnPfuuHFQqeqUrn3MTMdUs7Ajx3+KUtRUWwipdPG6nc939WyC52/guVxuBulG3oKGOGNtQ06S7Dm+eFpw9nGoe5W6OSxXmc0zg+N7sPY/TnzPipa1uMltps41CFu32LSkDZ+H7xG6umBdK4adGy2LNI2W2Q9F2tLQwuO3JZerxen/nVuoiLDfZ7IiIgJyIOcYRaF8nbBbJiXaS9pa0+ath5yjny3twtbPCktTHTVjm2YVQ6w4teXDdQfCslqN3ukd46zASctZFq2OfEKzcMsczh6MQXiSnyMujLRu7G6rNkuFTQXavElWIqUn8ZKxoc8/YvW4vEfM8+Xdm3707hyCmeaTr0j9J3e53+q9D4Ne13C9scwHSYRgFUG5XS5VEJL2UskBYeile4Nc74juV+4SLzw3bzK1rZOj7WncfYqc3sYTyifSKPxNq/wAQfuWxCMRs+AWv6RfyNp/xH+i2YvyTPgFo6f2V5HI7kLzS88P3OoqbiXW+SVr5i+KRkukEeGPFemI5ucH6oyB5rVnNxyUSm4duHqytbJThrpKZrGDUMtOe/wAUgtt1s89ZUUlAKw1kIid2gOjwMK9EAjpNOx7s961JrnQwPaySqiY47BmsZafNVk0lUOFOHLhHa2QXGEU8rYZIo8HOzkitl2kgoLYaDRS0cgJqNY7YHfhXCorqWlAZLPCx3MOL/aXKW4UbOjBqIelkbqAc8DUPLxU+PkRPA1oltVBWRzxgF1Q+Rrj3gnZVySS4x8ZcTRUNu6107I2udqDdIxz81YhxDTslpYaySFr6md0UIY/LWY7yVvRVVrjr53QyQislwJAH+1jkmsRUrfZrnw+KR9JSCuIicHDIbpJXVUcOVkbOkkoX1Dqt3SGKOTQYye7KvT7nRQyuilrIGv8AZ0ax2T4JUVtNTtbHU1EMTnbgax801iKTS8PXQR0Rqow2aGRztPPDSNgfFcqCw3CeW09apBE2BszZBqG2rkVdZa+kia0yVUTNX6Y381pVd4iivFDRENkNcHO1g7DSmsRVrXwvVmhroq4EyxsdDTOzzYVx4f4YljqaISW6aB9IR+PdNqDseDe5ehuBwBkBvdhcTiXYFwx4hP8A+DesYAu1Pj6x+4q6KmWT+9qffO5+4q5rPz/0kREXEEREBERAREQEREBERAREQEREBERAREQEREBefP3c7uOea9BXnzvaPxK0dP8AKKxl2MFxR3aADhkDkERaUBAI3AOFnO5xtlYRAGwIHem2o7DSRjT3IiDH0Q3PZHcuRIJHZGkfR7lhEDO5yAfJYxyP0gc5/wBFlEDYu5KKgOOPLX+wepXvCh4wTx5a/wBg9cOf+V8UbeKZlZepmyRGUmo0t8AfE+Sk57NcI2OkeYXuYOwXn2R5KHu3Rsv04dUPiBn/ABhzyb5KT6O2uDxHcKmVmnbtlZOP3XquWSrkF5nidBFK6XZ00g7DMeJS1udFe7rHJ0LXukBb0XsuGO5OE2Mnq6w9OyISOwxsgyDgrhxRFJaL7b65oa+AtMUpYOyCTsufPjbHfosu2pw7Bue9Z2JOnkFwBaWse06mlcmjDnEciF5tllfR4Zd0FkYzusJjJCJZ3UNxVOIbTIGlxlfgNY3m455BTO7n6e5VTjKQ+sLWyEkFsh1H6uy6cU3lIzdXbjw5WLLY6gttzDdLdIyXTv0bdiFFW99I/i0zPp5ZIXRktGN2/FT1kFx9U5pZ46mnDSWyOGT5haVlNY67skpX00Ur4yXtkbnI8l62GOpp85ld3ykLi6KVkTKGAgF34wyD6Pkp3gNobYS0YwJncviq3fuuENbUyxse062dEMZ8laeC6Z1LYWse0tc55eQfNZ+W+NL8fu6q0Y4uofNjlT6il67xVWRPpDI5kuY5XDZpVyqhni+g/VcqXO2IcS3XXXvjiNRh4DiC34JxpzS12tVxgoa6Yvgke6HTqJ3Az3KKoJS+8y0xp4N4GAzVOzQcdxW9c4LU21zNir6qQubhuXlaVmhZV19RG+dpLYmDtcgtHw5T320bHK4Xm5Up6MRwOAaIvZOfBTZBwoG6NdYeI4C4sfSVIOudgw0O7gpzTkamHIXmc2Or4fRdFyd2OqZ8VlAdSLPGq70z3H4LBzhuOZ5rIRv5UjuxhIb1N1AcSVUnW6GjpmGR0smJGjwU9QVhFrLbpTTidgcB0bexjuwq5cGPNyhro5NDS/oQfMK40Brm24M7EsAY4hxG5yF6fTydr5/rs7eSqxwo6kfNrqGyOeCdJAU7xHokpo2QZxnU4P7h4jzULwOKzop46Q04LXkEytz8lI8RU9ZLE5tS+PVC3pCYxjI8F2y+2PGLtwoxkdnja3OCefiopjQeMLiR3Rj7lOWONrLPRluQHsDt/goOLP8ATOvHjGPuWb/k0SeFTpaKqr71pip2ufESY5XjZqlbrQX2noLhUVL6WYmEtMhOX48lDNFCL7O2ouc1OAT0jGuIx8FvXuOxts1WYLrWSP6M6WmQ7rRg45NDhydjqk0dRBE1/Qh4qKgYacjkD4rp4ZkLY5oOyDE92zfMra4bohUx9H1iMSdE0iOUZI81qSRyWjip5kLDHXDDSPZGkLl1M7o1dHn2ZaTiIi82z7fQ73JoREUF8VkkBpPgcKtcVVc7K+3QUTS6obIJCO7CsuAHNzu1xyVXalvTvdX50SNqDTg/ohaOCTujJ1vJrjsi2UFx1UhZc4J2S4PsDsBQPBr6YVt06wHe2CC1WPpK2Kz6XsY+Jzd3kbqvcItr46i5dVFPpL25Ejcn7F6cfOXzUrxO0TW89CWOj06j0nMHxCuXDwHqShwScxNyT3qjcQ09VUMkZNoBdGcCMYV9sTeisVuY5paWQtaQVw5fZ2wnlX7aMcdcSf4Vn3Kq2ahqa/oerU7OmY5xZM76G/crXbxnj3iIDvpWfcqjbepsnijluEsAy8yta4jBzthONOSXutqvEFO6WodSy76nSE9vHgqrEXXCw3ShjpYYpAS9s9QMAnPIHxVkusFoNEXwXKrkwM4Mh3ctXhakZVWmV0lRG3Eh0xyDJ+K0ZTcUwy7bt0cO17K+2QzMe09GOjeBzyNlJqqwwScNcUyUYLHUFZvDIB2Q7m5WpeTy4avh9D0nL34+RERcfl38+WQMrAPYa7u70PJZ2a1jfHcqflO9Y+VZ4pq5219DTUkXSzNeJgMbY81a4rg0UB67BOyocOTB2QfJVSeM1tZJUGXoXxSdFnv0q21klfFZHdHHHIxrBiQt7l6fBJMXz3W53LkqJ4bNHFc7m2eGUHskEDY5W9fWtqIi2FregbGdTpOee7C6bH143CrFC+nLnNacStznbddfEDauWupy97OkZ+LMUYwHA967Z+IyYvQeHAWcPW9pyS2EDJUTaQ48W3c6sf1cKdtcfRW2njGQGsAwe5QNr0jiu8aif9nCyT3d/hUbfbo66uD+iPWQ92iXuG6k7taqmkgMznwukc8Fzwdyo62dEaiASVL44nuk1Bp35rdukdv9XuMc9TIGjLcuJ3Wvj045I2wVM0xrKNtJEGl5f0kw2d5DzWjwbUOkoahkzQ17Kh4LRyAzspPhKCKqt8uaoNc6UkB3MFQtSRw/xm+GbLaGraBHIfZL+9cOom419Fn25LMibHluEXmWPorZrwLIGeSwshTPZHywAXDs8+9VziSpknrqWipoBO5pEmCM4cP9FY2DIe3ODzVbkjAqZ9c3Qve/syeS7dPJbNsXW52YWRPPqaZtqlNbbp46lrc5Y3s58lH8PtoWXCrdV0E8ryxpy1uRupy4PucfDjsGGWNsYAcW7keK0+FuvBz2UssBke0HttyvTkfPX32XNlM/LG0GmmEbtTpW4IONsK78Jt08OUDQ7LWx4HkqNxF1t1XCZaqJz43iMwtGzslej2+nNLRQxYADW7ADkuPLfDtgrXpF/I2n/Ef6LZi/JM+AWr6RDmG0/wCI/wBFtxfkmfALT0/s58jkg2JPiMIi2uTHIY7h3LzQOtjb9xA2up+kne1ghGN8+S9LUZS2alpq6qqxEx9RNjJeM6FFHmcVvromube4w7LHdCZe4eHxUzYrR03EVvdWQOlhjoxoMg9g55L0GeCmmMbHtZUaRntYKzK6CFhnm6NkTRzVLhtLyqG2saLa+elOgXScuyPo42XeYWDh/qopXi/GoBbI0b6NX/svSITSVdNqjMJjJyCcYXTUVFDS19MJImCpqNmeOyj0xRTZ45J79USUjXytqGHluOyox1NUdJUC5RCV0sWYHO9oN7mjzXrjhCZZtIjBcRrxzJ811OhppH/jIoi+PZucbHxUXHXgeY1VPM2qMFRTRlkdO1we/mduQ81t8LNmfVcLyyRSODROHlw3bvsvRJaeCRzDLEyV7d2kYwPiuyKCKF7WsjYwkEgAeypmMGQGgAtWST3FANhtgdyK0mhvWP8AvWn+J+4q6Kl2P+9qf4n7iros3P8A0kREXEEREBERAREQEREBERAREQEREBERAREQEREBefO9o/Er0FefO9o/ErR0/wAorCIi0oEREBERAREQEREAc1GU4B45thPdA9SY5qNpvz3tv7B64dR/K+KP4kp2svpMsRc3PShwGf8ALvW5UQ1Zg6eG5U8ERbnT0QJ5eClOLLXV1EsFdQzvhli7L9IzqZ3hV6jnpGNmnmpGOqQdMfaOsnxLe5ZOP3XqscOzvp6zoo6ZtwqJHPLwXdGWjxwtm+zQTwAya6SNo0mIgvEju4hy2rhZI6G4tragObW1YPaj32A5LapAy50lNQQjU2N4LqXHZj3555q2fmIxy7KjLC+ala2kqzu5vSR57mqabvsfaG/2Ld9IFpFPR2+tphh1O8CTHfGO5aMTxJGJG/TGR8O5eZy+K+g6TPuxZWRzWE7x8VybGQTkFuxzuoOSmNRd614IBp42vZkZGSpw83ae4rqpWs9e01OWhwrcxuB5HAXThus5WbrP/jk7opo3WsMNZgEEaI2cj9ir1tqwJKgVFJLM2kBDtJLST5K0xCk4bgmpqpjo5QSGTNbnUTyXRSztpqyKrJ19HA5k2B7TzyXq457j5y4q9cZ556KGW2yuZHMQCx7dRb9pXrdpZpttK3Jz0bdWfHCo1NTmvvFG2k1shyJpqZzcDPeV6KxunAwABsAO5ZuaumE0rtTtxbQk/VcqrVwMZf7lLPHpzUgRvxkE+YVrrBq4rosfVctTiq01TqyKvo6iSKCMYnhY3PSeJTjpm0bnSVQoTIbvTNDtujbCHFqqfDtQ913r9FKKtgaA6TXozjyVjoZqeOKV0NDC2omcWRBry5x83DuUTNZIbRNX1b+k1Oa0jbk4nfC0y+HJH8Qy0la+JknSQhwOmJzTu/uOfitvhuSd1I+KrJNTA7RJ5lSopm3uamo+lfPK1zZcObjocb4+1cuIqcUHFjYoRhtTEZnjz5LFzzw9HoOXzpwadzgbLKzn6IHmsLDHt71GQMoASfNYOe5DkkBqnH3Rn/LQpad01kpi1wYG3CQveRkAYUpJWOFnc813Z3axjI85+S3ODKWK5cM3GkkPaM79vFa7JoLLbqiFtKyOsHZAd9NveR9i9Hp740+c6j+6p/DtY2mp7g6uopSxrxh7Hnn4bLZnkrZaijZFM5tLVuDSwjJbn6OVYbSKaidGyiHWKaaB8rgRnpMc/tXKw03XrxTNgDxQsZ1oBzcFjx/0eFo5PEccYvtBC2KkghByI2hvhyVbgBPG1bjvaB/krW/Vlpz7W+PDyVWpct42q/1W/cscvl3+FYqNLeJatz6MYhkDGuxnXnxUjfaWonts/R1tNC9zcaGxNcW+S2uKbbUU1f6wo6iZlM7eeJjM63dxWnRPpHU75IaKM1cz9ILXEkO8SO5acK45IWyTNNXI00jagQxNEkwl0H5KJ4nko5TmLpo8kaYXNOQ7yKma+z0lonrS5rnTaBLLpPtEnkVuUkDb9VUTGVU1U0YcekjDehx3KeSbiJn25NGxVjqqjDajarhOiVnie5SR7LsHnjktS707bdxu+EDSK2MzB3dkbLbblseH9qQnn5LzeSar6Pp8u7FhZWE7wuVaNbo3PR4P1lFmItt3SdKIo+uHUS3VkKVIy5wHcVt8LULLxw9cacu0vFQ7SR3FaOK6rzeuxsladbWyyWof17WHZb0TY+QHmqzZK+nggra2rpJpYi8Na9jyN+XJWwTQW+2PoYohDcc4DT9Md5XVQSUdEJZKeEzw1hAALd9tjgL0sPMeKhny14vFubBO59NUSNbktzpaT7K9fZEIwI+5mwVHsNJ0vEAZFK91BCNenTtG8cmhXtuS8uI9rdZuW+XXFUbYC/jviIM9vq8YCrujoL6+LqgxAdJfjOc95Vls40+kPiDH/YRLU4jtlRSXGStppHimn3qGNGdR7lPGZtK/U9RHb6h7bnTsh6M6WNhDj8FAcM1QbSuaKIVMbBqlk6XTpHjhWCnNPLT9BSUsQnkOAA7IaPH4qDqrXBZZZaaJj+nm7bxj8oT4+AWnfhw1tE8UyxVTJ5Yw+J3Z6vE4Hs4O5BVhts/W6OCVoxlu/wBi3aekiv8AVUTdZqW07SHuc3GjI5DxWlSDqdTVULR/sp0/NYOZ63+flZ4bJwTsiYzpA54yixS7r2LdBXXUSiGnlf3gZC7DyXCoYJonRHm5pCt/yV5P4afQPpKKC4mRsbKjmS3IJK37zMZLNJSsry4yMDgGR/5eSk7LRtvPCklEQC+nOhhPc5actZT0FsFDCx0FU89E4ad9u8eS9Phvh83z/wBq3QXCnFDUVdRRyhri2Nr2vIORtkhbGmskvVvayUyUbnh2rG7d+Xmp1klJSurQyDp45AwaQMgnvK2+HKIycQh8T3Ggp2FgyPZceWPFdOS+HLFdi0DGPZVZtQ1cV3do9owNAVoLTggu1ae9VezZPF9xc3/smrJL5dvhVoabqlzjY9uiZjnaX4yN/ELdvtNXRUEz33an6IxkhrIQc+WykOI6Cqo7ubhHI59HM0iSFoz3bKPpjAaJtPS0kLKmY5AY8uDB4/Fa8K45K3wpXPit8jIqEVgb2pZOk0Fo+C1uIGx3ZlVpL6cSMApo3tJIeNzgqTq7VDZXvj/GOnmky/SPyg/S8ApqhhhvV0tr2F1Q2lPa1Nw1gxyB705JuJwy7ckPw9VmrtkL5tpWjS9p57bKQbvueXguq6UrbfxPWNADIqjBhYPLmu7PM438F5nJNPouDPuxFh3srKyFzns0z3cKt2mGR/gwrVFK5lsoK7LWski3LhnLsrvqt6Oo1fUP3Kx2q2RXTgSgpnsDn9FmInud3FduB5nX34V279HLaiBUvfJ0eNDQQAoK1XNsNkfPWUEpy7o2vY8g88Z2VprKqCjtXq6WMx1Dj0chxu4+IWBPBRy17o6Vs9L0MbY4SNnH6RXp4eY8WoPoKiW7UVFFW9NA5wlJ6Pw3xnvXrpdqa13ccKkcMUTX37XTveaOkaWtYW7N1DOAe9Xd2rS3VjGezjwWblrrjFP9In5G2eVQfuW5H+SZ+qFqekX8jbf8QtuP8kz9ULZ0/s5cjkiItrkLVukksFuqZoxh4acAbkraXAtBzlob0gxqUUefUdNBJZ4qunuL/WM0Ty5gJOXd23ctaOumvDG298j3sp6P+sOG340dyu9PYaG3ydZoKOJtU1p0u1cye4+C1eGrH1GOvlqI2Cqq5TNIwHIGe4eSpd/ApvD9PA+RltqJXw0QJfnpD2z4Z7kM8wudHEZC+OBspifzztsMq9O4btUlP0ApWsj1GQtz9I81swWqhhhibS0kbIoM6Mnx5qNZJefySSM4fo7zDO71zLKBKzVnbPLSs1TultFTcJKh0dcJy3GvceWFef6O2sVzqoUrWzk7HJwD4qtXDhOpqrrI6qpoAzXrFSyTLg34J5+RFRV9bBG3h8SudVVTWyMk7xndelws0U0MW+WtAJPPPeq9b7BI2/Nr6iONphYGwkHJdjvKsuQ4ZHMq0Bxy9x7kTGAB396KRvWP+9qf4n7iroqXY/72p/ifuKuiy8/9JERFxBERAREQEREBERAREQEREBERAREQEREBERAXn0uzzjnnkvQV568DUXd+Vo6f5RVSu/FbrdxfSW6WL+rzM3djk7OwWbvxU+j4tpbRDGx8UrQ6SQ/RHh8Vo8V2mqq+JWVcUeplPC6Zu3OQcgomjtN0mNHUVkB61PUmRx72tI5Lr5HogudG5ofDUMdESWtOeZHMLX9fW01PVxVR6vHPf4KjRMqzS0lDHb5g6Oplc/B7j3rXfR1MEx9VUnRzvcGvjnGsjzBU91g9Aff7c2pFOalmvOnnyd4FbIulCIi/rDMaiwknbPgFTKON1KHUNTbDNVunBc8AZcPrg+C0HMq204t7aCR0vXXP+Efc5O+i2UHEkMkc5rpGROa7DN8Bwyt4X23CkkqZahoY1wa7B9jPiqHLS11M2A9VBpXPIke9udC0o7VVS013pzTSgS1kD2NJ9po5/Yo3segt4hpzX4dU05ouj1hzT2j5/BbltutHcJHR087JJDya07geKqN+tRN+Bbb3uoRRmMNiw3SfBdnAkdZT3CpDIYhRtiADtHbz9XKtBe9yCAAG+J5qJhLf6e24DUR0Lxsk9yqYqljPV0zov+0BGFWLzfZIeLaF1NKyCTonDttyuHUZfq6cc3XsEhOoDIIHce5Q1y4eoq2YzsYYKg85GbEqkniC6SnEVfTuf34YuT668Pbl9W0fqjC8n1PLdj0+1lqeEo6ieCV1bVZhzjLuWVKWiyUNrIdA0GbHbf3uVEbW3cB2mtHdzBXcLxfmB/Q1dMT3ZZlW9bZ+LqLdxoYjwzcOlBaejIaqRbTm3Uzhtlgbj/VRt9vV+uMtJbaqpp3anh8mhmOwpiNukABpw1ukEclwzu2/ouO4Ty5IiLk3sjbOO9adxf1VsdcPbpnBzftOFtroroBU0z4i0uB3x8N1fC6yc+XHuwsX+ut1PeKCnbUxjU9gc1xHJV2r4Pm1COmncGCUPc4HfZaFo43nNshc60VE+nLG6Xgctl3R8fVQ1Ndw5Wt08yZButPqPDy4L3LXarbDbWy6TJLVO7Rldzx4KTewtDdQznfDVQ2cf1DT+b9Wcj645LLuP6hoGOHa0Dx6QbpeQvDlL4S9adHFlCHHctdg/wDurE4vDHBxY4+S8oruIrlcuIaSWkonW4hjt6jDsrfjvF8c8aqynOR3Mwo70zh5L8LdV8N0c8wmgDqaZxy58exK06vhVlW5nWK2qcxp3DnbFVl1xvErnh1U3b6uyw2tu4a7o6xrj4EZT1dLzpsv+S/262U1tYXUzdUzvykjubvDKp3GLnHjGlAwSaQn/Na5vd/awhlVTDPizKhI6+43Hihstwkil6GAx/im6e9Vy5Nx04OG45JrIIHcVhG4xlvZHg7cos993rSCyBs4jbGywe74rOCXOaPpHKRbPzNN/gVwjvFZSMIaej6UDzJVlvVnpLuxjKpumoZnQ9vMZVCtlzbZuIZqqWMvEsQiaB4hWKfjV0eDHZ6ic9xa4BaMM9R4nUcd766hwlUwup46SR8MUIIa4HGxVntFtitkJDHdJK46nOPefFVP+ntUCR/R6tIPP8YNlxHH1UHYbwzW48ekCv6m3H0avZae/bJzlVelcP6c1oLX40twe4bKJPpAqWv/ADbrZM/REgVd/pJdaziaeelpjbS4Dsz9r7lHetOLk9pHr7262lp3Y3mfFQc/DlJJM6oo5DSvO7jGcZVUN54hcTqraY+OI8BcRdb3j/bKfHf2FF5Fp0/JfhOng5k1dJLUVlQWyNAfk+0FYLTbKS200zaUN1vwHuPM4VC9a3luHMq4nfFq5SXziNoDYqmkbnxjyreqrelu3bxw8Hi+1sAa4dWdjy3XXydg+Gyhoauuut+6a4SwyupWmP8AFN081MA7OLdhnGHbrPnd16vTY3HHTCIsqjVixns573FSvARENdV0oBy7MgA+9RI5hvhuuq03hlr4nmkkY57X04ADTjfK6YXVY+px7savd7sNHc3skmaWVjPYlbzCr7uEK0TUoZUtiipshhjO+Dzyu53Gbo2ExWyeR36wWnJx7WMJ/s5Wlp5npAu/qvL9KrZa6BlthcyPBLzqefE+K3d8dnOPrdyojeP6kjscN1pH7QLA4/qWH82q5zT9ESBR3npZfCVtJI9IfEB9odXi9lWiVoLcEAsd7QPevHaLiC51XGV7qaOH1fmGPsTdpTZvd+kz0lVTb+DE9RM6fkvwtlRw1SPnEtI99Pvk9FstKXhBlTcX1VRWVTn6A3LjzHgq0bhei7BqW7/VC5R1131nXWAdwzlR6q/4uev2egW62UttAjpIwwHmQOaoFcAOJ7s4Oa3U9uQe/Zcm3riECMMqqfTkjJYou11FZUXW6PuMsEj9bfYZjuVc8tx26ThuOSUx2iXfZpWFk+zl2W77LCzvVos4zhzeaxnCyOy4+ATH3Tl5xTPo6k10tzGCcVJ2Cmb1YoLmRNKBFUtGGyciqXYr2yw3SamMbpOmaZcNOFMT8ayM7TLNUTjyeFqwz1NPD5uO3Lwf0Wqw6BsdR0ccRO7D7WfFWm3UcdvpwxuM9/mqY70gVI3/AKOVmD4SBYHpAqD/APTdb/ECt6jn6VX8E4Jxt4Kr2Y44uuQwWjom/eok+kGpx2uGK53dgSAKu0d/u9ZxNcJaWIW8dC38XONR+ajvTOPO+0eu6GuzkjTyIPMqGn4ao5Z+npHupj9Lotsqmetr67Z1XAPEaFxfV3hxBFW3HfpBCeotOn5L8LRJwjDPWmolrqrUG43d3eCnbfb6e2w9BRRNazmTjme8rzc1l2YHF1YBttnK7heb/GwmOsp9OBzZlV9bat6ay+Uhx7GP6Q2hwLQQ1+CVp89zuT3tUBdrldqriC0ivlgkGl/sswp4AaRjbZcs8tvU6XHtgmx9rYIs/Bc2ve66ahx6pNpxgMd7XwVz4NcDwra8nOqLOG/FU2sGaaZoGSWEYHwW5w3xSaOw0tK23yyugbo7JAXbjunndZx23wt99stNc9MlS3RK0Ya9vMKty8JVL5YNNVIyCMkjQdz8V1S8e1THYbw7WOHiZAsDj6oP/wBO1rfjIF29Vg9Dk+lyt9DFb6YRQh3n5racQGglrtgqO3jyTvsVXn9cIeOZXA/8h1h8ukCi8iZw5z3jY9IxGi1bbGbu+C2oRiJnPkOaqHFPE8t1ktURtk1Nib2nuB7lb4fyTMu1bDdel0+W2Pmx1XNERbHEQ7jB5IiDHeT481kbOyOeMZREA781jAxjuWUUh/8A8WAAOQWUUJPp6vpeKDbkiIHeiIoG9Y/72p/ifuKuipdj/van+J+4q6LLz/0kREXEEREBERAREQEREBERAREQEREBERAREQEREBefO9o/Er0FefHd5A5klaOD5RXEjY4xnxWCWYB2DgPaOwC5HvGcFQfHDnjheufCcOEWkHvytVngSrqimBL2ywg8i4OGQuwdAX6mvjOvfVgLzmhtERurIyXCJ1K17jn6WnK6bDcZI/VPW5iyExTgl5xkgnC5zLXuPSjJC0PeXR6m9nW4gI50LYmza4ng/SJA+xeZ26qNfcqenuc2i2uGovJwC/Oy2j1N9dHRSVDjbGzkiR5w0n6ufBT3wehudAGZeYuh55JGFjpacNMhkh6M7ZyMfNeaTySvElHSTMkoGuOjpX4Y/wARla7Lg2VrreI4dTXDsOfiEf8AEq27HquuJzDocwge07O2lYgdDI3VDJGWA4BZj/NeSxXK5R2aqhgdC7/lNsThr7AjxuAfBWfg6KqjvVWwdWjpDGNEVPJrYXZ55VpRdgdRAdnbxCqV/pKqo4xtrKKkjnPV38yArcTkjtl5xyPJRUALeO7YdIH4h+4K4dRhvF047qoT+jd5bNr9VsDuZxKu2S0cRCQdHbW4/ahenHDnEkfasFjea8i4eW7HnuLziK03547dA398Lk+3XWBjnPoAGtGS7XyC9Ha4Y2Wpd3OFqrSACRC7HyT09LXqbctPJrHqqJqqsnGXiQxD4KbwNbi09nC0bLpFAx5HtjtDzW8RnDW7Y5rjnNPW47+ssYWQQOawhAOM+Ko7G558l1zysihk1HDdJyV2kFzx3ALS6KW8XFlupWczmRx+iFbCbrlzZzHC1o2KSWO1Ma6OVxDnEDQR3rcbPXuIDKCQh3fkr1Clp2Q0scIwNIxsPBc2ho2xpx4Bd+x5PreXnMNJdZBllv8Am/C7Rbb07GqgAH7ReiD7CuMmcDYYz3J2KZc2Vuo8lrKK8i80kMdCC7S7/pFIss/ELic2xm3f0oVpquzxnQhvLo3H/JWHJO52cp7Cc3JHmnqjiUOI9WMx+1C7haL83f1eweP4wL0TU5xwNllrQG6WtAcVF49pvU5/8nmlRT3SnaXy0ONO5IdnChuG3dJNXSztIfJNkL1DiSqjobPUvkeATG5oJ5ZI2C88sMb2WuAzt/Gv3d4hUyx1Gzp8+5I7tJzyPJYQggdrc5RcXoiysIph7oa/SBlZbBg5dNjYZzspAzOA1dHLqb+iVmQAXa1yOOGxzZK9NZ0Lg1zW+0PBdscdx5vU8kw5NPKet1pa0w0sr9XPIIwu+Bt1lPZoHfa7C9PDMYGBju2XLSMew0q3Yz/kyfDzYUV2Dw427/8AuKGgo7tNxHUMioBrAHORexADvjbjwCqlGMcdV4aMANbj5K3Y53mzt3FfdaOI85FsYc/70LLLRxGedsZ/FC9JySMnmUDyq3BadRyR5062XqJjnvtjQcY2kytCrNwp2hzqNwLQSe9eqtBfIAXH4KF4prmW6xVNScEu/Fjbx2Ts0vhz3KvNOFSZuv1ekgVMmsfYp8nLWnyWlZ6aSloIojjYHP2rcxsAeYWfP3epxewshYWQq7dGM5w7wUJdTHT3Onnl1Yld0Yw3KmyPxYHiuh7gLzZ2EAtdUAHK6Y+a5c+seO5OMkuC3oopXY/QK121FYWhraOZ+/fleshkbX40gfALJAHs4Pjlq7djyvyI8wp4bpIfxdCftdhbLqC8BhLqAE/tF6KWg/RaVljQ0gFoDcqZgi9Rb/Lx2gobvLxZeGRULdbYY9i9S4tHEXI2xhPj0gU/aWj/AOIvEYbsBTxYVtG7jnmlwVnUckeZttPEgdta2fxQu82m+hzS62s8/wAYF6MQc7YWM4bqLW5+Kica35Wf/J5hVQ3aCne6SgwIwTkOUZw041NB1x4xJK4kj4Feh8c15oOHKlzHYldhoaOZyVTLfAyno2sYMBnd8d1XKabOk5O6tkkkB3isLJG+c7LC4vQvsEZGEG5PxTkg2aT35UY+6Z5iGlc0cSkvDiOgxs3Pet90h05jimOP0SFuWpwpuJaebSHdI3o916OWjpdIaAMdwXfHHceT1HLOPPteSuqK17vxVHKR5ghbcEF0mA00R+12F6boGBk/5BciG49lpVuxw/IjzgW28HGaDbnnpFDUdDeajiSvZBQt1Nhb9NewN2a7sAfBVmw4Zxdcsc+ib96nsV9bO3cVyKy8QPbmSgZq/aBcHWriNr9LLezH7QL0wNDs5bus9kHGkJ2LTqOSPNRZ+ICO3QN+GsI62XiMdu3A/wDGvSsloJyMLrqZGxwvllw1rQTkqPST+RbfLxd4mk4ro2zUxY+ma4SDPLPJWMcxk4BGcKNt87rnc7hc8uaKh2ACOWnZSI3YAeY2yuWc09PpvM8iy3msLIznZc60Sarg8a4XgnGyirRPoZUM6KTDX41NBKl9LcHVnOVOej8teLkNDezNjOPJdsPLH1eVnmKtJUT/APRU0r/iCEidcpsiO2O28X4Xq5YPqt+S4uY3GzGq/Y8/1uR5xBRXeRu1uA/412C03rfFuaTjn0q9CYP0QFnRuXYBwkwPWz+XkHEVHc6aqtfW6YRt6b62VeotomY8AtX0jDItRIA/Hf6Lah/JM+C9Pp8dRh5st1zREW1wEREBERAREQEREBEREiIiDesf97U/xP3FXRUux/3tT/E/cVdFk5/6SIiLiCIiAiIgIiICIiAiIgIiICIiAiIgIiICIiAvPZATJsQ3JOD4L0JeO3u9SU9dHb6SnM0kuS46gNOPitHBdbRVgyR4HGxPiuE8UU0UkdRG18TxgtURaL0KmOSOvhNM6GQRDUfbJXbe7zBaqd7yNUrNywnu8Vo7xvR00DJN4W6w3AdjuXRLZrdNTsp5aJjhFkxnT3Hmum3XqhrKXXFOHYGp55Yz3I+/20ZzWNHR7FPGXuO11otslM2F1HEYm9oNcNgVl9qoHU/Qvo6d9O3t6dPeu2OupZmxmCVrhKNTd+fkuM1ypIqeSZ8jWRRnS4+fgmsRx9T0DqVtOKSn6tzDdPIrgbJbOi6DqNP0f6q5MutC+iNU2pZ1cc3eH2Liy8UJpHVLahppgcF+O9NYgyyW2KB0LKSLoScljW7Fd9DbqWiH9Sp2QDwAwuqO60MlK6oZO3om7F/LC7KCvpq6IyUs3TNGxxsnbiNsDLskYUXAP7c239g9SYzq2Ci4D/bm2D/cSLh1H8rcfuux2XEOwuRB8FjA715Xy2Y+zLVxqIRPBJC44EjS0n4rkNln7VGKPavI7eTSXG40Mo7UMhEbO9zfrKTdnDHuOM7YH+ql+NuF5LhOy6Wp3R3CEYI7pG+CrTa59O0m6wPpZuRa4Zz57LlyY7r1em6nWOq3kOMHx7viox1+tzPand+4Vxj4gtksjWRzOc/uGgrnlh5apz4SN+pn6rSSTe05re0FZ+BLYaK1dPKNVRUEv19+k7gKt2+01l9rmdJC6Cia7U555SDwXpMMIhiZHHtG0BrQu+E1Hm9TyzLxHPGywAuTsAbozBBVmNwTucsuIz5pjZymIqvVX53UP6jlYMKvVZ/tdQ/qOVhznYKaiACZLnAM2c3mU3CObjcbE8z5KImzdUL0n1fTsorRD7c7xLn9UrUY3Qum6S+sOMKrI7FB2I3/AFsjdbHxWfO+XrdLjqBOVhZOO5YXNtuWhEWRu4tHMJoa1UA6SFveXbL0ukH9UiL+ZaAvNmjXe7S3mwzdvyGF6c0ZLm8mtGy08f8ALyOrv/srDfad4LJ3WGZdG0+K5cua6MlrjnSQqtRku45rP1W/crUR2255Kr04A43rMb9lv3IqtBbhcfaXJpyN0dgclCQAhrnN9sjA8lRfSNUiart1qj3ZKS+UeBG4V6ccF2dst+S8smm9YcVXOpJzF2Wwu+HPCryXw78GFyy22wMADwREWd7l9oIiKmSu95M6lqzjN3s2PeR9y2w3I25rqt7Os3+iib2nQyCRw8B4rpxzzHLq7/669MdsQVnORlZaQSf8ljBGy0vEYwsnuWTjC4A5dhSKtZxj0hX79hErYqpaSP8A4g379hErTnCUcwVjslxc72R96DdcXjETz3YPzUQigcaVBrL7FQtORTduXzB5LVWpRzOq6mrrXHVIXlhPiAVtrhnXsdFj2QREXJq+RERB1OfouVrPjUtC9OeS1+RleWVh01tsf9FtS0k+AXqYeHNYTydyPitHH7PI63/6MHxKysP8PBArsOnIDYfFVazbcXXT9k371aTnIwqxZxni25+cTfvVoss+chcMbrI5rJChDGNu038X/qqT6S7q6KggtUD8VVc7Q0A+yBvlXfOmMOc4aWnOF482d194rrrrJvDEeih8GuacFVyuo7cGHdkk6SFtLA2Fo3wM/FdzwHNDR3IXYHLJWPMcys+V293X6yCz3rCFVqb7s94Uz6OzkXYf/nH+ihwC7OO7mpT0cvHSXZpO/T5/yXXj92HrPZdsri7msLJWh5bihOMjyWcJjIOfBRUVT/SLvDav23+i2ohiJn6oWr6RtobV+3x/ktqH8iz9UL0en9mbkc0RYJwMlbXJlExumDnHeo0CIN26hyWM7kd4UyDKLHes95HeE0CLHcD48lnHZJ7hzVbARMbZTw8+SaSImNj5LGRlo73ck3ob9j/vWn/WP3FXRUyyAi704PPUfuKuay8/9JERFxBERAREQEREBERAREQEREBERAREQEREBERAXhHGTLfNeo23Wkma056CphJ+3IC93Xnj2Mc7LmNIBPYI2Xfgm9oryyR1c62CN0k01JT18ckbjGWubEOY81x4lq23S73Oqjin6p1MNB0HJ35Y8V6qGtDNJAcDucjksBjAMNiYBnJ2WjtHmdY5tzFCbPHMwU8TROCwt1DGF301sjF1sMbqZ/QdBNqznY+a9EDGjJa1o1e0AFzfpL3O0jLuZTtHl9Nrtl0E88c4pmThg0tLv8l0008r2R1bxOaUXWR0gLDnRjnheqFo204B58u9ZDWDbSCHbuJCdg84uDqOe40tXTUczbU15M4wcu8Oyte5NbWOuk9K+alonTRljhGTy8l6e1rGt0aGkd7sbrj0bGsAZG0tB9gjYp2Dyh9VI61ua6mmla2saTUhpHd7WnwU3wPNL/SavzVTTNMALHuhLBz5YV9LW4w1jQwndmNgPBZ0NBOns7YBA3CdgjZKevLiYZ9DT3YyoiOnuLuNbaG1Xa6vJ9FWtmAck4A5lVa4XeltXHFBJO8kMgeDp3wuHUeMVuKbvha3Ut7Ddq0Y8NIUla2VTGf1qbUfgoVnGlpLA8GUl2+AN1xdxtQDYQVh/VjXld023zDLXmLScfFByOAqdLx3Rt5Udd/CXBvHcJ9mmqh4ZjUbheLO/C5jTjfLXLg+BkhzJHG8eLmgqnP46YN30s58tCDjykGC+jq/gI03Ezjznwt/Vab3aE//AIYQUdOTtSwA+OgBVqLjigeMmmrG/GNdn9Mra4bx1Q+LE/VWY5rO1oaMEho8AFnJB7LcjxVUfxrbRsKeqPwYul3HdIwHRS15H7JNw9LK3a4ubqwdWCuJOO/P2Kl/02fMD1Okk1d3Stwug8UcRasx0FA9vm8p3RPpZ/S95Lh4JkiMjOSqAOKeInv/ABtBQNYOeJCtqLi+qa09JTRg+DDlJlPtF4s/pJ1ocOMLfh22hysRGHErzqHidjuJqOetjMcYa4b7K3jiS1PAxVxDyLgp7pVZhl9JbK4VH+zygHtBjj/ko9t8tnv0A/4wsVF5tnQSOFfTlxYRgPGeSbi0xu3nHD4M1C6rkP46V7tX2FSijrBg2tpZ2gXuII5c1IrNm9rgx1iIiKjrrdZBwQQMriQCTk4e4/5LJz3JIWxsM3Mt5LpEZ3U8Nvg6BtTxDVVbwTTQxhrP1wd1fWvyS8bB3kvKuEr3cLfR1LGQRPa+dzgSe4qwxcX1Q7M9M0AfV3XbHKSPI58M8s7dLo0AdknlyWSGg53wqSOOoWuOulqMj6rMrsHH9K4dqjqwP2avuM948vpcnOBLdPJVWlJ/pvWbfRb9y1Xce0II/qlb9kSg6PjGj/pXVVBp6vQ5owOj35JuI7Mvp6YG95ysnCp7uPKPVtSVuP2a7I+OaE+1S1v8NRuL+ln9LNcJeipHv7w07/YvLeHmOFuc6T8r0ryfhlWe+cXW6os8zITI2cjk4YUBa3tkpA+PcHmqclbuiw1/TaREWZ6OPv5FkLCyFKdTe2N+Q5qQ4DhNXd6u4MaCyNvVznxCjKiToYpZXHAYwkrZ4U4ittqtLmlssjpnGVwY3JyV2w1GDq7llNSPQi52rcALOWg7kuPcqO/jOarBZarflw75wWhRc3GN7iLm1cNDTAd7ZOa690ed6Wf09OOojbGFjJa0AO7OdxjdeWt4tneNRrqYHw6Rd8HFlzw51GaSokxsDIndEenl9LDZA0+kPiA76erxc1aABzC8v4X4imHFt8kvbY4JnQx46M5CuLuLbUAPx2c+Cne0dtWDVhR3EVWaKxVU4O7GZUaeL7UCB0jj9ig+M+LbdPwxcY4xMS6PSOz3qvdE44ZbnhE2hobRFw+mS/5rcWhYpRLaIHNyctC31nz8vdw1MZoREVXSiIiIa9cPxQf9Q6l6PbHdNbKWQ89AK83ubgy3VLnHAawknwV2sN3tzrVSMbW05cIm5GsZ5Lvx3w8vrMbc9pznlY71pm62/SXGtp2jzeFrTcQWuJpca2F2O5rgSujDMaluQ+xVuyD+1tx/ZNXRNxtbQ4iNlRLgfQZlQnD3FdA/ievkf0sIdE0ASDB5q0qbjfp6Mdh5rDTkqGbxLbHHBqWNPgSu4X22YyK2Af8AEFW1XVdfF9WaHh24TMOHNiJb8V5/YacU9qj+tJ+NPxcprj+8Us9NRU1PUxSCeYMcGuzstKFmhoZy0jAz4KnJZrw9HocftyREWaX7enJ5EOyISRyU1F9x2+XtOBkZUjwOSy8VbMYa/LlHDGkN5ZPeo43yey8TR9E6mEboT+WfpC6YMfV42zw9Z3z2cLmA5o5hedt9IDWflupH9STK7W+kmhG34rPg05WjceX2ZfS/EnvOFxwCeZKo0XpFo5XYZDI79VuV3N4+gAIbR1Px6NRcoenn9O30itLYbT/iP9FtR/kmfAKo8WcWxXWS1QMgna4VGSXMwOSt0eOjZg57IXpdNdzwycss93JdbqmJrwySoiBOwbqGfkuw9kjK8lvczjc7jUMhp2uhnIEjnkP+wLXlXF6oaqma465og9v1nhpx8FxlqYYopZHTRNeG6u28NyB4LzR1IK+krp6tr5JOrtdHIfaBz3LYhjpqqsuH9Ijrp46ZopBKcdrTvhV3RcIuIKeaz01fEOzO8M0DnzxlSxqIHEsbUR6hsQHDV8l5rwcH1NioursLuq00o35tfk6V2QspW0lqnp9746oBqMHt578jwUzKj0eKpie4RQzRulbuRkZx4LiaiASOjM0THs7nvAKqXo/omvjr62rBNV1p4J7+ai7gLdPxfxM66PD5Y4o+rNccYOO5O6j0J9RBG8ufNG0k/ScAPsXLrEMZbIZImPO41PGHDyXmlmAmjo2cSOIYIHkCQ4HPb7VrTxzzQsbK1sjY5NVOypdpiEfccqttS9GrbpT07mukLRC8nU7UuqmvdHUTU76WRnRVOQ0l3LCoJc64U1FHJCRE6V7X49kYHd5LjSUUUgsdPSDsFs57J3BHJN0eqlzQdLpGB2NXPmFxbUxzFwinic7HshwJH2LzShnr7nSz1LS9k1BSyQvb4v7iF18Ox1T6i0zCKlinJb1h8MhMkg79Y7lHkev2LHrWmx4n7irqqZZDm7U+wHaOw+BVzXDm/pIiIuQIiICIiAiIgIiICIiAiIgIiICIiAiIgIiIC89d7R+JXoS8+d7R+JWjp/lFYREWlAiIgIiICIiAiIg1rjO2moJpn+y0YPxPJefVtI2K+2ySuBe+WF7n/HuV34jOLU8kZbkZHjuqzfzJ64tGIxJinfsFl6r+WnpZ+yPuFyo6YtEDYw4eIXWy+yvA0zQs+xds1RODqFmEmPFwXBlVUyDJsTW4/SavF+Xr2eHcLhcHDaso/tBXW+W7vIMdZQfIrLX1UgObNj4SNWtOaprtrNIfhMEMbW04XgDV1qjLvDdGuvYGXTUee7ZaAfVhr3NslQXHl+PGy07bHdzUPdWW6V0OfZEoBCFqZMt5z2quiaPMFa81ZXxn8bcLcB5grdhjbpy6gkZ+tKCu7pYGbOoY3frYKHahzdqhn/8ANba37Cnrup5eurd9mVNMmoX+3SUzfiwFdNfUUNNCZIrfTVDh9BrAChrXlEeuZs73Wgd81zF1m0km60TR9q7mXmmfEHycPsj+wLvZXUchaTbImZHe0FNJ7mk26SSYEN1onHvzldjrjVtDSK+3Y7yAcrdLY543Rww0wLvCEDC06Cx19KXDpaZzCSQHRZwp0d326p7nRSXGhFZVwynS7IYpGoqrWWjoHUoH6Q3VbuE7oLzSskmpg4B3KnW/FUvxtUU//wCrqZI54WWu+Sut7R25KMfYudLXWiQObIaXXg4LR5LrgqItf4+SmePKnUnT1FBK18Zgia8N5iLCZK6ly8O3hbAscJYS6PJxp+KllD8MM6OkfTjP4lx35Zyphcq9PivgREVYuyNlqXRxZbqt47oiQtsd61Lv2rTUN8GEHzUoz9mrQvjjttM57tGpodnxK062ar1aqeopgz9JbMFYYrZA1lA6pIjGwK1WVcz8/wBnp/iZRhTPdlzjVNwnyBLXUjR3kZWOvUZOHXyLV9XUVJCoOj8ZYg1ve5zhsgZGRr9VQBp5O0Aq9rhpovkJHSUla6cf7s7KAguFwZxBNpp5nHAVtmEsUZkiijgI/Q2+SqPryRt7n6S4wNcANuhKtPZzz91ro7vVtH46jn1HngLm+5TufkUlThQ9PxG1uOlucRP7IrYbxRTh395wny6IqrpuzFsVEsk/ZfQlod36VI8OvD7dG5vZGSFpw8QUMsbWvqmPcc8m+S7uFXNNoiAOcvec/aortwpdERc62X2FkbrCJEz2a1zxJQVbQN9B5rXs8TWWmEhkQeGDBHP7Vs3He31jHcujO4+CrtusNBUUMMj56priwZAlIV4y8nit+e3S1jnOrLhJABybTP0qMNJLFI5hjdVxn2XTdorpqbZBDJ0UNvrZ/wBPrWF2R2uNpBFurQRzzVZVnHezq7AcerqcHxLV3GQ0w0xGip38924XdFbnu9lskX678rvhgjpY3CpfE8nlqAJChVVG3J7uI7m6S5W1xMTByP8AkpHppntHQ1drefJpWlCXDiK5xxTUONDDvACpBz5ICCyppQ888U66y+HK4eUhQyjoT1h9GZP0Qu+5UrZLPUNcwHW3Ow2UOKyRxDut0+rPIQKVoaoyF0U1S2TUOQYQuVdscdtrhZ5Noj0cmktx8FLKJ4WaWWrDuyDI7B+1SyrWzjmhERVdBERBp3kF1qq2hurVGQQoqmmtNHS05qpaamdoA3GCpi5jNvqP1Cq9TObNTxCQU79J+mwFWl0y8s3W2LhYHNOqrgcPE961am42GMDoJ6bPmFmake5x6J1E0HkDCF309M9rNM/Ufj0IV+/bh6Ma7OIKOA/iqyii254KiaW900t6qjJV0UoLB2sFTctM1pOX0OnHIwgqJoGxMvNTh1JjQNhAFbu8K3Hzpt+tbcG561QO83A5XU69W/vmoD/wlS7Ki15DJYKcynwgwF3a7Y3INNTD4xBVuS04ZUHUN6artkoijbEZg5rwNj5hXRziTFhzHbnKrl2rKcyW5sTmaWTgkAYAHgrESMAgAE7jHcosaOHGSsnmsIi51rtFkcwsLIODulUvuxsdJcoC40tNU8SRdNAyZopydLxkKwDZwaPmoOrkcL8x7Gay2ItwDhXxc+ZqOit/SFnqRzfMNGFxMFMCeitDR56Qtqrgp6wE1rKho/QlwotlLZpJHRRVNUS3mOmOyttjtxb0Es1Ocw0DWfYtptwrC3MtK7Gfo8lHPs9LoxC2rk//AEjC5MtbI2AOpasAn3nKjL2TjlPhyuVbNJXW0CmcG9NzIXpMW0TMDGwXnVbRimntrmOe0Gb2XOyvRojmJhPgF63Sezyuq93MDPNaUlot8kznvoopC/2nFvet7KxgFh15Dc8geZW7TI1xR07Rp6KIYGMY2wuurtlDVaI6qnimbHu12P8AIKu32ouE/ErbdTVDYYRGHnLck/aom23i5XKG1Uck7I3zyyse7GMhp2UaF+pqanpWgx08VMx3tNYMfNdcduo453VTKOLpnnDJGN7XxJVCqrzdmNqqCKpY6anqo4OkIyHNdzXKpul0ous0rKkdI2XSx+Nm+Si+B6DFBFBGRCYmtJy4jvd35UPHw7R+va26TxR1BqA3RqGdJCqdVdLtHdTbpXtc5kDZ9TRgOJXbb7rdrsKCnqJmUpk19I7HtaeWFGxcrhDbHmKO4RRTF/sbZ3XdPb6SaJsE8EckbRtG4Z0+S84dfq+n606d8cxpnfi3BvPCl4rjcYha7oKyN8lY8GWLHstPd8VG0rmKOmbEBHBG3SMNaBsFiGhpI3tNNTxNnjBxoGMZ5rz6mud2dZqq8Oq2gQ1b2tZp5Nzjdcb5xDXxVLp6Wpa/Q6MNa0Y0h3PPio2PQqR1EZZoYhBHId5Q0cz4FYpbdRUskkkFNHDK/YyYwq3w3J03EdYc4BOQDvg4Vxc7OsjB20kLpPZDcsmfW1Nkg7ncd+xV0VLsf9602PE/cVdFm5/6SIiLiCIiAiIgIiICIiAiIgIiICIiAiIgIiICIiAvPne0fiV6CvPne0fiVo4PlFYREWlAiIgIiICIiAiIgjeIiRaJc405H3qr8RSNjvNqdG1xPV38laOIsC0Sl3LIx81Xb1IIr3aXvdhnV39ruCy9V/Lv0tvchXRtedRoXuc7cnWRlcTT6edvfj9oVzq5KKolLjxEITn2GvGAuANGSAeJnEfrheJvy9m70zG0OlDDQPA/aFS4tVJ0YJpnAn/eFRDoaJ/s8TE/B4XDqkLjtxHUux4EKV8cdN6opKiFxFHQdIPOQhaQirtZMtqYB34nKwYHsOY75WyeTcFco6noN5HV85HfoyURcXeylleMmgaPjMuqanc0YNFEB4mZcPWzNXbo7oR5RLsbW0kxw63Vzm/px4RXda7aenedMnRQn9rlH2KmlGReo4PDtA5WwaSkmaXNtLD+0BC13UVvIIfaoNQ+OyI3vwy+wkFrXcQZb3YYCup9qmimyy9yEDkREF2sbBGR0VHAzHiSux9XM0ObFFBqI2IPJR5TqNbpKyB2GXyZ/iOrhcjV1YLc3qZoPhAtW2Pq6SrkfUyxyB30HnYKS6+3AD20unOcalO6TV8NJ7qp10pOjuheS13adAFMClunRBwvOAe7q7VDz12btRaWQBul3IqxOq2dXHRFpcByJ2Tyccw2izHcGPOq+/8A+OFh/XGyiSS9ula7bHQALmamVziZKeEjyK5tkcWnRTMcT3eCrL9psxl8M8NVPWLtc4nPLwwt0nGM7KxKp0dTLS8R08bqcxMnaS9wHf3K2A7uB5hRY08WUoiBFWNGgnC1LwMWqpP6BW4Oey1bsNVBVMGT+LJHxUqZ3w6rc/8A5PptOx0DJwo65NmbNqbcpIm+AZlbdK2V9qg6u7S8MAPxURLUVQkML6m3dL4PkwnyzXKNeth69EYpbzUaO8dFhcIo5qCJkUN8qGRDuEGpbL56gDTJNa245gy811NneDjr1vaPBsqttySENfhn46tkn25mPChoZLfPepi9pB23LFJ2+eBkx6aenlB/7N2VrwzUb73OcAgAbd5VpfCMpK3I4qAZLWsf/wAIXB9DaZgXSRtB8gux1TSGN/R0MjXn6Rata2yRRzEzgafByi1Nks0CitELm6Q7V3dlbnDEzekqqZjyGQkEDHitoVVsDQXyQDJ+tyUfw3LEeJLsIpGPjkDMYPLZK6cV7b5WZERUsbL7CHzRYPJQT2dNyz1GpDBklhH+SqNJUTMp2sljfoG3ZGVc5ma45GN7wq7HSOq6WbTWTUpiecuixk+StGXlm/ZGOjpXSazDUucfJwWzFFpdrZRy7eLis0lvfOwlt8r9iQRgLTc2Vr3NbcL5lvf0QwVdn9kya2tlj6KK3F3d2nFq0ZqCuD/x1oiOd89YWsHVTxhlwubnDukYAubHVwH+0PcPB6RO/DRtlOW8TXTMEMJETOcmVOGrq6eGSOnZSvc4EBznjZQVC0N4huj56VkjjEznlSLo4nlgFthLSDs7OFO1duu1Vl3pKeQTw2+o1HYmdowpajrrhI/ekoyNP0JgSFDer4WnsWahxnkHHdb9HR1FONdJaqOIu57nZL5TLYlOF9TrUHPADulfsDnvUsoThN7eouZpaS17idO+DlTa52t3HvQiIqulEREGtc8erqjPLQVVrf1AsjD6WVzs8xlWW9O0WmrdnAbGST4Kv240jaON8V83LQ4tDhsVaezNyXWSRnt8Jia6lpTITza5xGFpyQGnZmopIYh4Pnwu90MbgX+upge45GyjLnZrRc2D1nfBK4fWeMqcdOWXdfZ3sjjmBdBb2vGPajlLh811Wo1EF3qSyijb+LHtOXXSW2jtVOIrTeaoQk5cyLBC0aKuEF6qhNHc6loYN+jyr+HPWU91rdcaokB0FMXdzS4DH2oarNPIJuquqMdmPpAB81GGtt8mHPtVc4+BiOVw6aykl0lhqy4/SMRVfC27JtrVMFZUxPidbaSMyDAe2oBwfFTnDVeZYHUdUwMrIgGnBzlo5FRoqrW3PR2iuzjAHRFaNzuIgdBV0FvuEE8bu0XRYDx4FW0njzsvlfEXXSTNqKVkzT7QB+1duN1zs0343unhhCizzKrfJffZ9InvCgYIhU3SpL3EBh05CnhjJDjhx5KBoKuGGouQnkY13S45+St8OPJZa2n2xgae0XtPctOHhygZJJK2LL3c+0QtKqrpopSYuvSMPfGzIWsaxz35cbxvzDIs4SM+eOLaqrRNrxT0WoftSFzpqC4wYDbczBPfMSo+OsLy8CW9sx/uk6XUNRrL9gf7oK1vhXHGT2TFyFUaq2CemZHiXufleiR46NmPALyR8JfWWubrlwcDPjTUNwvWojmJnZ07DZet0ns8rqvdzWD2Q7pD3ZCytW5vLbfUOGrWIzgrd7Mbh6vglqxXgh0pboyFHycMUAoooGRlnRvc9jwd8uO6gOGuJH0zp4K4AU7BqZKeZd4LvHFF2lkp44qOB0r9bsOJ2aNwVHdEpqLhi3xQ9B0ReBIJHPzuXDku6Xh+gqKlz3R7k6zv9JVen4wuraGG4VlLTR0smQXMJ3OcLah4kuj4I6qWlpm0bpMamk6seKi2CYrLBSVcoqG4bOBoLgeQHJRHEdkli6lFbqFsj2B2X9JjTn/3URar7dKe3V9fHHDNQxzOLzIe2Gk9wVwv13fbrGbhBEHzEM7J5DVyUbgiOG+FYoIJHXGnAkkdkx6s6VJU/C1FDUiYdpjJNbGZ5O8VGN4or6Sr6vdqeJjnwOmjMZ9rHcsDiisoIKatvNLBFQ1IHROiJLsnxTeImjYbfHbpqJ0YbFNIZHDPMk5WnPwfbpw7EejWWl2/hyVfu13vM0VDUzQRR0ckztL2E50jllbEfGc74G1ELaOSiLxHgv8Axuc45J3YpW23WimoKh8sYw5/M+K32gN1Ad6pk/FdW28SU3R0sUDZWsBldhzge8K5Ah2C7O42I5FWn/SG/Y/71p/ifuKuipdkBF2p8+J+4q6LNz/0kREXEEREBERAREQEREBERAREQEREBERAREQEREBefO9o/Er0FefvGh+CdQOe0Fo4PlFcUXUyaKQPEUzZJGnBaPormJI3yCKN7XSgZc0HktPgckWQCSQBusBzc+Oe5PCKIslunHSnS4nIb4hcXFwDnmPDR9HKeBlFxa5rmZY8OPeB3LllocQ7ZpHZcngEXFjwQcAOI2ODyXIaTzdgt3xj2vJPAjeIcC0TF3LLft3VZvzdV6tYc3Uzq7/xX1lZeIXAWuTUcAkdn7VWb9UMp7zbHSu0s6BwzjJCy9V/LT0k/ZDyiiaXA8Mu279A3XGQ2yOAvdYHN/4ApCa/26HLJJ3gjmdJK6ZOI7VPEWGZzmnb8mV4fy9zXhpRPttQzVTWDIH1WhbbZKSNg/5CqAfIBddpqrRbw4Uss2HHJ1AlTEVxpZN2zYHmFG6dlaLLjHF7FjqfsAXM3uRo1epa8AeGFJCpjcCWTMx8V11tcylp+l6RrwOeHhN07K1o+Iah4w2z14b4nC4zXGeVpb1CuYfiF3Mmhr6fU6UtB7g/C1n01CxhL5pgPESEpuq6jVexz2kuhuO/c14XU2jiGCae45Pi8LZZLbY8tFRMR8StWsdbQwvE1QSOWHFTuouOm0KVkYBFFVO/WIXYXsZhvq2bJ7xhdMNNQVMbczVHL/tCFydZbc9oJlqfj0xTdRI3ITA7DZbecnvcAu+WihDcR0lPjn2mhRo4ctsrdp6k/wD45C4HhigDvylUT4CoJRfUadXTz+taPRDStbh30VuSQSnIkY0j/d7LVqeHaBt2omh0+jS7IM64zU1vpKjTHDVSEHH5Y7K8ccJ5dU0LIn4Fvukp/wB24LkymDsuNJdqYjB7TwpynhIhElNI6M/Vc7JXF/rgukENdC0kba2ZXNezygLyYYYWVEMtW+Zj2ntOzgd6uVJOyqggqGHLXtyq5Pbri6kmdV3WkLix2QIgM7KT4Wi6OwUbHSBxazmrX2deLxUt4nuzhE5dkDbmi5Rr2yBnvwuL+0zQBknYrljKDZxB5u5K0Vzm1fsnWZI6kEgBsrmtXbUWtzzqbTUL5vrObkrVhia24VNES8D8pse8rVmtdCZ9MrK0n67ZiFOmTKarefb5cASUFA53iWZXU60SHcUNvH/4a1X0NigP42prWuHcZHFYbV2Jh0tqKv7S5Wkc62PV9XHIDBDb4j46NlE6K6O+ynprc1+Bvp2UrHUWg7tqJ8eepRMVbaGXucOkedhzaVbSEhNWXTYC4Wzf9Eo6WvEfbq7Q4+bCsMrbC49p+gg83NICmaepthYzoXRvb46Mqli0qCldQVUGic0wkHMsbjJThyCnpb+5sDgelH3BWKMUU8nYiZn9TC0ZIxHxRSBkbQNLs4GO5Fp/SwIiKG34EIyiKEzyyDp047yq7TPbBHcI5c5fK5wx3BWIDYaeeVCljXcRyx4w10OcnkD4o454oOGLTrFNUanc8NO4Xe1tQAA59a4j6LXLeFsujpZnsulJG3kB0G4SKmv7JQ912pXs7sQYVozZSIyandrBFDecnm7WMKQp7HTyx63S1TJD3Petgi5GN7qurFQ3uawaVHut1M52qamqdR8KjCtFfhD+oq08SXMUtaAOjZ7blwNK9t0FJNd2GoaO1G1x2XZRW2mPE1zzSVBZ0TP+tKQNjtQqOsm3SdIfpdZGVbTnb5I7TNEMvkneM82OUrbpRSl5kiqw0txmU5HxWj0hpR/UYywj68wctWqnvVXQVTn19PE0jS2PSCSml4kuBWP9WzzO26WZ4AHkVY1qWmnZT0NOyIYGkF48Thba45e7fx+wiIoXEREEXxI4+rzCP+nPR/NRtPZ30sEcUVNb3nAyej3W9xLkxUYbII3GcAOIzujqW4CTPrOBurbOhXnsz8k/Z0S0twLw0Mt2nGwEf3rqfbntdqraW2aB3ti3Xe+kubdmXmnDh3mNa7o76x/99UTm+Dogkca5srLPTEiMwMOMYDe9RrrjRVFwrGCskjzG0ZjOFJdVur2ZFwthwc/kW81E0tFdXXyp03C3A6AfyTVZzy5PhPUFwo6eBkTK1z8d8hy5cquelqW9uslb+o7C5W6GaAEXGooqh/6DGtW5GIHAk9XHgMhVd5ZcUbTUNNM8dDcamTbk1+4WXWzAl6WtqZG4OGvflSWuMDDDA1x+q4BcHvYGOZrjB0nJ1g9yrjlU3GNDhKRzrPE157THuz81NuPaefE7KD4PeJbOZW/Se4H5qc5nSeYU5Vo4r4FkDO2ceawhONyqrfDEz9EXShuotGVD2yhiqDUVM0DXOnfraCpStGmkmaTkdG7GPgqrDbWVtDRF88rHtjztJpGMq0Zs1qYwxsLY/wAX5E7LQldcGSnRUQtHdj/VRYoXwt/FCWoA/wB6usPqiS00Rx+3GVeRwrldb3cbfMyIS05c/vIUra3Xed4krqmk6EtyGxggqJmbM8N12xri3kTM1bVDAZ3nrberjGzemBymXsjD3bN8YTWWzLhoE2fNXqAgws0h4GPpc15/eBGKm1xska4CXHtgr0KPPRMz4Ber0fs8zqvdyXVVRmopZYdQDnAgfBdqx9LPfjC32bYnnfFFiEvqu2U7iHPn1SvHgrS6x4rYJ86dERi2+GFMiNmou0NLvEjdc29knzUdsFRruGA7haO2NeXCDMg88HOFoWGx3SppoYqySOGkEnSdG4drH/sr44ahgo1oa4EDknbBV/6MNbw/cLbBKA2peXanc8ZzspO+Wn1hZW0TZOj/ACeT46VLHfuQbNI5g+KdsFfunDzbjcqepmk0mCmdAG+Oe9aMfCs9XFDS3eeOShg3haz2h+srd3YO6wAAouEFOfwxXTzQMnqh1GB5LImn2gVxh4JNPIaSFtN1FjxIH6fxhOc4yrpk6s96DbvKdkSp1x4VqKy4ulaacwulD/xgy9mO4K3wRiKOOJriWt2OVyBxjyWMDGB45U60N6wgC7QYDwNR9rnyKuqplkObtT58T9xVzWXn/pIiIuIIiICIiAiIgIiICIiAiIgIiICIiAiIgIiIC8+zqcGjZkZPPvXoK88e5peTh2nOw8V34ZvaK8ts1c618c8QVNTIfV5eScnZrsbBa9sqqm3XS+3IOc8PpesRNJ5AnZXC58GU9dFWwvne01dQKl32dy7pOFKWd0zeme1stIKT9UDvWjto66+/VMU1tAgaRPCHkau/TlQ9u4sq+kDp2nS8O/FyDSWEcseKlKfhFz6iGaavlcYW6GBx2aAMArg3hBs9TFU3CollMTXMYT357/sUaGBX3qloJq6pdHNF1Z0waXD8WR3DxWa++zdRtT2sw2ujbq35Ehd0HCr2Nlhqa6WWIwmINJ2we/4rqh4OAkpjPcJnxQANjGdmgePmo0jSDobvVUlvbC2V4LJJHF8Y1ux4EKQt/E1yukVlZSxtjfVte92/c04W3HwX1eaWSkrZInTZD8nmCtqw8KMtc9vkbUOe+ha9rGu+lqOSSp0aV919noaW6SQMkZIK3o3yMBe4be1pVn4duz6myOrK12sxuOSB2nN8SO4+S6JOGMSVj6WrmhmqKjp3P7j+it7hyxss1PKXvdNJNIXOc7lv3JqmkdVXFnEcrKGicTS5DpnkYc3G42WrxTFUHiC2vgjY8mFwDXHAwO9b15oI7Rm5W6NsUjXDpGN5TAnv+C6eJZ4orlQSuEkjOiJ/FjJz4Lh1X8O/Sf2hpZrjG7s2qmePrF43WWVj8f1ulhh/VwVma/xNGPVte4jmBGoe4V1PW7GhusJ/QiXh/L3N3SSffba3Ywzvx4QLoddrTK7eiqt/90Qo6KYxDseuTj/dhchc6oHAZeCP2QU6V767+l4fmlexrJTN3x7grvbbrFpDuqyNPflxVaZSFt0dVxU10MpOS58fNS7ayscT/Uah/wAWbppPdklG0lnA21tHhkrvZJboQBCx3xxlQonncO1bagf8C6pamdmwo60DwYxFZVl6eiAyWnP6i4Pq6TQctcAf0FW21M7vaproB+zXa2fLSJIrqB+zRbu2lq+Zjnt6BjiMfVwtUVPRtB6sXkea1oXtJy71t/DXe0wPBa03MZ8WKdo1t0zVc87seq2aPHpSFt2+aKmzrpXNz9EOLls0hjiGno5nn/eBbTm1Glpp4oQM/S5qtq2ONnvUFXmgdfKN8kUwJY7YAraeabQBSGZrvBzF2VQubrvRHo6XIa7mVIN9YO1daZThv0dJUzJXjnlDOpri9uadoe7zdhddNS3YTB09MzB2/KKVY66McRTw0xb4vJXIyX0uAEFFt5lU3t0s8umrooWW6Z9XTNDy0hv4w8ypHh+n6Cx0kbwRLoULfBeJqFglioxpkaXFpOcZ3VojlbJBE6PBGAAQrWr4R2OO4De4brCD2j443RU1ppkM4BQAljc+0ChGe/CE6X4J7X+SmJyQl9jkhq4p6aTonzno3uAzgLqdSSQuAF3yXeLQpDiFoNrnLtngZDh9FdIt1LU0rJHwghrAcjm4q8jJyTztFyMqmvOmsp3gd7i0LIkqBzmpPm1YqZLVSxvlqrVK1rTjU5my400dLdYuktNDRSNH1iVLha7GvqdQPTUhH67VHRzVHr6UYpHbD6YW+bRVHBFstYx4OKjqW3ysvkpfQ0QIA9klW2rfCTulukudGWV9HTyQN9kh+PuXTbo20NOIqAU7ANtLpB96lRIWQaJqXVGPosGQo+WotbHYfYqh5/RjJVNr9vje3ey5V0IPRx0sxHd0gC1bXVzV3EeqqhbCWD6DtXcuLZLe92ptpq4W/s8Lnwu+N3ENybDG9oiDfaHiEsML3Va0RFTbfrcERETPDLtnODVBcRzdQmpKxmcudpcGjJIU53k95UZfWfiYp+ziB+sk9ymVTk/mq3U3SCeZ8sdXXwb7ximJC0LtcK+nbFLST1ErHc9UeNKuk10p2RNc6dr3FoOG4yo2r4goclr6WpeD4M2KvMv+mKy35ats/G0zJam5PDnjdjm4XZPT0YI/HxSZPMy4Wu+7W6U9qz1jx5RrqnuVgpo2vqrLURxPdjL2YOVaZf8ASLPHu04KOiHEtzJghe3omf8AT4WxUUtuactt1O/41RWvbqi1f0kub3WOrdC6Jmloj3+KkXVloa1zncNVgPh0RTuU7d33aAgoyNrNSn/9LKOooGiCZlqjiY1/aeycuC23V9oIbjh2tA/ZLnVXCCotU9BRWqupulGGno8YPiqept0mGvlco3NeyJrT2C0YIWVoWGo61aYhG1zQ0aO14jmt9Urbx+wiIoXEREEPxRGXUUUgeWCKTWSBlRMl2tQYyGpZWPd7WtsRI3VgvjQ6z1e2T0Zx5LQt94pG0dPG6UBwjDXDvVp7M3LLcmnHU22ZxETKkt/SjISe10VRu2idIf0nlq3qm7RBjmwQTyEjs6G5UVa77LHM9tZb7id9iY9kxqmmDZKRp7dr0eQmcVo26y2x9+qWvoC38WP+lKs5rKyobmlp2sB5dNsVBUpvfrqsIhoSRGMdo5Vtq3HGpb+jVsbHnq7gwdwkJK0G0FilqehZRzteObiXYUk193BaCyma53Pddc9fLQ1DY618A1d4KjW1+7GTWmpW2Cy07WvlpZXlx+i9xUdXUthgts8kVvmEo2Bc5wVqrK2OmpBP0Us4xqb0TcqAut7iustPSNoquDpzpy9mMkJuRFT/AA7SCis0FOwY+lj47qTP1x8FwiboYwDmGgLlyGO7mqXy0cc1BNhzRCpdJ5dVZltNO7mejdgfYoGhpbfV2ik9Y6SdGzXP096sT2dJ0jWHZzS3LuW4VOdNSRiSCpt9TWGmd0f4pmr7VLPn4qZphaoIHQxPiY093S5UeLXw66Rzuie6T6REh3WsayzNxnhyu1ePRFblLX0LyGxWitjPcTHgKYpZt0TUVgBw6hncPFrnLMNu4dwQ2gnII5Oc4KUmFzADqSOlazwkOCuAdcZC3rbImb47HLCW+HOeKjKuz2yGqtctHSOid03MvJXqMWeiZk52CoN2wJ7Y0EZ6bkr9DnomZxyHJet0fs8rqvdzREXoMQiInkEREBERAREQERESIiKBvWP+9qf4n7iroqXY/wC9qf4n7irosvP/AEkREXEEREBERAREQEREBERAREQEREBERAREQEREBefvcQX4LSGnsea9AXnzvaPxK0cHyisd/axqO6zp32A33/8A9LCZWkDuCcA57lBXniCO33GloxSz1NXVNc5sUZ9kN5qeaMnCovEUtbFxxaJqCiNS6OKQFmrB+apl7iRk4xpYadjo6aSSUSCJ0P0mv8CucvFscckjm0Uj6ZgzNKPYiPeCoql4eq21xrZGBks9QKl8PPRjzXKa0XOlguNupKPp6WvkMr6nUMR5PLCjyJGXiuNtfPSUlJLWTwxtlc5nINduFifjCmf1VtFSyzS1AJyO4DmfsVetsdxt3FF4go6E1TXU0UZk1adO2FK2Thqot09IHEF0MUgxj626mbG3BxC2NskbIJ6uTpOyxjgpmxXSG70r6mFrmCN5jkhcclrhzVKm4duTKsSmlkqoXuz0UcnRkHxyp3gK11dmtlXT1bSx0tQ6RoJyWg9xPenkSnEnZtTznJLhv3DdVriOpfT3W3GOB8zDC7S1nf5qz8Q49VvDm4GR96rPETZTdrUKc79A5cOq/l26X+2oy7VmN7XWA+OQuHrevY7IttSfjhcWy1uotdWNjLdiC3ksVj62OEvjuLHHw0rw/l7nw5m9V4Bxa6kfJcWXq4k7W6oH2qLt1XealzxUzNgHcSMrcHXwDi6NI/ZomSN1l0uDjg0so+KzJdKimBdNGWN7ye5a0XXc7XJn8NbXRySt0S3OIk/WjU7TZ4ah4phZzkXRLxdBnLSXH9Fc7jYmVkEkdTUQPYcYLMNK0qCyi1Nc2jdE4E/TIcpcmy3jGPl0cxWJOMGAD8RKcrt6SpDhjqp8tDV2ukqTjTBTE957Kgao4raW56tMF0ji6LXgxPaf0gpImeJuqWCJ7fBoBXQ+70IOmSlDT9bos4UJ9nFvFNI7Gt7WnzC2qbiG2ucHPq2Nd4EFRvWaKoeehq48/VNKf/ZdrKXpI8tmgJ+r0IGETK1rldzLeKV1JcqNrQ13tNK2HXW4sa1zbrbHA9xjOy1p7e8XejLqqnxodv0Y2XJlPXSVWlklKIG7CXSO19ivJ4Uwt27mXW5Tu0x3K2vd9VsZUpSR3hxMlTWUZaBya0hdVLb5BqMVbS9If92Au7q1c0bV0JPfsFSusvlm4S1LIjF0PTGRpGpo5LhwtV4pzQTflovFYdHcs/7bFgeQWlXUs8cja+Crjkq4dyAA0OZ3j4qFsctVbM7DxzhFqW2vbcKRs1PgE+2zmQe9bg2b2Tk94UaaccmCM/BcZJGhmp20A5yeC5lzQxzgMtA3GeSrNTK66Pk1SdFRwnA3wHOVpFc8nfca11c009K9nU/+kkcOYXCtjt8xijfWzxRtGAY3YWpJUT0sYa+tijjPINi1ZH2LVN6px2X1wz/hT/7K0Zcs9u2ptNoqWujnu9W5p5tfISFiitdmpWdHS3N8be/o3ELrZco5SQ2uY8Hv6qRhbrWucwGGqg38YcKXKOp8FnGP+WJ9X65UfSU9C69zdFc5DsPaepZ1NM5wD6uk0jcDowq9V2JtzvkvWpmNDQMdG4Nz8lOkZYp6S30bic3Kq1eDJNlqugp4XbVle74SLvpqWoooGQ01VAGM2Afhx+a7wK14/GVdMP8AhCrpft/VrU8kenDOvPwfpPyFtcMYdfLs9uWGQM9ryC7I46uOPW+tp2sHg0HK5cN6X3O4PY4SO7O+MKKvxY6WBERc27H2EREBaF/3s1W0jIczHwW+ta5s6S31De8t2Uy6u1M5vGxVZ4IKmmgNLX0ULwwA62nOwXS2mDQDLe6LbnhpXbQCvmhb0UURjDi3OgZ2UlXVNBSUoZVhkczhtiLUunqRjy46jo5Kf2Ya507/AAiJC6bjQy1jA2ejrpWN7W7koJ4zKTT3BjB/hiFLNmqgHlt0Zu3AHRKZnL4crhVUpI6iO+3FxjubR0TAGiTceGfJTcXW2kmUV2f0nrVhNbLxHci2sjd+KZzGFtltw5dKyR7ufaAXTUsVmF2maOtlMbGtY/P6RUm6YmPXJkOb5qqimqpG7MLXt+rJlYFBcC52tr4ttWS7OVws00Y46THD8jWCopBqLw4uG/iVMqt8IMndLVVNR7L8MB+CsirWvAREULiIiDqq4xLTyMcHFpG4aqnaq6l/GRtoWvcyQtyW77K1V8ogoppicdG0u+Kq1vqq2GJ3Q2jpRIdYdqA5q8nhw5L+yViqpWta6GhlGfDCxNda5jCDa6tw+sSMLpNzuLcAWl4Ph0nJcZbnXyxmOW1yuae4S4SRxtb1HLVVGk4DD9V53USyG5x3iufDNTx4jG7xlaEtsjeXSSWmsZ3562QFr2SBzLvVdXoJiGsBy6o1q3a5XPV0lX3e4xv0z3C3ah/uyuqa7RTODqqrtsrx/uypB3WHnIoI8+YC6XwVZ50dOPsai0rojvzyQ0V9E2Ju2lrCMBd9ZdY6282RlNLG97JCSQPJZipas+6Nb3jQ1c+ijde6RjREZI9zoACi4rb3Ysx5lYRFzrbrUEJx3ZRFK0C1zWaT2mnc47lBXPp7bVCpo3jq8o0uA5h57z5KeyuqoijmhfFI3LXDG3d5qY5cmO4iYfWk8JFbUwuhdy6IYcB8VoUlFR1FTNHTXOrdLHvIwyHsruonVkIfT07dTmPI3P0VyYLjGXmOmiY93tO2BKln3p3OtcQZqM9TIR4PWjJ0PI9dDmnYa+a2GNub3dudkf2ArYFHVvGRcYQfONKa+UNLVs6/bo+jkH47m/deqQfkWb9wXmlbT1DK239LJFN+O+iAF6ZENMTBp09kbZyvX6P2eP1Xu5oiL0GIREUAiIgIiICIiAiIiRERQN6x/wB7U/xP3FXRUux/3tT/ABP3FXRZef8ApIiIuIIiICIiAiIgIiICIiAiIgIiICIiAiIgIiIC8+d7R+JXoK8+d7R+JWjg+UVhERaUbYPwyuswU5qW1Dm5cwYD+/ddqJo2y1z25yAGk5GN9ljOkh4GXOOwzsQiKNG3VHTQx1D5g3M0ntHlnwC7Gl+MvOgj6u+VlFJsdg+ztv8ANGuA7Ls9GT7HmiIbRvEJJtbw85GRv5ZVavRay92rDsfiHc1ZeISTa5BjbI3+1U7i6Z0V2tGiMyfiHbLN1X8tHS/06q64ULJjFNTTyOJ3LIycrW65bGO0tpKw+OYitKoFXVP1iW40unb8QFllPM1hDq69ku7yAvD15ezu6Sbauhe86aWc7d7CFzFZRtZjo5YznloK0GxaSAai7l36oXCWmjkPamuod44CaTrJLGspcbQzAfqFaVVWW0NImp6g+WgrT6s2Eh4rbw8eBAW+6oIjaA2slPcHN3UaT+1aMdXYpSGtgnD9+y4ELtFFFUR9JS0MTsfWlIXfFDUVfSSQ0rGO8ZhjCxTi4h8lP0du6J+7i0nU0JtS+Gmynnj1ardQFo5kVO4XdBbaKVwdNFDHnmGy5XZLw3STgl0royRsYju8Lok4atbJIw+4zsc7sgB258m+asS1Jl8dCzFpjgee/XIuMdzuWrIpKHPf+NC0orBRNnfG2onfM3nH4fFbAtjYwW08Mb3R89X+qiyLbt+Ha+7XMZxR2/8AiBdDK6umz1ilo2N+syUEn7F1TWu6SNDoaS3aT3uJyuENruUjy2OO2Nd9IBxyPgmtot15a1xNMLjSOkp3l2h2zMkFdVrmp5TK2rs0kcYOGuGrJ+xLxS18FdQNqnyxxuDtDqXdy24Jq2ldsa6fuGscyp9kcXm7bbGWlrW4o5tPfkELk19tae1SygeeVrOvF40CNtA3Adze3mutlyvT2COWhhLSd3YOyqt3eUiZLS7lGQfMlcXMszujZ0Yc4nVkuI3WgZbgXtY62wE97sFYe+p1YNqiz46Sp0jekgIhT1TquzARtAxLEDnPmFKUd2pZhh7ugm7+k7I/zUBTXC40hJZbGaHHSSxpyu+oiluYBNCzpP8A84GAos0648l17JK8XGLqroqQsnmf2SGHOx5lQktPWSUrKWqoKWSmZ7JM2CR5rupoauhqGjobdETtmInK25bH1mQuqJZYw8btbyCmK55ZX4aVOXULdMHQMH1dYdhdhu8xbgFg82MBWGcI0IfpFXM8g5Ds/wCRWX2mitUfSSVj4+kOG5PYCb8uWrry05rjK3d1RUkHubTgruiulBLDoqIauRx7zCQtuG5Ojc2lo6yhnfyB1Zyu2STiE6mCKhaGnALspanHFEkWqX2KYkZ+m4ghR0dJQG8y5pYiCBj8aVPPtNzf25m0OX89JKh+qmkvhYaNkwaMnQMq8u4pnhdtp1JTZ7FupXeZqCFy6lCRvbqP/wDWStuF1O53asz+0dsMXY9lEwlstqnaSfqKL4WktmtuFDbrcI/xsNPAc902Vs8PdGLncY4i1zBp3acrocy3Ojbm2SgA7nSuHChhF/vMdPHJHGwMwMeIVbXXG9t0tSIipW3fgREUAs6WvBY7kQsIdWCG4yR9v2KYi+yr8N3Glp7fIJJmgiokbgnluudTNDUSa4KyJgPfkFR9rsNJPQSzOz2Z3kg9+/eu6Olpnv8A6nS0T2uB0jfYhdJjGHPO707nRyvGkXtjR4BrV0PtZc9r/XDXEb9y6oaWoqJXQxU9oM+e03JzhbbbLWhwMlLb2tG3ZJUakUsqry2uClvF3lqbm54ZGxwDN85WzaqGgr2l8czi4d0p0ruiphT8S3GJ9C2XEbD+LGcLf00zpTrtlQ1w7wzZdJ7K+ZXZRxy23PVYqYuPeZlsi63lzSWUFDIN2kmfBXQIaNmM2+p3/QXONlE2Q6aGsaR4sXOustb3CEjzbSyWONs3SOLmNdkDdTqrfDz4Yb1WQxRyxte1pZqGN+9WVUrXw3cYREUL78iJjKZyM94UraR/EDtNmqwXaS6MgZUJBcZ4aenDer4EbQSZADyW7xe9hoqdk8ojjllDCSVGSW+xsha41cBxtqe5Xnsycl/fTsfcXzDUakREdzcHK4m5TAFvWX+GQ3K64m0jNqOa1yZ5Bz+a7xFdjgRU9swNsgnfzUezl86R9eZqqnfHJW1jonbENi3UDw8I7ZeKrq9TXDUwAkwkq9xR3vAAFI1zRnsFRlPW1sN/qWyU7ZHmMZLBlqt3KZcfn3dL69sjt66p1Hvki0rk1j379MyQfpPwu2su9OXvNVRPLmEBwe3ZdzHUsjWvFqlIcM9lm2FG1pNNYRNcW66emDM7uE/Nd9kjp/6U1Apw3McTTlrsgLuYbcNLn2mYszj2Fw4djhHFNzdTU74YzCzskYU3JbHHVWpERca332giIrIFkZ3wsLD5GxMc93IBSW+FWddqekvUsz46mRjRocY4y4LhXXakqngBtcAN9oSu2it7syyurainY+YvDGey7K51NZPQyuia+WWVoyNtiCpYs60o6mldyfXD/wDBK7mmmxkzVBHi5mF3RXi5ywt0spGB5wNexXKZ179meG24zjLyUqI6Hw0xnt8kTnOPTfS2Xp0RJiYSMbDZeTVT7iyvtsU4oBEZ/wDoiV6zF+SZ+qF7HSTw8jqvdzREW9jERFAIiICIiAiIgIiIkREUDesf97U/xP3FXRUux/3tT/E/cVdFl5/6SIiLiCIiAiIgIiICIiAiIgIiICIiAiIgIiICIiAvPne0fiV6CvPne0fiVo6f5RWERFpQIiICIiAiIgIiII3iEkWqTJ2yNvtVZvvavloa0AHoHc1ZuIv7pk/WH3qt3v8AOC0f4dyy9V/LR0n9OuSvayoLAR0bBmRw7lrVVc+oANuqoo9Rw0yjIJXRGGyPqWSdhok1OPPLVwYyWGq65HCxsbhowSOy3udheLPd7m5pyfHX0+KiprIyAQDhSE9bHDJDFpdLVSN1CNvMhRVfTPFldHVEvkfKCCD3ZXF7ppq+sdG4RyUhbFGTzOQqHqJOrqJXgii0tmAy6J4yQF1UVTWMla2ZgkDvaLBjSuqmNTrL3AdIxva8dX+qURnbO49IHRDL3yeOfo/Ymk95dHujqXdLUGClkwS88hhdZqmAltFRTVcEp3njOMBcY62KGjAfioEjj0bSPPdZttQxnWZ6cOa1rsYHIt79lbStHwzvMkkDJGOazQwE9yW1uoRNqbbPGyJxcJ5TnDjzIXa64EiGZrNEPSbgHJI8V3m4yxVVUaga4YWCQH6wPIYUVbHU8uE1G23NEtNFPUzNOQWu3OfreK2ZjNJRvdFG4SPbkgbErTrDXFrZYLlHSB2+lzAVwdXTWyn6W4VYrIs7uYzSWu7tlElWtjZt0wjpoiwySSB2Hgn2Sum5iCaVrZukAJ7PQO0ucfDKw17GubW0cZmjqdpsnT0YP0l1U4FBROmmhOGvLmNLs7HvyrKe7UmqZaK50UcgfU0sbXaGg9tme9x71Y6erjqAJYpWuxsMd/mq3DVmsvtLPgQRStdhx3148lK9H0bKupjZ0b2RnS7u+OFFqvFfLjVV8nrZ1Ew9J0UfT5HefBca+7NpHRPqiIYCe3nu8Fzhpqa50UE1UXOlLBmRvZOVGvoKSSeRtvpJKwnZ5e8gD5pKtnPPhIR3WM1kLHzNGsE6O8eCko5S+d0bo36Sey7Kr90pY6Onpy+kFSwnDntfgtUi9lvtVPDNGyXMxAY8vJyfq47ktVkdcNZJTh0WmRzTOQXZ5KQqnRVGmCSVzZCMgNOCVoyOlq7XUR11GacNcXN0uySPFalKHNDJah+uGPaCcd57wUkXmWvEbbXQ0Th1pmKY7dK/cg9y4Pjp6SXrFJWzS1D+THvy0/AJPHHXdPS1UbmMa4EHmCuYp6agZphbl7hhrj2sFE91bVDXsnpZJZWiN7D22hR94e1tXG50PSunG8Tt24A5gdy2uruZTxxyPa1s7tL3Y5/+y4vDKOaV1XE6WFoAbL3j7Enmued8o+mqYRTsDaCna1sgaJ42AayfBbtbVS26vgEYe+OaQB3SHOFoTVL4XieeENlLT0UecNYzvPhlLa6peH3GtOsBuKeI7dIO4qbFcatEksUbw0kAOOw81XKyWSC6VToMajpHwXPoJ6amdWuLnVEm5PMRN8Md6hHVJnutwpWRuLGdG7picZ71XGXbpbNLBcIm1TIYZZalkwGrMT9OSuqC1shcyUVlY55+jLKT2vBYu9XAKmmlLDUTOZpaGnTkKRpo2SUhjqGkPxqEGe0PtV65zy7aGSpdLJBUBoaBndadsYafiGu7mzBu/jhadZLPRvZPUhzXTnoohnOjHitps4/pBbmuBDy13SO7n7bKq8/pYkRFWtvwIiKEiyM7kYG3NYWHFrQS4n4eKIvsqFlkcehaGuEYqJOfJ/xUhTOY2SVhMDRGe22NuCzwUbQHopoDKMQOmk//AH8lyqYKqlANHCwOkO73SAhv/uukleff6TXQ088bnsZHG5w9pgw/7SuVJUxNmdSGTpJWs1Ad+PFaMVZT0MbY3k1NWTh7Ghd9ogklq5qyaMCd34sN5YZ3BVsrtuIuepqKPiq4wUwaZ54mac7qRljq5KeOMVkZfECZXDuWg7o4+OKgSkxB0bQz6RJx/ku4/wBZmnY6TocHtg8gPDPmryVztmy01ldLVvie8OgA7MncVM09SyWbRI14lbzGeY8VFw9VnjdTxZwxuMA4w34rvfJLH1GKFgYC7S/JySzHNUdJZp1VExN2oJGs6OJrnB0h71YeYB7j3qm3ExdSmnjncTHIB0Wk7bq3MJMUWOWkKK68OUczsiZzIQfBFEdZDOEwA9p7nIeSy3fOfo8lKcrpWeJqhjqyGnfE2XDg9jHDOStmKlFQWukpaNkAGXRujGcrSvLy/iOJ0UWsRx5c7Psea2aW36qjrTqkuzvqJwG/YrSstu8mKwWtjnw0lJT9bPsNazkuIrPVtKwVBbLUObq6JgwfiuuKopGiWG3M0aTvUP30k8+fNakXRVFQ2nkkEohcHBg5zO7iD3BSpbNpZt1OKVzKWUNmIBdlaMs5przWlmQ9zBjw5rlVMb0sLHU74ZZJ9b26shp8lr1srYrlUtDCXBg3RF9262WkppqiOsqIJMgOe14yWrYZVRT0/SQufC5zSIm52cPgq1UxsqLs2quUhbTxgdGxrM6/jhb03XZrpBW0tsdPB0Za3D9IHnhQhuR1VwoYBJJJFLEw9oY5Bd1tl6xxXXTDLQaeNxa3bYqOrHtjlaLnWFwPa6Fkfs+RI5rasM8U/FlxMLstZTR4bjGytYjHL9lnREXKx6F/kRExnZCeWcbkd45qLv1Q6OlbDHjVO7oz5A96lC9sTXyg+yO2T4Kl3WrfUSNrWag0v6CIY5tP0lfH3ceXLUrepTC+tEJe90EDNDd/beOYWZXx3Gs1xTt6CPssLRuXciD8F0W51K2OcSucZY+eBzH/ALret8sWiOSlpuw4nIOytWbHy2Z6CI0jY5G63R9oFvNdbXQ1E8TZGSEkau0eSxb6qtnncypoerRcul16s/YuNRJJDWyVUbQYoYjEG/Xd4rnJdul9kNXS1LrpQNNIGxNqj2wByXq8IxEz4BeSwMkirqF8sjhE+bpNDueo9y9ai/JM2xkL2uk9ni9V7uaIi3MYiIgIiICIiAiIgIiIkREUDesf97U/xP3FXRUux/3tT/E/cVdFl5/6SIiLiCIiAiIgIiICIiAiIgIiICIiAiIgIiICIiAvPXZ1uGl2QeWF6EvOK2foaaepDnENa52T7WAu/B8orsPfjfHghOw81T6G/wB1q6anraemgloJ3hobEMyN3+krOLjSNikl6xFpjGJTnaM+a07G0Rg4KHYZPJVtvE9HHf6ygqpWCOKJkjJc7O1KSqLvb6WKMy1bHNl3jJdsR3psSXeR4HCHyOVoVN4tsEEck1Uxkb27OB2x4rEt6tcFOx89bTsiOzZNXtfDzTYkQCsd2eSjJL3bmTsjfXQtccEAu3weS51F7t0MzmyVsAkLg0xuduCeRTYkDgAEkbnCd4Hjso+qvVtpZuhqKmJrxvqJ2K6aa7Gfiaa2YY6LqzZ2PZ5psdnEe1qkGM9ocu7dVu9/3/aD3Gndgq2XSA1NunijJDiMk95x3KjS1Yq71a92sljhe2SJ/wBA+Sy9Vu4tHSz9nTSua2qq3iIOy4scBvkKNqWz1sz2dH0IHZDgdi3uU3W0k4eX0GlrnHEnmPFdzaTQxnSOLwN8DvK8WzLfh7cxxsRteWwWQyGVzg1zRy35rrgkdJWTNjgM3SuEpedhsPvWzW0sr5TK8M6sxp0RjvJHM/BaVmIqaOOlhmnYIHfjX5/KOztjyUotkb8dc6auMb9DZiMt39lvh8VrTRB8T6CjJGXa53+APgu+SigppHygt65KcM18g5cauIUlBHSTSOjmqnkOmZ9A8/khLGlJoir5aalpw9zWjpdW2gY5hb1K2JlG0Us7dxgatifP7F10xhpajL6hkrpG4kmJyX45ALnSijMMs7Iw8sBGhv0R4BLjVO7BzpIqcUE2A9jWOJe/HtH6yjenlqC2Mt0STu0ahza0cifipdzqeqooozM+GIDLmcnfqlQlympYL5WNlroqeCSnY2KTOASO4eamYX3TlyY6d9fSRS3APrJHSMGAyFm4OO8LDjrrHRhgIDg/pJNjgeS4dNan01ODc2R1BP4ssdy8cfFbdbLb3gCrqmRgnJkzyHgp7bVJyYuyeoY6VzKsBtBOzow4ctXifBcJaaVttkgc98jI9wMbPb3DKMdbaigmpGVkNVRPGQWnLmlcqGnqqq1NZLJLE6NxbGe5zRy1KLhV5njfZFyCSWrpJH0sUULASxmrGAOZW3X1j6mQSGYx0jfoj2pfLCzf6Nz6u3MqpejIa4kxnbI5Z8ltQNhdTskqWwdMPYkj5N+CenVZZL4Ypaqocx0j4gynLdLIhzA8/BdsU/WNAgJh5jSRguXRVziocx0Rcx7OYb9M/peS3tDZ5qaWWNxEeSJI+QON8qnZ9unfGvW09O6SltpaWknWx3PONzlad0BqLs/RIWw08JLneDh3hSFK0TVMdVBNFNHEHBhz2iO9aZiklMzY2AdPJvnno71OjuhYp6mUdaqCJIyOj0HkR9Y+a2JYDSzCFmDQVPtjuZ8F3RU1NT0clPNI6Jruzt4LudEyqp42U7jKG7NI5beKefgmWM92pJK63MjMs4fSlhDc+0PIBdNpqMsc+GJ5kJy0PGCPiFxcaSS5VDqwsa+PAjjk5A+IUe+ubD07Wmrkafyk0e5Pk1WmFqt5pPZOV5qalronwMLJBhzwd2lRLTLJVM6xcamPR2RG+MBrvDdadLdXshY5sVeY3O0kOHaDfErcqrzTzwsglpZ5S47Pc32U9PKeyvqY5ea7pLSAet3OrdLTsBPQHkftWzbWGu01M8f9WjP4iPwHcSuq8TNkt0TQOkLHtc5jeZA7lo3Cvmqpo5KOlr6eHGh0bW4//cp2ZkzwiY64JqlsMT5B2zqGlaPV3SXquhcxgDmA4adnYGy7bZVPid0TLTcw+TsmaZnLzXXZqaWmudQyoe5785HimspDctatHUFkMEj6R8lbHlrdTThoytmCqljq3vj01FbLs5+exEPq5WxeqosrYIJJXUsEjSXvO2/cFGtmbHO6igNPHBLu57fpH+ZRrLL3TbMfZv1HT1FB0spidNG89l7sNP2roNYP6rXTMxNAdBiH0c7LYkp2VM0VOzBpoAHOceTj4KOEL6uuvoc10eOjcG9+G+CdlWxzxtXYHYeYyn0Qe7OFrWuqZV0EUrW8xjK2voY88rlluVtwvdGEREX8C1rnM6C3zyN5hq2VHcQyNZZ6ljskyN0tA7yrSeVM7Mcbai6gMp6KlomQNllrSS3Ucb4ytKOmJozFVUcPVYT+TZIS4Fb9VA2emoHwVAbWQs7IeeWyipZjSWswyjprhK/L3U+5xldZK87LPDe0kLY18MU1JXOt5ePaABx81iCKd7nuprlNNOzslzm4D10RVFDWGOhdUDVjUcnceS7aZraB8sz6hgIGmKBh9rz/AFkuFR3432dFNHUS8TV00Ja+eCJh0A5bnv3XG4QVN1BjjYYznL4+QPnnxXZwvC+kvV2Y9xa57GPOee/it28z17KiKlp4gY3guMrBu1NZLzHG+WnHVQUVKKakgmlcDiSSVhbkLcs8QfVPqJJony6cMY1+dDe5abnwujZG+4npQ8GaOR22nvXa+aipGzSUbIGhwx+L9ohRcaY3Hzt232kjqWOEdU+mmdu7o255KWscrprXC9xyXbAnyVYvcswsrKqVrmyyODT0PtkZ2wrVbKc09BTxjOzc7rnZp26fVvhtd58RsUWTsD5nKwqxr9qLLMF58CsHONll+CSBthSjOeFRANRU1sTHOEzpTHkDk1Zqgam2BzJH6YXdE6MDaXHj4LbaGUXEr+01rZIi/LvFddRTMLXdVrIgdReWk96tMbWPPKY+a1pYzM1tNHTROgaOw3Vg5PPK2YLUWMiMULI54yA14OcN7wuUOuJx0yUrS7m8ld8T6xhLYZIJ9XeDnCtMapMuPLzXKtfm4U8YfhzSHH4LWh0SXiuEgDhoByVt261ytnfU1TmveeXktemid66rgWtw6MYUduW1942bcGVOJ3dUpo3sPJ7zgZ+K4uFdNE58taaMF2lvQ4cHLSuUclNRNgm6QMa4lvR8nb/SS31LJnlslTTsZG3TpJ7IPkpmNUuUd8THk9HTvdNNr0vke3v8fgtTg1xfxZdRrdqEbWuONxv9ylaSppaCmke2qinkduQDku8govhSKWDiu5h4d+Pia4H6XwU2VGPb3LssIhXK16X/ABO8jwGUzhrXY57IckjUcZ2CjL7XmipGjLesTksjB5DHNMcdqZZTBqXyrNQ51HCSymi7U0vj5BdIqXupo3dDG2kePxBJ7QPwXGekjdbG09NUtMxIeTIeye/C1Z46mSSGR8lKdIwGN9lvmuvp1h5OaVt0GZX/AInRqDu34hc2sfczpp62SKOMkOY1ow/7V0MFRCWtp30bNbu3Jv2vL4oG1NNLG6CejjijJLmNJ3ylwquPLG097/W1JSQyl0IY7pW9wd3ZWlQyar1PDXv0RRu1MDthqHIqQtwpoXTTyTxvmlOXkHke5bM0dJWNAqY2PIGNXeVSzJ0meNRl+kYbpanga5OmyJhyAXpMQxEzfOw3Xn126OOS1RwtYWdLgDv5L0GL8kzbGwXsdJvTyOrs7vDmiIt7GIiKAREQEREBERARERIiIoG9Y/72p/ifuKuipdj/AL2p/ifuKuiy8/8ASRERcQREQEREBERAREQEREBERAREQEREBERAREQF5vcS8084YwOkLHHRjZ3kvSF587S4aAcMBJaTzK78PyivLm0kLm0ktt65T3EyAvpWvIa3fwXK5Gpp7VfKaanc+smjLmNYMaiSvSxCwuEroY45O5wxnC5PiDnF742OdjY4GSFo0PN6NkNHfquW5UerpLfCxmRkatPIKOkt0tNabeaxjoatgkLXy9pm52GF6s6GFwz0LHtHIkd65PjY46ehZK3YdvuTQ8skhuTq22VNwjijgNMWEOZlmc+HitmisrppKESUxljbVF/aHZAx4eC9MfEx5LHsZJo2AIGFxcGlrQ9gZg4wB3JoeczxNp6Cqt9TRCWvfLmOQN3cNWwB7sLUuFLNBdZXthY2r1s3lZqEo/R8ML1CWJrz0vRsc7kDjdRt9utFaRC+rZG4OcGNyBnJTQ85uzqyqhujaqKOOXSRDGWdp3mD4Ky8H09Sy/xzzRObm2RR5P1greHQyFgkdT9I7YA4yuunr6Wa4SUsMrG1MTfZTQ2muABDN3u5gqmcQWi11XG1v6/M+kYYHuJYcEnzwrpnJB04KhhSRVfHNsbKwPHQSe0uPUfynjyyxrqisnDhZ2b1IX8shx5LtFgtQDXUd2Gtu7S/JGVdPUlA0YNIz4ribNbv+wx8F5HdJWucuapP4bmqGBsd2os4PNnioOb0b3g6W0t+t0bA7UAGYK9DPDlud9F+/g4ha0vB9rkO8c+PKYhW7sDLlzVQ8B358jJHXm1uc3kTHnfxXN3B9xaxxut3t74hudMe6sR4HsgOS2qJ8p3LZg4WtlOQ5kMuB3ulLv8AJO7AnLnVLl4a4R6RvWbm7WObWZA+xdzKHheBz20kVVMXnPYdjKv0Nqoo946WNx/SAWx1eFo2giYfENCpeSbO7JSKWno4TrpeHaufI3JcCth/QzMEcvBbpWA5w5rSQrrGXAYa4Y8MYWQTq7I0nvOVM5JpFtqjujpHaM8FaXM9k6W7LhX09uqWnrnDErdW+NsK+nON91w2OQcD4jKj1Yr5jzM27htgANnqKfxDCAuzo+Hi7HR1rcDYF+y9FdDGebGO+LVw6tASD0Ef7oT1YiXKV47W0HD1XxJRwPrJ4YpGOLxI4k7eC328FcJE5ZeJ8O5tDzgfBWm70FK/jK2B1OzBY/OAFYPUtANxTMx4rp3wueah0fCNmhd/V7sCzkNeScea2Y+D6mJ8jqK8UjWvGzXtyB9iuD7HQP5Q6fgV0TcOW6QYLJPseQq9+NXnJmp7eCL3hojvFpYN8hkWFEVPorv81WZxxHRtPIBoIGFfTwXaJN3xVH2TuC6X8CWQHJjqgfKpcVPdgnv5Fbj4KraQB1xvNDJExuHdjJXF9h4WEjHyXmSOVv0Yi5rT9iudLwva6bBYyXA+vIT9634rXRxuy2kiPxAVbnj8HdlfdQ32/hjpGuZT1NXLjGrVzW3S0dBG0dU4frJB+uMK8impg4EQRg+AAXaG6RhhDB4AJOWK3anhzc9nhaoJA3GQutzYOieybhiduv2iCFc8gH2iSsnB+jn4lReU/Z57JTWrP42y1cfgQ4ZXBrLDHkPpq1gI3y9ehhjN9TGj7Mrj0MR/6GN3xaE9U/Z58fUDmlpkuGCMAGU7KvQ26w1XF1TEa+eGPS0jLjnkvYTT059qliz+qFUGUNLLx5Uh8DANI7h4KZySouWcR/8AR7huTBdc2zPaez0uXBcv6LWqQPEFdSgO33ZyPkrl6noNRb0bceQXCSw0B5QE/B2FNzkJyZ15/X+j6rnki6hfKWGNu5aQd110vo6vtPHPov1vfJMCHPczOyvb+GLXJnU2X7HkLXdwPZnnLmVP8dwUepKtMspXnHDsctsFVaqmVkslFJ0bpW8nk77KbI7XlzytTiPh+n4V4kpqiha5luqm/ji9+r8Z3c1tDPSPa3tN5g8tlxz8vb6Xl3iyiLO3fyXONUjB2z5KOrWvqblQxQUctY6F4lkijODpUlnSG59kc1Kejml6e41tyIOxMDfgFfG6u2Lq+XWFjYcIcD+zFQ1zuZJGVqTQWuJ+ZbFUxOI56hlegloDtThn7V1ObEXE9GN/EZXacseLqvM3W3hjJd6uqYpCd3Z3XY+g4UeGh0NSC3dpLtwfFekCCJ3/AEMZ+LQsPp6cEaqaInx0hWnLFd5SvGrVR2KbjO8sfXSxRCGP2icqyNsli0vbFeD2iDkkrfttBTT+kO/Rvp4wBBEeQVmNlt/dTNPmp9SL+pmpo4ZtOvXS1tGTjBMkeSQuuq4KqaxrRSXC2sZnuiwcK6mx2/8A7Ej4Fa8nDVslD9bZd/B5Ci5wmWdeT3/hKutV2t0dXc4KinkccsjG7cKwtJG3djAWpV0FNS8U1jKZr3wsa3QXSF2D3raXDO7ez0WFk3WRy3WERc4272yDhYHPfwRFKb5Rt1ZHBLS1hpzN0LwZG+LfBW6J9JVtY8cMSiORocHDHJV6qi6ellhHORukHwV14Fr3V1hjy/encYTtz0rthnJNPI67Cy7iAmp7U8Ay2OqYQTtqC13Q8Pg9uhrYT+i/C9IDYzuQBnxGVwfDET+Sjd8WhW9SPOxuWvd5y+PhzA/20Z7tZUBbaDh2p4lrhJcKiBrI2nDnley9XgJGaWH46QqhbLZTTcYXQyQxlvRN2wPFWmcTOTOeEK2x8KybG8Oee7JK2o+HLK6Jogq6Mkb5MfMq5m027OBSsA+C4usdvcP9mH2Owo9SHfmp83CcsxzR1tqZkZGYeR8lVXWm42niyVlwqqeq6SNuh8A06V6pLw7bZIyZo5COQDXkYVA44s9FZr9ZHUbJGmokLXFzy7kFGWUsd+DK3N2osrCzZPf3rGMta12Neee3kou0sguV9qH1lHLVwRjEAYcdrvUo7DB469lY/RxTRssPaiBlEzzqPxXXC6YOsyuMacEVNTs0RcM1MjRyy4ZWyKx7G4bwdLo5fRVv04Ps/IrkTt2SQV09WPJ83ypwna8aX8JStZ4dnZdMzKN2Ol4anZ9oV37RG+646B9IAfHdTOWI8vPX0lkAdrs9VGDzw4LrZT8PsORS1jcDvevRuijdzjY74hYEEAfkwRg+GAmWc0nuseN8RtsjJ7W+gjqWympPtuyFeIRiJnwC6fSTGxkVqIhjYOsc2tHgu6HHRMwSdu9en0tljPybrmiItjmIiICIiAiIgIiICIiJERFA3rH/AHtT/E/cVdFS7H/e1P8AE/cVdFl5/wCkiIi4giIgIiICIiAiIgIiICIiAiIgIiICIiAiIgLz52DIXEZIJwfBegrz53tH4laOn+UVxwCdThqd4rOBqDsdod6ItKAYAAIyAcrGAWgPGrTyWUUjADc7jIzlZBw7J3HgiIMBo1h2MOHI+Cp/pBooKiShmkh1uZK3l9HdXEEagD3rhLBFM5wlYHtBBGVW7S8mulQ4XGaSnZE7oasDpZH6XtbjuHgrFw1FSv40qJHFjpDStkyXeJVpmsdsmdJI+jhc9xyXPatiO3UUdQ2ohoohKGBhexv0Qo8jpllufSgQQQHOd3OxsoaKa7nji2Ypad0nQPGNeytAAJ1EO27+5QFTbPWnHNsgbVT0+aeTtQnBXHnxtxWxy0t5mv7Rvb6UH9oVkS8QacmjpB/+IulvA7gBrv11cG+Mi2G8LzxYMVzq3AfXcvIy4fLtORs22W5Pdi4QQxHu6N2VIE6Thxbg+aiha7zAf6vUQP8A2pytWam4tDj0TrQR3awVX8Wp9SJ8dnvx8FjALtRBOO9Vo0/HGeybNjyDltQUfFEg01c1C0Hn0ec/Yp/FsO+J3Qebm5HcteWohgdmSWOP9Z2FDScHyTyiSW+3Jr+9kUo0rbdwnTaQ2onqKkeL3ZKmdNflHe2m3KgIz1yDV+uEFfRu3FZTny1hdcPCFqhORA1x/SC2xYLUBjqUH2BX/Fmkeo6hcKH3uD98Li65UQ/65B9jwtkWK1NGDR0/2hdUnDVqkJHVImk/VCj8WHqOk3SiJx1yA/8AGFzZV07hqbPGW+Idlap4MtGsnoy0ozhKiZkMmkZ5NKfi/RORFVcgk40tgYdQMb9yrOWb+zt3lUK8cLtl41tcbLlWRDo3+y7CsEfBb4xkXq5OA7jJzUfj2J9ROuaRu05CyASObcfHdQp4fqKX8ZHcpnY30yPXWBdGu00dTQSTHkJCVW9NlU+oncZJ8FhrTGdsY8jlV+Wn415xPs4PmHLpEHHncbFjyDlH4uR6izkF26y5g2y0n4KCpaTit4Da6S3NaefRZz9i4Hg+R8/TTXu4tefoRSAAJOmyh6iblmgg/LTRx/rOwuhtxoC7esg/fC6P6IUjxipqaioP+8dkrnBwha4nZ6AO/WC6TpvtHqOz1jSOdgVsGP1wuRrqNo7VZTn/AIwu8cPWrl1KD7Grons9lponPnpYImDm542U/jI9Rx9Y0I2FXBv+mFnr9H75AT+i8FQZk4KqJjTNraLpScaGHdSEPBloIEkOvSdwWnZPxz1KkGTQyDLZ4yPJ2VWqQF3HdTluRpG/2Ka/onStGYZ5mEdzCqhJw2Z+Op2NudfENI9h/ko/G+k+pa9B0lo2wskbbnJ8lX28GOYci9XFw8HSLZbw/XQN/EVz3ecjlW9PUzkSwaTyIwsA9rDgceKh5KTiSNuKZ9A49xdlaksHG5GGPs4/WBVfx7EXOOXGtpZdrHUMDHGWL8bHgc3DkFQ7RUuqaBjpiBMw6HtH0XeBV1MPHuMmSyAN7gHYCpl1sV7sVRLda5lK6jndmZtNya483nyU3hrV0/UdtkbgA8QD5pjtY+1dUM8VTC2SMtlB5EbrrrquKkYDVyaD9FrOZPguHp17d58ZPLrutQyOk6N0gY6oPRtJOA0legcOChtdop6Y1dP0gYOkIeNz3lQHCnDBusoud8ptMLhiGmeO76zh4q6M4btTQG9ViwO8jdasOGZY+Y8LquqmWWo4i40Wf9tp9P64WTcaIf8AXacD9cLt/o9aiMCiptPjha8vClqk5UsQHwT8Vl9WubLjRvOG1ULvg8LvMkb2ZjlYRnuco7+hVtBy0OZ+qubeE6ZrwYqqoAHcHJ+Nr2PUQdl/5yOIDuQaeHCtpYW7YC87ouGTU8f3uJlzr4iIY8lj8K0N4NkYcsvNxd+tIo/Hq05E8AfNdVVK2KKSSR3Za3fPcosWG4QDEdfK4fpuUHxq28UfD1YJKqiYwsxl57RUXhuPumZbyiqWoudDO+VrhK6Z/bdyxnZbi6qVwdRQdsva5oye7K7Vmy3K+i4ZrHwIiI6SaERFCTfkDgnkVNejWrporRVRyTRslbO8kOdjvUKSAMktAHMu5BdnAt44VjttRHca6gbVdYflrzuRlduPi7/Lzevy09CF0t+jU6tp8dwDwstuNFJ7FXC74PC0Ke08OXZpdQikfGR/0a5t4KtYJEbZY/Nq73pZrw8iZ2JNk0Jx+MYQfAqr2LH9MrqQHfkm/eplnClKNoqqpYR+kqfbuFn1PGF0Y27V0QETfYfjvSdNdI9bt93oeCO5cgzs5eNlXI+DJIzmO93Jx79cixW231LAZ5r29kQ9o1Mmy558Olpy93tFj2yBtpVD9KkXR22lryATSyFwz57LlT8UR1UzYLZfLRLKTgNe85PwXDjG08WXWw1VM51pcx7QWgA6tt0nBftfj5Lhl5iHidrijeORaC7yXIjPLkeRKjbDUurLTHK4aZAdEjfDGykz2njA7AGAFn5JZdR9HxT1Md7a1xm6tRzy4y5jOyByyr3wuaa3WSniqKmJrnt6U6nAHfdUSCidfrvFbI5NMER6Scs56fBTvEUvCllcKe41r5J2tAbHqBcR3YWjDg7Z+zyOt5bnlrGLj6xoQAeuU+57pBssuuFDkjrlO4A49sKiWziTgqWobTSMjgLiNPTbalfILNZqiJssFHTuif2gWjY+anHppn5jDblh5yG3GhIA63ThxOMawnrGiAOqrgOOfbC5y2O0saXyUVOI2jJcRyVJvPEXBdBUuhzDNM3myPfCXp5j7ox7+S/quHrOh76ym35DpBldkVfRF2BUwE/rhUK33Pgi4TiHpoIKmTk2Q4IVsp+ELbJGHRF4aeThyKmcEvkzzuN7bEJ6R54nw2rRIx39Y+ic9y7onaomHfkFG+kKwwW6K0uhlef6xyJ8lJRHVEwn6oXo9Ph2uOV25oiLc5iIihIiIgIiICIiAiIiRERQN6x/3tT/ABP3FXRUux/3tT/E/cVdFl5/6SIiLiCIiAiIgIiICIiAiIgIiICIiAiIgIiICIiAvPne0fiV6CvPne0fiVo6f5RWERFpQYymNTy0bBoySUxla11lc211j4xgiF2D9iDYGHt1xuBaRqHmjiBpydORknwVbsVZLBwHTVb2GaVkBfjPMrpl4sfFTUboaYSyysD5Bq/JgqBbMADGoF3h4rDGuaPZOeeFRWcXXbpaKNttY41bntj7fLSuQ4wrHzw0rKEGudkEa02leC5upuHNGTzPLPgsE4MgYCccyDgLzziHiGukhpoDT9BXR1rWdEHe2PirJZ7vUVV0mtVZRiGaKMT6g/Ocp3CwE5A0nIPMLStva9IFrLcD+ryBdU98p6eUse6QScsNjJHzUZRVVxm45trqahDWmCTEpfv8ly5c5o09br6qKhpJ6ioeI6eFhe9x7h4ry99+v/GErnWaaO3Wlri0zyDOseIVnu3D11vNoraSruro4aiMtLRHnGVRqDhbia2RRW+ntLJ4I+yKrrGnU3u7KxzSUrQcHtqXOfQcRVb6uL8oXSO0ZPLZb9NxBeOFq2Cj4oa2ppJnBkdZGMNa48gV0U944o4fHRVtjZU05G8jHAFo+zmtG61V348dSW2ktTqW3xTNmlqJDuC08gCp3UPU31TIoHve4NaBqLu4DxXm77zxDxjWTR8PPZQWxjzE6olbq6Qjnp8F6DWW9s1pfQjPRPj6MnvA8V59ZWcXcMU01uobLFXUwkc6KYyhhIPdhRupbMHovo3ZfX3e6yVL/adFUua3PwWldLVdeBo46u13R9TRdIGviqHF78HzK35uM+JLZh984d6vD9aGTpD8goq61d749lpaOntz6W0smbM+pccOOD7OnzTVTXpttq+u0EVW1pa17Q7SeapV/wCI7xcr/LZOGo2xuhaHz1Txqa0Huwr5TQtpoGQRDsMbgLzyv4av1s4jqrlw08OjqmgPY/bSftTyq5N9HU1d277eax853zTSuYPkuu5cHXWwUzqrhm51Ez4+06KpeZC/HcMrubfuLbM/XeLSKiiHtzsfu34NC6rl6SqKso5IbJS1s9wf2GRvgcwEnzKbotHBXEA4hs4qCzFRC7op2/VeOYVhGlwzgZVT9HtkqLLZX9Zj6KoqpDUysBzhx5hW1oIbvunlKqV+P6d2sY/6N648a8VepehpKFhqLrUnTDC36OfpHyC5V4/t5bP2b1HcY2C6O4ko7/ZmtqKqniMXVn4Ac0nnlLsadPwLWXh4quKbnUunO+ikkMYb8QtqX0Z2aVjomVdza8DILaggj7VrPl49qZDMyCOm/wBxqBHzXI3rjmODQOF4XyjYSdZG/nhRNjPAtTWWi/VvD1fUuqGRkGB7zl2Mb5K9CLgGtOcZVK4I4duNDX1N2vsvTVtUcluPyXkrq4AEFwJ37u5T5S86ut/vvEF9qbXwsY4YIOzJVyN1NDu8fFIfRmyrBmu14uUlSfbNPO5jfsC12cL8S2S4V8diqgyjq53VGogEtc7mu8UPHtCzrDbk25f/AJuYwz/NPI1bvbLlwLHFcLRXTVVAJGskgqHl7yCeYJXo9urGV9FBUQjsyNDsHuXnVVZ+LeLHQwXprLZQNeHvia4P1Y816NbadlLSMpoW6YohpB8VPlCL40vzeHbRJUhnSTOGmKMc3OVNtXB1dxBE24cW187hN2mQwPLAwdwI71auObHPfrYxtG7RUQO1xZHMquMouPJQS6rZTxRtAbGGh2rCjyLBLwTYX0YpDSsYAMdIwAPP/EqlVRz+j/iK1tpquaotlfM2lFPK8veHH6WfBb/rbjymZ0fqOKrfnBk6UN+1ZsfCN2ud7bduK5tZiOqCmHKM926eU6ejDDST3qmUn/OHVc/ZH3K5DtAYB2VPpWkekOq/UH3KN1CT4u4hg4cthqpmGSR7xHEwc3PPIKoQWLiTiZ/WL7WuoqOTcU8RLXsHgSFMekqy3C6UFJNaYGz1dNOyQQudpD2g5O6jai5ceVc4dDZYqFrdsdMHalMlTGZ+Aqi2N6bh+71gqGjUG1MpkDvLCmuBeIZbxSTU1wZ0N0pDpmY7u8D9qh/6Q8YwMdHNwpG4gbPFT7Z/0W16PbLdILhdL5e4hBW15b/VwciMDz71O4rfLW4k4gulzvYsnDWhj2nFRVOblrP0SPFdf/wvpq1khutxuMj3+21lQQw/8Pgtd1HxHwxxFeK60Wllzgucwk7UmgxnGFsR3Pj2F7pHWCGZp3EfWAMfam5SbnsofFno9k4M/wCVbbWzvtbHASwOeS7BONivT+H+C7TS9XrC2WomcwPxM7W0ZGeSgK2y8T8YyMh4khbbbaHBz6djw/X9q9OpoG01PHDGD0bGho+ACp6cdPVz+arHG/E44epoYaeAz11SQyGFvME7Z+CrkNk43vDR60u1PSUrhl0LIyHgfEKV9IHD1zrKulu9j0y3Cl7LYX4Ac3v3KiY670jSOMr7TDCG8oumBz9qt7K3V8tuD0YUTIjI27XZ1Qdw7rTtAPwXZY7tc7BxDT2C8vFVHUgmlmbtsOefFdQ4+uNEwsvFilgqW7FsZLw75LXsFDd+KOK4OILvTGjoaRrm00eclwPNN1GnpzidJAGNuaMPZB78Li3S6NujOnwK5j4dyeTSmWMf/lN4iP8A+bQq4yOEfaccNHNVCyD/APKXxD/h4Va6pvSRSNJLQ4ac48U8jz+7cX3e53Sot3ClGXugJZJUu3Yx3mFH1Ho7qbpSS1HElymqbk8ZYInFsYPhpSipeKeEqy5wWizx3OnqpTMJnSiMs8vNdzIPSBNEKgzsic470mAQB+snbueUzLtyiBt72viLWYAhJjA8SNitlRcNPeLRWvgvlMKRk7iadzTqGr6WT3KUXm8s1X03BnLhKIiLk0b2yuJOW5b9qznCNGGYHMlBrXTJoZmMOHuZhvmVfLNwfZJ7NTdPbKcyviaXv0DJON1QKu3VV7rKa32+YwzteHveBnDVZPUPGljGuhu/rNo5QuYGY8srZwS9u3if6PJrPRxPwNR2ijlu1mq56GpphrGqQ9Gcd2lWngC9zcR8LUVxnjMb5G7jxwcZVQqLLxjxMRBfJm223ZHSxR4f0v29y9DtFuhtlBDR0jejiiGG4WuWvMnmJAcicYKp/D4xxvdx3dC0/wCauJ9lU+wfnxd/2DPvU7qvbEhxjxBBw1Zpq+o3bHs1v1ieS+ebzcrjxPWPrrtLIyNzsx0wdgNb4OHevevSJwu7ifh+ooY5DE95Dw7nuNwF5Nb/AEYcSXCfo6p4t8LecoIcXkctu5cOTG16fRcnDx+c1WfR0uNDImsyciSEaXN+1ek+hS91tVVXOy1krqmGkjD45XbntbYyoyp9Et/icWw3nVG7/dDZeh+j3g6PhW2OhdN01Y8kvl07lcuPj5N+Xfrup6fOaw91K4jtsvDN7mqBG51pnOSWj8ifPxytWnqZ7m8U1nhfJO7k4t2A+sva5YI5ItMkbZM9zhkLhBTwwODY4GB3MFrAF0y4Z8sePWZ4zUeD3q9zcNh9k4e0yXGXt1dc4ZDSebR3hVGChaMuqJHVFQSXOkl7RBPh5K3cZ8EX+3cQ1lbarcK+mqpDK8mTBBPcuNB6N+La+mM0s7Lf3tgADv8ANc8+Lkyj0+h6np+P/wCqrzUkLmOE0TQcHTIRuB37r1v0DVVVUcO1sNS574YZujge451MxzVMg9GPE9VK2krHtpqYHtTAhxe3v+C9q4UslNYLLT0NAC2JjcZPM+at0+OeHuz/AOnz8PLdcTzn038QVUclNYaF7oTIA+aQHGWHuC8yp6Ompw1zI2uePpPILnFe6+kLgOn4rDJWSmmr4xgTgZ28MKqN9C1J1b8ZXSPrvo1G4APwUcvFyZ3wp0HVcPB4zeZVtHTmjqAYmh7Wl/SgdppA7ivcvQpVz1fA9K6okfJgANc47kKlwehu4uqQ2q4idPS5w+LodOR4ZXsHD1rp7Laqe30bNMMLdI81fiwzw/pXr+q4OX/5zyrHpUA6tadv+sf6Loj/ACbMeAXd6VXf1e07f9Y/0XREcxM+AXo8Ps8rbmiItAIiICIiAiIgIiICIiJERFA3rH/e1P8AE/cVdFS7H/e1P8T9xV0WXn/pIiIuIIiICIiAiIgIiICIiAiIgIiICIiAiIgIiIC8+d7R+JXoK8+d7R+JWjp/lFYREWlB9mV01cXWqGWm1aXSMc3f4LtOcbHBTZw3aS4d4QVe0Wu522gipppGvo426XNz9HwURwjZDLNeaqUytEz3Qxhw2a3O2FZrzfqW21XVOjlmnfGZejb4Bdb+I6JtBA+FhL5NhE3mXeCrUulnDjmz2qUyOD6Jz3AD6WoYVfvNgq6fiakmoTIXSZdrA2afD4Kzs4nourtnd0oncdJgHtHHgFFW3i0S3K4msBgZTODGMOxORyPmo2OZ4UlqZGz1lQDV9aFQ4g9kY7gVMxWp0XElRdy8HpYBAGNOeXetWLiWjfTyGaKSCRm5gf7RHiFuWe8R3KYNbC6FzRqDXd48VaWCSZEwNcA0DvzhQ1TBnjC2y9e6mGwvBeCFNncY3aMrqqqWnqHB80MT9HZyR4rnnhsSDmxsc4u4sOjHc9ucrTr6yloWRGTimokfMcNDdJKiLoy12+EmSkgMh9hund58B5rTsvD8T5JK+4QxmokHYp8bRt7jjxXCcFotumKRgLuK3YI5FzUEULWgN4rIA8HNUT6rovdIP3U9V0XusH7qt+NUpfTH/wB7XfvNTRH/AN7XfvNUR6rovdYP3U9V0XusH7qfjUS3Rxb/ANrCc+LmlBHEOXFhHwLVE+q6L3WD91PVdF7rB+6n41NpfRH/AN7XePtNTRHv/a137zVEeq6L3WD91PVdF7rB+6n4tEu5kbva4sJ+LmrgKena4kcUtBPeNKi/VdF7rB+6nqui91g/dT8WiX0R7f2tdt+k1NMf/e137zVEeq6L3SD91Z9VUXukH7qfjUbz7fRvq46p3FGaiMENfqbkArY0R/8Ae137zVE+qqL3SD91PVdF7pB+6n41EsWRkb8Wu/eas9HH/wB7HfvNUP6rovdYP3Vn1XRe6QfuqL01QlxHGM/2sd+81YDIxnHFrt/0mqJ9V0XusHyWPVdF7pB+6o/GolwyMcuLXfvNTTH/AN7XfvNUR6rovdIP3U9V0XusH7qmdNRLlkZ58Wu/easdHFt/a1236TVE+q6L3WD91PVdF7rB+6p/FqUuWRk5PFrs/rNTRHnP9LXfvNUR6rovdYP3U9V0XusH7qfjU2lwyMf/AFa795qx0cWD/ax2/wCk1RPqui91g/dT1XRe6Qfup+LTaZDI8fna795q1W26ibWuqxxPiodsX6m5K0fVdFnHVIP3UNrosf7JB+6n4tQlzHGRj+ljsfrNWdEf/ex37zVDi10WP9kg/dWfVdF7pB+6n41Er0cRx/ax37zVksjP/wBWu/eaon1XRe6QfJPVdF7pB8lH46UrojH/ANWu/eagjjH/ANWu/eaoj1XRe6Qfup6rovdIP3U/HEv0cWMf0td+81NEf/e137zVEeq6L3SD91PVdF7pB+6n44l+jjzn+lrs8vaashkf/e137zVD+q6L3SD91ZFrovdIP3U/HQlnQwu9rirPxLVkRxjGOLCP+JqifVdF7pB+6nqui90g/dT8e/Ylujjzn+ljs/rNWdEeD/ax+fJzVEeq6L3SD91Y9VUXusX2BPx6N2C2UcNwmrY+J3NqZgGySam5cByC2nMjJ/O132uaoj1XRH/qsfyWPVdF7pD9oT8dKWdFE4AO4sJAOR2mrkGREEHit+/6TVD+q6L3SD91cjbKDH+yxZ+Cfjq26d92s9Dc4OiquJTKwcg5zeaplZUiyVDaatqYJ2O2ZMx+Rjz8Fa/VtCP+qx/JcJLRbpWlk1BDJEeY081Tk6PujTwdVcPCGjeySMPjdriP027g/Bc2gHkcfrbLlVcNBrtVsqJICN2RvP4oeWPFaUkN1pP9pgbU/sQvPz6LLGvY4+vxrbdkDkD8Fxqpo6ZrpJHARtbqc4HYLS65WZ7FprPhhbFLZKmucHV+GUrjqZB3/BycXSZb8rc/W49vht8GUcVTJLdpb2yikky2HQ4dqPxPmrWWRnnxa795qh22mgawBtHC0NGAwN2as+q6L3WD91ejh0t08Lm5PUy7kvoj/wC9rv3mpoj/AO9rv3mqI9V0XusH7qeq6L3WD91X/FrntMBseD/a12f1mrVgt1HDVyVUfFGmeQaXvDm5IWiLXRZz1WD91ZNsoiP9kg/dT8aiXLY87cWu/easGOMgA8WuwP0mqI9VUXusH7qeq6L3WD91PxqJcsjIx/S12P1mrAjiH/1Y795qifVdD7pB+6nqui91g/dT8e/aPCX0R/8Aex37zU0Rnnxa795qiPVdF7rB+6nqui90g/dS9OnaWEcQ/wDqw/vNQRxDlxY4f8TVE+q6L3WD91PVdF7rB+6n41QlhHEAAOLHYH6TVnRHv/a12/6TVEeq6L3WD91PVdF7rB+6n4tTtL6I9v7Wu2/SanRx4x/S137zVEeq6L3WD91PVdF7rB+6n41R4S+iP/va795qBkQwBxYc5+u1RHqui91g/dXJtsotx1Onz46VF6exFkdXFdHBNQB7+IX1UsT9UbMjYrbpnF1NEXDB0hdAtdARgU7NeeYC3O4ADAAwuvHhoERFovsCIiqCIiAiIgIiICIiJERFA3rH/e1P8T9xV0VLsf8Ae1P8T9xV0WXn/pIiIuIIiICIiAiIgIiICIiAiIgIiICIiAiIgIiIC8+d7R+JXoK8+d7R+JWjp/lFYREWlDCzhwOHHAQYz2uSw7drnuO2QAEFdrLdPNxnFWGEPgFG6L7SVX6ezXC11grRSmqf05Ipgdw3xyvQ3hxy0DLAmwDi0926rUvO2We4+s4L6+icyaN7j1Enc/byWhceH7nd5rlWy2+WDpZ45G04cA4gc916nlzgQ2fAI3GE3c5uraPG3io0PO4uH5HmoqY7bVRzPYY+ill1Fw8j3Lf4It1bRXWds9LNS0D4g3Ez9b9Xfgq6nJIaBkD2EB0NHaw7Ox57q0xB2XDOoOa3wWldbhDb6PrEp/Fk4aO9zu5dlwrIaKDpZ3Y/R+uVFWukmr603O6N8oIO6Mf6pfAza6E1kwuNzaRJqzFGeTVPODtZdNjWB2SO9YaSCWhvZcMfBACSBnOjclMctB8UQorIEREBERAREQEREBERAREQERFFBERQkREUzaBERSCIiAiIgfYiIiRERAREUdtQIiKO2giInbQRETtoIiJ21IiInbQRETtqBYWUTtp3aEyRyRFbybgdxuiIo7ZfdMv0yCRyJWERO2RFtoiIpJ4EREBERAREQERFHbQRETtoIiKQREQEREBERARETYIiKAREQEREBERAREQERESIiKBvWP8Avan+J+4q6Kl2P+9qf4n7irosvP8A0kREXEEREBERAREQEREBERAREQEREBERAREQEREBefO9o/Er0FefO9o/ErRwfKKwiItAYztv9i0LrdYLc2N8rXve7ZrGDLiPgt7c8jg+Kq3GcNNPXUbJJ301Y1pMcucMb5H4qtolLRe6a6SvhjbUQSNOzZW6XFvjhSYkbuWhrmNODg8/ivN6q7XKklqaaoNPNUGmc4VMDd2N8z4rUoZawRQSQ1soLow5zXO2d5qNj1QkAOEfR4G+c7hOkZ0YkY7V3ZPJeaU8ckNNbOnranoayZ4qJy7ZgHIBcLi+oZ61oqC5OZCyePL5XEkeTfimx6d0jRvqbjPtA8l1VNXBBSuqJCXsjOQ9u68xbeI4rbJBI6sLzVCIuDvpY7vJSvA0z57rX2+pmdNGGamtJy0b9/mmxYKCklus/X6/UIM/i4nd3nhT/c0nst5NCdkaQAeWPILOO1pdvjkVeAdiib9/NEBERAREQEREBERAREQEREBERAREQEREBERAREQEREBERAREQEREBERAREQEREBERAREQEREBERAREQEREBERAREQEREBERAREQEREBERAREQEREBERAREQEREBERAREQEREBERAREQEREBERAREQb1j/van+J+4q6Kl2P8Avan+J+4q6LLz/wBJERFxBERAREQEREBERAREQEREBERAREQEREBERAXnzvaPxK9BXmjq6DUdzzPcu/DZN7Gyi1OvweLvks9eg+sfktHdPtDZPLcZXRX0kNZFoqY2vH1sbhcRXwg5DiPsTr8Bzglp8cc1FuN+R101ro6aF0bImyMeNLnHnjwXCCzUdO/EUYfr7I/Rau8V8AHtHPwWOvQNxoJGTucck/X7CooKWelNOYmiDvGOS6WWag6sYWwtdC7fURuceJXeK+DO5IPwWTXU7tsluO8Dmn6/Y12We3sg6PoGujLstJG4PiuyktdLQ1Dp4ow2YjD8d7fFc+vwEaSTgHnjmsi4Q9JrJJLeQxz8k/X7GzjH3otXr8B3Ljv5J16D6x+Snun2NpFq9eg+sfknXoPrH5J3T7G0i1evQfWPyTr0H1j8k7p9jaRavXoPrH5J16D6x+Sd0+xtItXr0H1j8k69B9Y/JO6fY2kWr16D6x+Sdeg+sfkndPsbSLV69B9Y/JOvQfWPyTun2NpFq9eg+sfknXoPrH5J3T7G0i1evQfWPyTr0H1j8k7p9jaRavXoPrH5J16D6x+Sd0+xtItXr0H1j8k69B9Y/JO6fY2kWr16D6x+Sdeg+sfkndPsbSLV69B9Y/JOvQfWPyTun2NpFq9eg+sfknXoPrH5J3T7G0i1evQfWPyTr0H1j8k7p9jaRavXoPrH5J16D6x+Sd0+xtItXr0H1j8k69B9Y/JO6fY2kWr16D6x+Sdeg+sfkndPsbSLV69B9Y/JOvQfWPyTun2NpFq9eg+sfknXoPrH5J3T7G0i1evQfWPyTr0H1j8k7p9jaRavXoPrH5J16D6x+Sd0+xtItXr0H1j8k69B9Y/JO6fY2kWr16D6x+Sdeg+sfkndPsbSLV69B9Y/JOvQfWPyTun2NpFq9eg+sfknXoPrH5J3T7G0i1evQfWPyTr0H1j8k7p9jaRavXoPrH5J16D6x+Sd0+xtItXr0H1j8k69B9Y/JO6fY2kWr16D6x+Sdeg+sfkndPsbSLV69B9Y/JOvQfWPyTun2NpFq9eg+sfknXoPrH5J3T7G0i1evQfWPyTr0H1j8k7p9jaRavXoPrH5J16D6x+Sd0+xtItXr0H1j8k69B9Y/JO6fY2kWr16D6x+Sdeg+sfkndPsbSLV69B9Y/JOvQfWPyTun2NpFq9eg+sfknXoPrH5J3T7G0i1evQfWPyTr0H1j8k7p9jaRavXoPrH5J16D6x+Sd0+xtItXr0H1j8k69B9Y/JO6fY2kWr16D6x+Sdeg+sfkndPsbSLV69B9Y/JOvQfWPyTun2NpFq9eg+sfknXoPrH5J3T7G0i1evQfWPyTr0H1j8k7p9jaRavXoPrH5J16D6x+Sd0+xMWP+9qf4n7iroqHw/VwyXmlY0nUXHG3kVfFl5rvJIiIuQIiICIiAiIgIiICIiAiIgIiICIiAiIgIiICjRaLcXH+qx5b5KSUZFZ44rjJWCpqy9/Nhk7A+AwgyLRQas9VZv5Ll6mt3ukXyW+G4AGSsqd0R/qa3e6RfJPU1u90i+SkETdEf6mt3ukXyT1NbvdIvkpBE3RH+prd7pF8k9TW73SL5KQRN0R/qa3e6RfJPU1u90i+SkETdEf6mt3ukXyT1NbvdIvkpBE3RH+prd7pF8k9TW73SL5KQRN0R/qa3e6RfJPU1u90i+SkETdEf6mt3ukXyT1NbvdIvkpBE3RH+prd7pF8k9TW73SL5KQRN0R/qa3e6RfJPU1u90i+SkETdEf6mt3ukXyT1NbvdIvkpBE3RH+prd7pF8k9TW73SL5KQRN0R/qa3e6RfJPU1u90i+SkETdEf6mt3ukXyT1NbvdIvkpBE3RH+prd7pF8k9TW73SL5KQRN0R/qa3e6RfJPU1u90i+SkETdEf6mt3ukXyT1NbvdIvkpBE3RH+prd7pF8k9TW73SL5KQRN0R/qa3e6RfJPU1u90i+SkETdEf6mt3ukXyT1NbvdIvkpBE3RH+prd7pF8k9TW73SL5KQRN0R/qa3e6RfJPU1u90i+SkETdEf6mt3ukXyT1NbvdIvkpBE3RH+prd7pF8k9TW73SL5KQRN0R/qa3e6RfJPU1u90i+SkETdEf6mt3ukXyT1NbvdIvkpBE3RH+prd7pF8k9TW73SL5KQRN0R/qa3e6RfJPU1u90i+SkETdEf6mt3ukXyT1NbvdIvkpBE3RH+prd7pF8k9TW73SL5KQRN0R/qa3e6RfJPU1u90i+SkETdEf6mt3ukXyT1NbvdIvkpBE3RH+prd7pF8k9TW73SL5KQRN0R/qa3e6RfJPU1u90i+SkETdEf6mt3ukXyT1NbvdIvkpBE3RH+prd7pF8k9TW73SL5KQRN0R/qa3e6RfJPU1u90i+SkETdEf6mt3ukXyT1NbvdIvkpBE3RH+prd7pF8k9TW73SL5KQRN0R/qa3e6RfJPU1u90i+SkETdEf6mt3ukXyT1NbvdIvkpBE3RH+prd7pF8k9TW73SL5KQRN0R/qa3e6RfJPU1u90i+SkETdEf6mt3ukXyT1NbvdIvkpBE3RH+prd7pF8k9TW73SL5KQRN0R/qa3e6RfJPU1u90i+SkETdEf6mt3ukXyT1NbvdIvkpBE3RH+prd7pF8k9TW73SL5KQRN0R/qa3e6RfJPU1u90i+SkETdEf6mt3ukXyT1NbvdIvkpBE3RpwWuiglbLDTxskbuHAcluIigEREBERAREQEREBERAREQEREBERAREQEREBERAREQEREBERAREQEREBERAREQEREBERAREQEREBERAREQEREBERAREQEREBERAREQEREBERAREQEREBERAREQEREBERAREQEREBERAREQEREBERAREQEREBERAREQEREBERAREQEREBERAREQEREBERAREQEREBERAREQEREBERAREQEREBERAREQEREBERAREQEREBERAREQEREBERAREQEREBERAREQEREBERAREQEREBERAREQEREBERAREQEREBERAREQEREBERAREQEREBERAREQEREBERAREQEREBERAREQEREBERAREQEREBERAREQEREBERAREQEREBERAREQEREBERAREQEREBERAREQEREBERAREQEREBERAREQEREBERAREQEREBERAREQEREH/9k=;" vertex="1" parent="1">
          <mxGeometry x="189" y="610" width="522" height="391.5" as="geometry" />
        </mxCell>
        <mxCell id="Arpv6Pk21w3APJ-SWSOh-16" value="" style="ellipse;whiteSpace=wrap;html=1;aspect=fixed;fillColor=none;strokeColor=#FF0000;strokeWidth=4;" vertex="1" parent="1">
          <mxGeometry x="350" y="690" width="80" height="80" as="geometry" />
        </mxCell>
        <mxCell id="Arpv6Pk21w3APJ-SWSOh-17" value="" style="html=1;shadow=0;dashed=0;align=center;verticalAlign=middle;shape=mxgraph.arrows2.arrow;dy=0.67;dx=20;notch=0;fillColor=#FF0000;strokeColor=#000000;strokeWidth=2;" vertex="1" parent="1">
          <mxGeometry x="400" y="670" width="70" height="20" as="geometry" />
        </mxCell>
        <mxCell id="Arpv6Pk21w3APJ-SWSOh-18" value="" style="html=1;shadow=0;dashed=0;align=center;verticalAlign=middle;shape=mxgraph.arrows2.arrow;dy=0.67;dx=20;notch=0;fillColor=#FF0000;strokeColor=#000000;strokeWidth=2;direction=west;" vertex="1" parent="1">
          <mxGeometry x="313" y="670" width="70" height="20" as="geometry" />
        </mxCell>
        <mxCell id="Arpv6Pk21w3APJ-SWSOh-21" value="" style="edgeStyle=orthogonalEdgeStyle;rounded=0;orthogonalLoop=1;jettySize=auto;html=1;" edge="1" parent="1" source="Arpv6Pk21w3APJ-SWSOh-19" target="Arpv6Pk21w3APJ-SWSOh-20">
          <mxGeometry relative="1" as="geometry" />
        </mxCell>
        <mxCell id="Arpv6Pk21w3APJ-SWSOh-23" value="" style="edgeStyle=orthogonalEdgeStyle;rounded=0;orthogonalLoop=1;jettySize=auto;html=1;" edge="1" parent="1" source="Arpv6Pk21w3APJ-SWSOh-19" target="Arpv6Pk21w3APJ-SWSOh-22">
          <mxGeometry relative="1" as="geometry" />
        </mxCell>
        <mxCell id="Arpv6Pk21w3APJ-SWSOh-19" value="Cx Radical" style="rounded=1;whiteSpace=wrap;html=1;fillColor=#f0a30a;fontColor=#000000;strokeColor=#BD7000;strokeWidth=3;" vertex="1" parent="1">
          <mxGeometry x="355" y="971.5" width="70" height="30" as="geometry" />
        </mxCell>
        <mxCell id="Arpv6Pk21w3APJ-SWSOh-20" value="Cx Minima invasiva" style="rounded=1;whiteSpace=wrap;html=1;fillColor=#f0a30a;fontColor=#000000;strokeColor=#BD7000;strokeWidth=3;" vertex="1" parent="1">
          <mxGeometry x="205" y="971.5" width="85" height="30" as="geometry" />
        </mxCell>
        <mxCell id="Arpv6Pk21w3APJ-SWSOh-22" value="Neoadyuvante + Cx radical + Adyuvante" style="rounded=1;whiteSpace=wrap;html=1;fillColor=#f0a30a;fontColor=#000000;strokeColor=#BD7000;strokeWidth=3;" vertex="1" parent="1">
          <mxGeometry x="510" y="966.5" width="125" height="40" as="geometry" />
        </mxCell>
        <mxCell id="Arpv6Pk21w3APJ-SWSOh-26" value="" style="edgeStyle=orthogonalEdgeStyle;rounded=0;orthogonalLoop=1;jettySize=auto;html=1;" edge="1" parent="1" source="Arpv6Pk21w3APJ-SWSOh-24" target="Arpv6Pk21w3APJ-SWSOh-25">
          <mxGeometry relative="1" as="geometry" />
        </mxCell>
        <mxCell id="Arpv6Pk21w3APJ-SWSOh-29" value="Desde ano hasta 6cm" style="edgeLabel;html=1;align=center;verticalAlign=middle;resizable=0;points=[];" vertex="1" connectable="0" parent="Arpv6Pk21w3APJ-SWSOh-26">
          <mxGeometry x="0.1429" relative="1" as="geometry">
            <mxPoint x="10" as="offset" />
          </mxGeometry>
        </mxCell>
        <mxCell id="Arpv6Pk21w3APJ-SWSOh-28" value="" style="edgeStyle=orthogonalEdgeStyle;rounded=0;orthogonalLoop=1;jettySize=auto;html=1;" edge="1" parent="1" source="Arpv6Pk21w3APJ-SWSOh-24" target="Arpv6Pk21w3APJ-SWSOh-27">
          <mxGeometry relative="1" as="geometry" />
        </mxCell>
        <mxCell id="Arpv6Pk21w3APJ-SWSOh-30" value="Encima de 6cm" style="edgeLabel;html=1;align=center;verticalAlign=middle;resizable=0;points=[];" vertex="1" connectable="0" parent="Arpv6Pk21w3APJ-SWSOh-28">
          <mxGeometry x="-0.287" y="-1" relative="1" as="geometry">
            <mxPoint x="8" y="-1" as="offset" />
          </mxGeometry>
        </mxCell>
        <mxCell id="Arpv6Pk21w3APJ-SWSOh-24" value="Cx" style="ellipse;whiteSpace=wrap;html=1;aspect=fixed;" vertex="1" parent="1">
          <mxGeometry x="474" y="1120" width="41" height="41" as="geometry" />
        </mxCell>
        <mxCell id="Arpv6Pk21w3APJ-SWSOh-25" value="Cx perianal con reseccion ano" style="whiteSpace=wrap;html=1;" vertex="1" parent="1">
          <mxGeometry x="200" y="1110.5" width="120" height="60" as="geometry" />
        </mxCell>
        <mxCell id="Arpv6Pk21w3APJ-SWSOh-27" value="Cx mesorectal conservando ano" style="whiteSpace=wrap;html=1;" vertex="1" parent="1">
          <mxGeometry x="630" y="1110.5" width="120" height="60" as="geometry" />
        </mxCell>
        <mxCell id="Arpv6Pk21w3APJ-SWSOh-31" value="Tumor en recto" style="text;strokeColor=none;fillColor=none;html=1;fontSize=24;fontStyle=1;verticalAlign=middle;align=center;" vertex="1" parent="1">
          <mxGeometry x="189" y="1060" width="190" height="40" as="geometry" />
        </mxCell>
        <mxCell id="Arpv6Pk21w3APJ-SWSOh-32" value="&lt;div&gt;Diverticulos&lt;br&gt;&lt;/div&gt;" style="text;strokeColor=none;fillColor=none;html=1;fontSize=24;fontStyle=1;verticalAlign=middle;align=left;fontColor=#990000;fontFamily=Verdana;" vertex="1" parent="1">
          <mxGeometry x="40" y="1230" width="310" height="40" as="geometry" />
        </mxCell>
        <mxCell id="Arpv6Pk21w3APJ-SWSOh-34" value="Diverticulitis" style="ellipse" vertex="1" parent="1">
          <mxGeometry x="180.11" y="1362.5" width="80" height="30" as="geometry" />
        </mxCell>
        <mxCell id="Arpv6Pk21w3APJ-SWSOh-35" value="No complicada" style="rounded=1;" vertex="1" parent="1">
          <mxGeometry x="310.11" y="1310" width="80" height="30" as="geometry" />
        </mxCell>
        <mxCell id="Arpv6Pk21w3APJ-SWSOh-36" value="" style="edgeStyle=elbowEdgeStyle;elbow=horizontal;" edge="1" source="Arpv6Pk21w3APJ-SWSOh-34" target="Arpv6Pk21w3APJ-SWSOh-35" parent="1">
          <mxGeometry relative="1" as="geometry" />
        </mxCell>
        <mxCell id="Arpv6Pk21w3APJ-SWSOh-37" value="Complicada" style="rounded=1;" vertex="1" parent="1">
          <mxGeometry x="310.11" y="1415" width="80" height="30" as="geometry" />
        </mxCell>
        <mxCell id="Arpv6Pk21w3APJ-SWSOh-38" value="" style="edgeStyle=elbowEdgeStyle;elbow=horizontal;" edge="1" source="Arpv6Pk21w3APJ-SWSOh-34" target="Arpv6Pk21w3APJ-SWSOh-37" parent="1">
          <mxGeometry relative="1" as="geometry" />
        </mxCell>
        <mxCell id="Arpv6Pk21w3APJ-SWSOh-39" value="ABx&#xa;Dieta liquida" style="rounded=1;" vertex="1" parent="1">
          <mxGeometry x="440.119765625" y="1310" width="80" height="30" as="geometry" />
        </mxCell>
        <mxCell id="Arpv6Pk21w3APJ-SWSOh-40" value="" style="edgeStyle=elbowEdgeStyle;elbow=horizontal;" edge="1" source="Arpv6Pk21w3APJ-SWSOh-35" target="Arpv6Pk21w3APJ-SWSOh-39" parent="1">
          <mxGeometry relative="1" as="geometry" />
        </mxCell>
        <mxCell id="Arpv6Pk21w3APJ-SWSOh-41" value="Hinchey II" style="rounded=1;" vertex="1" parent="1">
          <mxGeometry x="440.11" y="1380" width="80" height="30" as="geometry" />
        </mxCell>
        <mxCell id="Arpv6Pk21w3APJ-SWSOh-42" value="" style="edgeStyle=elbowEdgeStyle;elbow=horizontal;" edge="1" source="Arpv6Pk21w3APJ-SWSOh-37" target="Arpv6Pk21w3APJ-SWSOh-41" parent="1">
          <mxGeometry relative="1" as="geometry" />
        </mxCell>
        <mxCell id="Arpv6Pk21w3APJ-SWSOh-43" value="ABx +Drenaje percutaneo" style="rounded=1;" vertex="1" parent="1">
          <mxGeometry x="570" y="1380" width="140" height="30" as="geometry" />
        </mxCell>
        <mxCell id="Arpv6Pk21w3APJ-SWSOh-44" value="" style="edgeStyle=elbowEdgeStyle;elbow=horizontal;" edge="1" source="Arpv6Pk21w3APJ-SWSOh-41" target="Arpv6Pk21w3APJ-SWSOh-43" parent="1">
          <mxGeometry relative="1" as="geometry" />
        </mxCell>
        <mxCell id="Arpv6Pk21w3APJ-SWSOh-45" value="Hinchey III-IV" style="rounded=1;" vertex="1" parent="1">
          <mxGeometry x="440.11" y="1450" width="80" height="30" as="geometry" />
        </mxCell>
        <mxCell id="Arpv6Pk21w3APJ-SWSOh-46" value="" style="edgeStyle=elbowEdgeStyle;elbow=horizontal;" edge="1" source="Arpv6Pk21w3APJ-SWSOh-37" target="Arpv6Pk21w3APJ-SWSOh-45" parent="1">
          <mxGeometry relative="1" as="geometry" />
        </mxCell>
        <mxCell id="Arpv6Pk21w3APJ-SWSOh-47" value="Cx Urgente" style="rounded=1;" vertex="1" parent="1">
          <mxGeometry x="570.11" y="1450" width="80" height="30" as="geometry" />
        </mxCell>
        <mxCell id="Arpv6Pk21w3APJ-SWSOh-48" value="" style="edgeStyle=elbowEdgeStyle;elbow=horizontal;" edge="1" source="Arpv6Pk21w3APJ-SWSOh-45" target="Arpv6Pk21w3APJ-SWSOh-47" parent="1">
          <mxGeometry relative="1" as="geometry" />
        </mxCell>
      </root>
    </mxGraphModel>
  </diagram>
</mxfile>
